<?xml version="1.0" encoding="utf-8" standalone="no"?>
<!DOCTYPE svg PUBLIC "-//W3C//DTD SVG 1.1//EN"
  "http://www.w3.org/Graphics/SVG/1.1/DTD/svg11.dtd">
<svg xmlns:xlink="http://www.w3.org/1999/xlink" width="411.023622pt" height="205.511811pt" viewBox="0 0 411.023622 205.511811" xmlns="http://www.w3.org/2000/svg" version="1.1">
 <metadata>
  <rdf:RDF xmlns:dc="http://purl.org/dc/elements/1.1/" xmlns:cc="http://creativecommons.org/ns#" xmlns:rdf="http://www.w3.org/1999/02/22-rdf-syntax-ns#">
   <cc:Work>
    <dc:type rdf:resource="http://purl.org/dc/dcmitype/StillImage"/>
    <dc:date>2026-05-12T18:56:26.420809</dc:date>
    <dc:format>image/svg+xml</dc:format>
    <dc:creator>
     <cc:Agent>
      <dc:title>Matplotlib v3.10.8, https://matplotlib.org/</dc:title>
     </cc:Agent>
    </dc:creator>
   </cc:Work>
  </rdf:RDF>
 </metadata>
 <defs>
  <style type="text/css">*{stroke-linejoin: round; stroke-linecap: butt}</style>
 </defs>
 <g id="figure_1">
  <g id="patch_1">
   <path d="M 0 205.511811 
L 411.023622 205.511811 
L 411.023622 0 
L 0 0 
z
" style="fill: #ffffff"/>
  </g>
  <g id="axes_1">
   <g id="patch_2">
    <path d="M 33.83 184.371811 
L 401.303622 184.371811 
L 401.303622 9.72 
L 33.83 9.72 
z
" style="fill: #ffffff"/>
   </g>
   <g id="matplotlib.axis_1">
    <g id="xtick_1">
     <g id="line2d_1">
      <defs>
       <path id="m0ab803b2e7" d="M 0 0 
L 0 3 
" style="stroke: #404040"/>
      </defs>
      <g>
       <use xlink:href="#m0ab803b2e7" x="50.533346" y="184.371811" style="fill: #404040; stroke: #404040"/>
      </g>
     </g>
     <g id="text_1">
      <text style="font-weight: 700; font-size: 9px; font-family: 'Century Gothic', 'DejaVu Sans'; text-anchor: middle; fill: #4d4d4d" x="50.533346" y="197.499467" transform="rotate(-0 50.533346 197.499467)">2017</text>
     </g>
    </g>
    <g id="xtick_2">
     <g id="line2d_2">
      <g>
       <use xlink:href="#m0ab803b2e7" x="86.975196" y="184.371811" style="fill: #404040; stroke: #404040"/>
      </g>
     </g>
     <g id="text_2">
      <text style="font-weight: 700; font-size: 9px; font-family: 'Century Gothic', 'DejaVu Sans'; text-anchor: middle; fill: #4d4d4d" x="86.975196" y="197.499467" transform="rotate(-0 86.975196 197.499467)">2018</text>
     </g>
    </g>
    <g id="xtick_3">
     <g id="line2d_3">
      <g>
       <use xlink:href="#m0ab803b2e7" x="123.417046" y="184.371811" style="fill: #404040; stroke: #404040"/>
      </g>
     </g>
     <g id="text_3">
      <text style="font-weight: 700; font-size: 9px; font-family: 'Century Gothic', 'DejaVu Sans'; text-anchor: middle; fill: #4d4d4d" x="123.417046" y="197.499467" transform="rotate(-0 123.417046 197.499467)">2019</text>
     </g>
    </g>
    <g id="xtick_4">
     <g id="line2d_4">
      <g>
       <use xlink:href="#m0ab803b2e7" x="159.858896" y="184.371811" style="fill: #404040; stroke: #404040"/>
      </g>
     </g>
     <g id="text_4">
      <text style="font-weight: 700; font-size: 9px; font-family: 'Century Gothic', 'DejaVu Sans'; text-anchor: middle; fill: #4d4d4d" x="159.858896" y="197.499467" transform="rotate(-0 159.858896 197.499467)">2020</text>
     </g>
    </g>
    <g id="xtick_5">
     <g id="line2d_5">
      <g>
       <use xlink:href="#m0ab803b2e7" x="196.400586" y="184.371811" style="fill: #404040; stroke: #404040"/>
      </g>
     </g>
     <g id="text_5">
      <text style="font-weight: 700; font-size: 9px; font-family: 'Century Gothic', 'DejaVu Sans'; text-anchor: middle; fill: #4d4d4d" x="196.400586" y="197.499467" transform="rotate(-0 196.400586 197.499467)">2021</text>
     </g>
    </g>
    <g id="xtick_6">
     <g id="line2d_6">
      <g>
       <use xlink:href="#m0ab803b2e7" x="232.842436" y="184.371811" style="fill: #404040; stroke: #404040"/>
      </g>
     </g>
     <g id="text_6">
      <text style="font-weight: 700; font-size: 9px; font-family: 'Century Gothic', 'DejaVu Sans'; text-anchor: middle; fill: #4d4d4d" x="232.842436" y="197.499467" transform="rotate(-0 232.842436 197.499467)">2022</text>
     </g>
    </g>
    <g id="xtick_7">
     <g id="line2d_7">
      <g>
       <use xlink:href="#m0ab803b2e7" x="269.284285" y="184.371811" style="fill: #404040; stroke: #404040"/>
      </g>
     </g>
     <g id="text_7">
      <text style="font-weight: 700; font-size: 9px; font-family: 'Century Gothic', 'DejaVu Sans'; text-anchor: middle; fill: #4d4d4d" x="269.284285" y="197.499467" transform="rotate(-0 269.284285 197.499467)">2023</text>
     </g>
    </g>
    <g id="xtick_8">
     <g id="line2d_8">
      <g>
       <use xlink:href="#m0ab803b2e7" x="305.726135" y="184.371811" style="fill: #404040; stroke: #404040"/>
      </g>
     </g>
     <g id="text_8">
      <text style="font-weight: 700; font-size: 9px; font-family: 'Century Gothic', 'DejaVu Sans'; text-anchor: middle; fill: #4d4d4d" x="305.726135" y="197.499467" transform="rotate(-0 305.726135 197.499467)">2024</text>
     </g>
    </g>
    <g id="xtick_9">
     <g id="line2d_9">
      <g>
       <use xlink:href="#m0ab803b2e7" x="342.267826" y="184.371811" style="fill: #404040; stroke: #404040"/>
      </g>
     </g>
     <g id="text_9">
      <text style="font-weight: 700; font-size: 9px; font-family: 'Century Gothic', 'DejaVu Sans'; text-anchor: middle; fill: #4d4d4d" x="342.267826" y="197.499467" transform="rotate(-0 342.267826 197.499467)">2025</text>
     </g>
    </g>
    <g id="xtick_10">
     <g id="line2d_10">
      <g>
       <use xlink:href="#m0ab803b2e7" x="378.709675" y="184.371811" style="fill: #404040; stroke: #404040"/>
      </g>
     </g>
     <g id="text_10">
      <text style="font-weight: 700; font-size: 9px; font-family: 'Century Gothic', 'DejaVu Sans'; text-anchor: middle; fill: #4d4d4d" x="378.709675" y="197.499467" transform="rotate(-0 378.709675 197.499467)">2026</text>
     </g>
    </g>
   </g>
   <g id="matplotlib.axis_2">
    <g id="ytick_1">
     <g id="line2d_11">
      <path d="M 33.83 184.371811 
L 401.303622 184.371811 
" clip-path="url(#p980a2b549f)" style="fill: none; stroke: #cccccc; stroke-linecap: round"/>
     </g>
     <g id="line2d_12">
      <defs>
       <path id="mf96b1d6f1d" d="M 0 0 
L -3 0 
" style="stroke: #404040"/>
      </defs>
      <g>
       <use xlink:href="#mf96b1d6f1d" x="33.83" y="184.371811" style="fill: #404040; stroke: #404040"/>
      </g>
     </g>
     <g id="text_11">
      <text style="font-weight: 700; font-size: 9px; font-family: 'Century Gothic', 'DejaVu Sans'; text-anchor: end; fill: #4d4d4d" x="27.33" y="187.685639" transform="rotate(-0 27.33 187.685639)">0</text>
     </g>
    </g>
    <g id="ytick_2">
     <g id="line2d_13">
      <path d="M 33.83 148.55281 
L 401.303622 148.55281 
" clip-path="url(#p980a2b549f)" style="fill: none; stroke: #cccccc; stroke-linecap: round"/>
     </g>
     <g id="line2d_14">
      <g>
       <use xlink:href="#mf96b1d6f1d" x="33.83" y="148.55281" style="fill: #404040; stroke: #404040"/>
      </g>
     </g>
     <g id="text_12">
      <text style="font-weight: 700; font-size: 9px; font-family: 'Century Gothic', 'DejaVu Sans'; text-anchor: end; fill: #4d4d4d" x="27.33" y="151.866638" transform="rotate(-0 27.33 151.866638)">1.0M</text>
     </g>
    </g>
    <g id="ytick_3">
     <g id="line2d_15">
      <path d="M 33.83 112.733809 
L 401.303622 112.733809 
" clip-path="url(#p980a2b549f)" style="fill: none; stroke: #cccccc; stroke-linecap: round"/>
     </g>
     <g id="line2d_16">
      <g>
       <use xlink:href="#mf96b1d6f1d" x="33.83" y="112.733809" style="fill: #404040; stroke: #404040"/>
      </g>
     </g>
     <g id="text_13">
      <text style="font-weight: 700; font-size: 9px; font-family: 'Century Gothic', 'DejaVu Sans'; text-anchor: end; fill: #4d4d4d" x="27.33" y="116.047638" transform="rotate(-0 27.33 116.047638)">2.0M</text>
     </g>
    </g>
    <g id="ytick_4">
     <g id="line2d_17">
      <path d="M 33.83 76.914809 
L 401.303622 76.914809 
" clip-path="url(#p980a2b549f)" style="fill: none; stroke: #cccccc; stroke-linecap: round"/>
     </g>
     <g id="line2d_18">
      <g>
       <use xlink:href="#mf96b1d6f1d" x="33.83" y="76.914809" style="fill: #404040; stroke: #404040"/>
      </g>
     </g>
     <g id="text_14">
      <text style="font-weight: 700; font-size: 9px; font-family: 'Century Gothic', 'DejaVu Sans'; text-anchor: end; fill: #4d4d4d" x="27.33" y="80.228637" transform="rotate(-0 27.33 80.228637)">3.0M</text>
     </g>
    </g>
    <g id="ytick_5">
     <g id="line2d_19">
      <path d="M 33.83 41.095808 
L 401.303622 41.095808 
" clip-path="url(#p980a2b549f)" style="fill: none; stroke: #cccccc; stroke-linecap: round"/>
     </g>
     <g id="line2d_20">
      <g>
       <use xlink:href="#mf96b1d6f1d" x="33.83" y="41.095808" style="fill: #404040; stroke: #404040"/>
      </g>
     </g>
     <g id="text_15">
      <text style="font-weight: 700; font-size: 9px; font-family: 'Century Gothic', 'DejaVu Sans'; text-anchor: end; fill: #4d4d4d" x="27.33" y="44.409636" transform="rotate(-0 27.33 44.409636)">4.0M</text>
     </g>
    </g>
   </g>
   <g id="FillBetweenPolyCollection_1">
    <path d="M 50.533346 155.821918 
L 50.533346 184.371811 
L 53.628408 184.371811 
L 56.423947 184.371811 
L 59.519008 184.371811 
L 62.514229 184.371811 
L 65.60929 184.371811 
L 68.60451 184.371811 
L 71.699571 184.371811 
L 74.794633 184.371811 
L 77.789853 184.371811 
L 80.884914 184.371811 
L 83.880135 184.371811 
L 86.975196 184.371811 
L 90.070257 184.371811 
L 92.865797 184.371811 
L 95.960858 184.371811 
L 98.956078 184.371811 
L 102.051139 184.371811 
L 105.04636 184.371811 
L 108.141421 184.371811 
L 111.236482 184.371811 
L 114.231703 184.371811 
L 117.326764 184.371811 
L 120.321985 184.371811 
L 123.417046 184.371811 
L 126.512107 184.371811 
L 129.307646 184.371811 
L 132.402707 184.371811 
L 135.397928 184.371811 
L 138.492989 184.371811 
L 144.583271 184.371811 
L 147.678332 184.371811 
L 153.768614 184.371811 
L 156.763834 184.371811 
L 159.858896 184.371811 
L 162.953957 184.371811 
L 165.849337 184.371811 
L 168.944398 184.371811 
L 171.939618 184.371811 
L 175.03468 184.371811 
L 178.0299 184.371811 
L 181.124961 184.371811 
L 184.220023 184.371811 
L 187.215243 184.371811 
L 190.310304 184.371811 
L 193.305525 184.371811 
L 196.400586 184.371811 
L 199.495647 184.371811 
L 202.291186 184.371811 
L 205.386248 184.371811 
L 208.381468 184.371811 
L 211.476529 184.371811 
L 214.47175 184.371811 
L 217.566811 184.371811 
L 220.661872 184.371811 
L 223.657093 184.371811 
L 226.752154 184.371811 
L 229.747374 184.371811 
L 232.842436 184.371811 
L 235.937497 184.371811 
L 238.733036 184.371811 
L 241.828097 184.371811 
L 244.823318 184.371811 
L 247.918379 184.371811 
L 250.9136 184.371811 
L 254.008661 184.371811 
L 257.103722 184.371811 
L 260.098942 184.371811 
L 263.194004 184.371811 
L 266.189224 184.371811 
L 269.284285 184.371811 
L 272.379347 184.371811 
L 275.174886 184.371811 
L 278.269947 184.371811 
L 281.265168 184.371811 
L 284.360229 184.371811 
L 287.355449 184.371811 
L 290.45051 184.371811 
L 293.545572 184.371811 
L 296.540792 184.371811 
L 299.635853 184.371811 
L 302.631074 184.371811 
L 305.726135 184.371811 
L 308.821196 184.371811 
L 311.716576 184.371811 
L 314.811637 184.371811 
L 317.806858 184.371811 
L 320.901919 184.371811 
L 323.89714 184.371811 
L 326.992201 184.371811 
L 330.087262 184.371811 
L 333.082483 184.371811 
L 336.177544 184.371811 
L 339.172764 184.371811 
L 342.267826 184.371811 
L 345.362887 184.371811 
L 348.158426 184.371811 
L 351.253487 184.371811 
L 354.248708 184.371811 
L 357.343769 184.371811 
L 360.338989 184.371811 
L 363.434051 184.371811 
L 366.529112 184.371811 
L 369.524332 184.371811 
L 372.619393 184.371811 
L 375.614614 184.371811 
L 378.709675 184.371811 
L 381.804736 184.371811 
L 384.600276 184.371811 
L 384.600276 153.501922 
L 384.600276 153.501922 
L 381.804736 151.462961 
L 378.709675 150.472207 
L 375.614614 152.199041 
L 372.619393 153.227118 
L 369.524332 154.556039 
L 366.529112 155.418131 
L 363.434051 149.862174 
L 360.338989 151.128447 
L 357.343769 155.884924 
L 354.248708 157.004303 
L 351.253487 155.972394 
L 348.158426 153.907106 
L 345.362887 151.817318 
L 342.267826 150.040517 
L 339.172764 151.572209 
L 336.177544 152.791774 
L 333.082483 155.145656 
L 330.087262 156.293046 
L 326.992201 151.170642 
L 323.89714 152.711611 
L 320.901919 156.960354 
L 317.806858 157.815496 
L 314.811637 156.831513 
L 311.716576 155.465519 
L 308.821196 152.886659 
L 305.726135 151.707318 
L 302.631074 153.715654 
L 299.635853 154.503349 
L 296.540792 156.689025 
L 293.545572 157.721686 
L 290.45051 152.974451 
L 287.355449 154.254837 
L 284.360229 157.944015 
L 281.265168 159.346794 
L 278.269947 158.54273 
L 275.174886 156.422925 
L 272.379347 153.742482 
L 269.284285 152.272399 
L 266.189224 153.778194 
L 263.194004 155.361537 
L 260.098942 157.094532 
L 257.103722 157.779713 
L 254.008661 153.905924 
L 250.9136 155.344451 
L 247.918379 159.193274 
L 244.823318 160.042256 
L 241.828097 159.426742 
L 238.733036 158.442866 
L 235.937497 155.240827 
L 232.842436 154.496615 
L 229.747374 155.224851 
L 226.752154 156.665169 
L 223.657093 156.610008 
L 220.661872 156.34946 
L 217.566811 151.548676 
L 214.47175 152.128084 
L 211.476529 154.250539 
L 208.381468 151.79837 
L 205.386248 148.605106 
L 202.291186 146.644947 
L 199.495647 142.737094 
L 196.400586 143.229999 
L 193.305525 144.621424 
L 190.310304 139.996009 
L 187.215243 133.011555 
L 184.220023 132.533084 
L 181.124961 119.038383 
L 178.0299 109.133785 
L 175.03468 84.17532 
L 171.939618 50.430526 
L 168.944398 60.979258 
L 165.849337 149.482277 
L 162.953957 152.410552 
L 159.858896 150.713914 
L 156.763834 152.398983 
L 153.768614 153.211429 
L 147.678332 156.787276 
L 144.583271 151.803743 
L 138.492989 158.448526 
L 135.397928 159.4026 
L 132.402707 158.65975 
L 129.307646 157.297124 
L 126.512107 154.900582 
L 123.417046 153.597737 
L 120.321985 155.467704 
L 117.326764 156.039913 
L 114.231703 158.121104 
L 111.236482 158.788233 
L 108.141421 154.088279 
L 105.04636 155.927656 
L 102.051139 159.389885 
L 98.956078 160.799112 
L 95.960858 159.88956 
L 92.865797 158.90289 
L 90.070257 156.670076 
L 86.975196 155.502699 
L 83.880135 156.829578 
L 80.884914 157.567271 
L 77.789853 159.414958 
L 74.794633 160.049957 
L 71.699571 155.173093 
L 68.60451 156.666208 
L 65.60929 160.284464 
L 62.514229 161.465166 
L 59.519008 160.619515 
L 56.423947 158.989894 
L 53.628408 157.277602 
L 50.533346 155.821918 
z
" clip-path="url(#p980a2b549f)" style="fill: #83082a; fill-opacity: 0.92"/>
   </g>
   <g id="FillBetweenPolyCollection_2">
    <path d="M 50.533346 127.373966 
L 50.533346 155.821918 
L 53.628408 157.277602 
L 56.423947 158.989894 
L 59.519008 160.619515 
L 62.514229 161.465166 
L 65.60929 160.284464 
L 68.60451 156.666208 
L 71.699571 155.173093 
L 74.794633 160.049957 
L 77.789853 159.414958 
L 80.884914 157.567271 
L 83.880135 156.829578 
L 86.975196 155.502699 
L 90.070257 156.670076 
L 92.865797 158.90289 
L 95.960858 159.88956 
L 98.956078 160.799112 
L 102.051139 159.389885 
L 105.04636 155.927656 
L 108.141421 154.088279 
L 111.236482 158.788233 
L 114.231703 158.121104 
L 117.326764 156.039913 
L 120.321985 155.467704 
L 123.417046 153.597737 
L 126.512107 154.900582 
L 129.307646 157.297124 
L 132.402707 158.65975 
L 135.397928 159.4026 
L 138.492989 158.448526 
L 144.583271 151.803743 
L 147.678332 156.787276 
L 153.768614 153.211429 
L 156.763834 152.398983 
L 159.858896 150.713914 
L 162.953957 152.410552 
L 165.849337 149.482277 
L 168.944398 60.979258 
L 171.939618 50.430526 
L 175.03468 84.17532 
L 178.0299 109.133785 
L 181.124961 119.038383 
L 184.220023 132.533084 
L 187.215243 133.011555 
L 190.310304 139.996009 
L 193.305525 144.621424 
L 196.400586 143.229999 
L 199.495647 142.737094 
L 202.291186 146.644947 
L 205.386248 148.605106 
L 208.381468 151.79837 
L 211.476529 154.250539 
L 214.47175 152.128084 
L 217.566811 151.548676 
L 220.661872 156.34946 
L 223.657093 156.610008 
L 226.752154 156.665169 
L 229.747374 155.224851 
L 232.842436 154.496615 
L 235.937497 155.240827 
L 238.733036 158.442866 
L 241.828097 159.426742 
L 244.823318 160.042256 
L 247.918379 159.193274 
L 250.9136 155.344451 
L 254.008661 153.905924 
L 257.103722 157.779713 
L 260.098942 157.094532 
L 263.194004 155.361537 
L 266.189224 153.778194 
L 269.284285 152.272399 
L 272.379347 153.742482 
L 275.174886 156.422925 
L 278.269947 158.54273 
L 281.265168 159.346794 
L 284.360229 157.944015 
L 287.355449 154.254837 
L 290.45051 152.974451 
L 293.545572 157.721686 
L 296.540792 156.689025 
L 299.635853 154.503349 
L 302.631074 153.715654 
L 305.726135 151.707318 
L 308.821196 152.886659 
L 311.716576 155.465519 
L 314.811637 156.831513 
L 317.806858 157.815496 
L 320.901919 156.960354 
L 323.89714 152.711611 
L 326.992201 151.170642 
L 330.087262 156.293046 
L 333.082483 155.145656 
L 336.177544 152.791774 
L 339.172764 151.572209 
L 342.267826 150.040517 
L 345.362887 151.817318 
L 348.158426 153.907106 
L 351.253487 155.972394 
L 354.248708 157.004303 
L 357.343769 155.884924 
L 360.338989 151.128447 
L 363.434051 149.862174 
L 366.529112 155.418131 
L 369.524332 154.556039 
L 372.619393 153.227118 
L 375.614614 152.199041 
L 378.709675 150.472207 
L 381.804736 151.462961 
L 384.600276 153.501922 
L 384.600276 125.182596 
L 384.600276 125.182596 
L 381.804736 122.878718 
L 378.709675 121.922135 
L 375.614614 125.169629 
L 372.619393 123.427393 
L 369.524332 125.800617 
L 366.529112 127.868663 
L 363.434051 122.50312 
L 360.338989 123.648074 
L 357.343769 128.429266 
L 354.248708 129.274021 
L 351.253487 128.332483 
L 348.158426 125.174071 
L 345.362887 123.670855 
L 342.267826 122.023861 
L 339.172764 125.00042 
L 336.177544 126.514561 
L 333.082483 129.888174 
L 330.087262 131.750081 
L 326.992201 126.577173 
L 323.89714 128.142248 
L 320.901919 131.908365 
L 317.806858 132.04763 
L 314.811637 130.52106 
L 311.716576 128.458279 
L 308.821196 125.067366 
L 305.726135 124.234252 
L 302.631074 127.447539 
L 299.635853 128.137914 
L 296.540792 131.235255 
L 293.545572 132.98641 
L 290.45051 128.355264 
L 287.355449 129.775989 
L 284.360229 132.874511 
L 281.265168 133.750895 
L 278.269947 132.620232 
L 275.174886 129.539404 
L 272.379347 126.692044 
L 269.284285 125.438093 
L 266.189224 127.845165 
L 263.194004 129.427398 
L 260.098942 131.710501 
L 257.103722 133.011376 
L 254.008661 129.478727 
L 250.9136 130.961096 
L 247.918379 134.078101 
L 244.823318 134.100596 
L 241.828097 133.186531 
L 238.733036 131.350771 
L 235.937497 128.390402 
L 232.842436 127.868483 
L 229.747374 129.002835 
L 226.752154 130.147288 
L 223.657093 130.149115 
L 220.661872 129.894012 
L 217.566811 124.886946 
L 214.47175 124.980827 
L 211.476529 125.904814 
L 208.381468 121.983171 
L 205.386248 118.26018 
L 202.291186 115.899672 
L 199.495647 111.112785 
L 196.400586 110.318176 
L 193.305525 113.158014 
L 190.310304 110.453321 
L 187.215243 104.08284 
L 184.220023 104.292919 
L 181.124961 90.017041 
L 178.0299 79.276284 
L 175.03468 52.741747 
L 171.939618 18.036753 
L 168.944398 28.739184 
L 165.849337 119.66629 
L 162.953957 123.569917 
L 159.858896 122.033246 
L 156.763834 125.249685 
L 153.768614 125.713612 
L 147.678332 131.774223 
L 144.583271 127.044217 
L 138.492989 133.527384 
L 135.397928 133.54909 
L 132.402707 132.794348 
L 129.307646 130.608458 
L 126.512107 128.215999 
L 123.417046 127.138564 
L 120.321985 130.740773 
L 117.326764 130.982981 
L 114.231703 134.458105 
L 111.236482 136.446095 
L 108.141421 132.325119 
L 105.04636 134.736311 
L 102.051139 137.44104 
L 98.956078 137.751376 
L 95.960858 135.871738 
L 92.865797 134.013484 
L 90.070257 130.727055 
L 86.975196 129.487395 
L 83.880135 131.928496 
L 80.884914 132.30986 
L 77.789853 135.25583 
L 74.794633 136.884054 
L 71.699571 132.014533 
L 68.60451 133.558188 
L 65.60929 136.365682 
L 62.514229 136.386743 
L 59.519008 134.575591 
L 56.423947 130.988677 
L 53.628408 128.932953 
L 50.533346 127.373966 
z
" clip-path="url(#p980a2b549f)" style="fill: #e397a0; fill-opacity: 0.92"/>
   </g>
   <g id="patch_3">
    <path d="M 33.83 184.371811 
L 33.83 9.72 
" style="fill: none; stroke: #404040; stroke-linejoin: miter; stroke-linecap: square"/>
   </g>
   <g id="patch_4">
    <path d="M 33.83 184.371811 
L 401.303622 184.371811 
" style="fill: none; stroke: #404040; stroke-linejoin: miter; stroke-linecap: square"/>
   </g>
   <g id="legend_1">
    <g id="patch_5">
     <path d="M 41.03 22.81125 
L 57.03 22.81125 
L 57.03 17.21125 
L 41.03 17.21125 
z
" style="fill: #83082a; fill-opacity: 0.92"/>
    </g>
    <g id="text_16">
     <text style="font-weight: 700; font-size: 8px; font-family: 'Century Gothic', 'DejaVu Sans'; text-anchor: start; fill: #404040" x="63.43" y="22.81125" transform="rotate(-0 63.43 22.81125)">Prestación contributiva</text>
    </g>
    <g id="patch_6">
     <path d="M 41.03 34.36625 
L 57.03 34.36625 
L 57.03 28.76625 
L 41.03 28.76625 
z
" style="fill: #e397a0; fill-opacity: 0.92"/>
    </g>
    <g id="text_17">
     <text style="font-weight: 700; font-size: 8px; font-family: 'Century Gothic', 'DejaVu Sans'; text-anchor: start; fill: #404040" x="63.43" y="34.36625" transform="rotate(-0 63.43 34.36625)">Subsidios de desempleo</text>
    </g>
   </g>
  </g>
 </g>
 <defs>
  <clipPath id="p980a2b549f">
   <rect x="33.83" y="9.72" width="367.473622" height="174.651811"/>
  </clipPath>
 </defs>
</svg>
