<?xml version="1.0" encoding="utf-8" standalone="no"?>
<!DOCTYPE svg PUBLIC "-//W3C//DTD SVG 1.1//EN"
  "http://www.w3.org/Graphics/SVG/1.1/DTD/svg11.dtd">
<svg xmlns:xlink="http://www.w3.org/1999/xlink" width="411.023622pt" height="205.511811pt" viewBox="0 0 411.023622 205.511811" xmlns="http://www.w3.org/2000/svg" version="1.1">
 <metadata>
  <rdf:RDF xmlns:dc="http://purl.org/dc/elements/1.1/" xmlns:cc="http://creativecommons.org/ns#" xmlns:rdf="http://www.w3.org/1999/02/22-rdf-syntax-ns#">
   <cc:Work>
    <dc:type rdf:resource="http://purl.org/dc/dcmitype/StillImage"/>
    <dc:date>2026-05-12T13:58:07.231281</dc:date>
    <dc:format>image/svg+xml</dc:format>
    <dc:creator>
     <cc:Agent>
      <dc:title>Matplotlib v3.10.8, https://matplotlib.org/</dc:title>
     </cc:Agent>
    </dc:creator>
   </cc:Work>
  </rdf:RDF>
 </metadata>
 <defs>
  <style type="text/css">*{stroke-linejoin: round; stroke-linecap: butt}</style>
 </defs>
 <g id="figure_1">
  <g id="patch_1">
   <path d="M 0 205.511811 
L 411.023622 205.511811 
L 411.023622 0 
L 0 0 
z
" style="fill: #ffffff"/>
  </g>
  <g id="axes_1">
   <g id="patch_2">
    <path d="M 34.01 184.371811 
L 401.303622 184.371811 
L 401.303622 9.72 
L 34.01 9.72 
z
" style="fill: #ffffff"/>
   </g>
   <g id="matplotlib.axis_1">
    <g id="xtick_1">
     <g id="line2d_1"/>
     <g id="text_1">
      <text style="font-size: 9px; font-family: 'Century Gothic'; text-anchor: middle; fill: #404040" x="50.705165" y="194.499467" transform="rotate(-0 50.705165 194.499467)">2017</text>
     </g>
    </g>
    <g id="xtick_2">
     <g id="line2d_2"/>
     <g id="text_2">
      <text style="font-size: 9px; font-family: 'Century Gothic'; text-anchor: middle; fill: #404040" x="87.129164" y="194.499467" transform="rotate(-0 87.129164 194.499467)">2018</text>
     </g>
    </g>
    <g id="xtick_3">
     <g id="line2d_3"/>
     <g id="text_3">
      <text style="font-size: 9px; font-family: 'Century Gothic'; text-anchor: middle; fill: #404040" x="123.553163" y="194.499467" transform="rotate(-0 123.553163 194.499467)">2019</text>
     </g>
    </g>
    <g id="xtick_4">
     <g id="line2d_4"/>
     <g id="text_4">
      <text style="font-size: 9px; font-family: 'Century Gothic'; text-anchor: middle; fill: #404040" x="159.977163" y="194.499467" transform="rotate(-0 159.977163 194.499467)">2020</text>
     </g>
    </g>
    <g id="xtick_5">
     <g id="line2d_5"/>
     <g id="text_5">
      <text style="font-size: 9px; font-family: 'Century Gothic'; text-anchor: middle; fill: #404040" x="196.500954" y="194.499467" transform="rotate(-0 196.500954 194.499467)">2021</text>
     </g>
    </g>
    <g id="xtick_6">
     <g id="line2d_6"/>
     <g id="text_6">
      <text style="font-size: 9px; font-family: 'Century Gothic'; text-anchor: middle; fill: #404040" x="232.924953" y="194.499467" transform="rotate(-0 232.924953 194.499467)">2022</text>
     </g>
    </g>
    <g id="xtick_7">
     <g id="line2d_7"/>
     <g id="text_7">
      <text style="font-size: 9px; font-family: 'Century Gothic'; text-anchor: middle; fill: #404040" x="269.348953" y="194.499467" transform="rotate(-0 269.348953 194.499467)">2023</text>
     </g>
    </g>
    <g id="xtick_8">
     <g id="line2d_8"/>
     <g id="text_8">
      <text style="font-size: 9px; font-family: 'Century Gothic'; text-anchor: middle; fill: #404040" x="305.772952" y="194.499467" transform="rotate(-0 305.772952 194.499467)">2024</text>
     </g>
    </g>
    <g id="xtick_9">
     <g id="line2d_9"/>
     <g id="text_9">
      <text style="font-size: 9px; font-family: 'Century Gothic'; text-anchor: middle; fill: #404040" x="342.296743" y="194.499467" transform="rotate(-0 342.296743 194.499467)">2025</text>
     </g>
    </g>
    <g id="xtick_10">
     <g id="line2d_10"/>
     <g id="text_10">
      <text style="font-size: 9px; font-family: 'Century Gothic'; text-anchor: middle; fill: #404040" x="378.720742" y="194.499467" transform="rotate(-0 378.720742 194.499467)">2026</text>
     </g>
    </g>
   </g>
   <g id="matplotlib.axis_2">
    <g id="ytick_1">
     <g id="line2d_11"/>
     <g id="text_11">
      <text style="font-size: 9px; font-family: 'Century Gothic'; text-anchor: end; fill: #404040" x="30.51" y="187.685639" transform="rotate(-0 30.51 187.685639)">0</text>
     </g>
    </g>
    <g id="ytick_2">
     <g id="line2d_12"/>
     <g id="text_12">
      <text style="font-size: 9px; font-family: 'Century Gothic'; text-anchor: end; fill: #404040" x="30.51" y="151.866638" transform="rotate(-0 30.51 151.866638)">1.0M</text>
     </g>
    </g>
    <g id="ytick_3">
     <g id="line2d_13"/>
     <g id="text_13">
      <text style="font-size: 9px; font-family: 'Century Gothic'; text-anchor: end; fill: #404040" x="30.51" y="116.047638" transform="rotate(-0 30.51 116.047638)">2.0M</text>
     </g>
    </g>
    <g id="ytick_4">
     <g id="line2d_14"/>
     <g id="text_14">
      <text style="font-size: 9px; font-family: 'Century Gothic'; text-anchor: end; fill: #404040" x="30.51" y="80.228637" transform="rotate(-0 30.51 80.228637)">3.0M</text>
     </g>
    </g>
    <g id="ytick_5">
     <g id="line2d_15"/>
     <g id="text_15">
      <text style="font-size: 9px; font-family: 'Century Gothic'; text-anchor: end; fill: #404040" x="30.51" y="44.409636" transform="rotate(-0 30.51 44.409636)">4.0M</text>
     </g>
    </g>
   </g>
   <g id="FillBetweenPolyCollection_1">
    <path d="M 50.705165 155.821918 
L 50.705165 184.371811 
L 53.79871 184.371811 
L 56.59288 184.371811 
L 59.686425 184.371811 
L 62.680178 184.371811 
L 65.773723 184.371811 
L 68.767477 184.371811 
L 71.861022 184.371811 
L 74.954567 184.371811 
L 77.94832 184.371811 
L 81.041865 184.371811 
L 84.035619 184.371811 
L 87.129164 184.371811 
L 90.222709 184.371811 
L 93.016879 184.371811 
L 96.110424 184.371811 
L 99.104177 184.371811 
L 102.197723 184.371811 
L 105.191476 184.371811 
L 108.285021 184.371811 
L 111.378566 184.371811 
L 114.37232 184.371811 
L 117.465865 184.371811 
L 120.459618 184.371811 
L 123.553163 184.371811 
L 126.646709 184.371811 
L 129.440878 184.371811 
L 132.534423 184.371811 
L 135.528177 184.371811 
L 138.621722 184.371811 
L 144.709021 184.371811 
L 147.802566 184.371811 
L 153.889864 184.371811 
L 156.883618 184.371811 
L 159.977163 184.371811 
L 163.070708 184.371811 
L 165.964669 184.371811 
L 169.058215 184.371811 
L 172.051968 184.371811 
L 175.145513 184.371811 
L 178.139267 184.371811 
L 181.232812 184.371811 
L 184.326357 184.371811 
L 187.32011 184.371811 
L 190.413655 184.371811 
L 193.407409 184.371811 
L 196.500954 184.371811 
L 199.594499 184.371811 
L 202.388669 184.371811 
L 205.482214 184.371811 
L 208.475967 184.371811 
L 211.569513 184.371811 
L 214.563266 184.371811 
L 217.656811 184.371811 
L 220.750356 184.371811 
L 223.74411 184.371811 
L 226.837655 184.371811 
L 229.831408 184.371811 
L 232.924953 184.371811 
L 236.018498 184.371811 
L 238.812668 184.371811 
L 241.906213 184.371811 
L 244.899967 184.371811 
L 247.993512 184.371811 
L 250.987265 184.371811 
L 254.08081 184.371811 
L 257.174356 184.371811 
L 260.168109 184.371811 
L 263.261654 184.371811 
L 266.255407 184.371811 
L 269.348953 184.371811 
L 272.442498 184.371811 
L 275.236668 184.371811 
L 278.330213 184.371811 
L 281.323966 184.371811 
L 284.417511 184.371811 
L 287.411265 184.371811 
L 290.50481 184.371811 
L 293.598355 184.371811 
L 296.592108 184.371811 
L 299.685653 184.371811 
L 302.679407 184.371811 
L 305.772952 184.371811 
L 308.866497 184.371811 
L 311.760459 184.371811 
L 314.854004 184.371811 
L 317.847757 184.371811 
L 320.941302 184.371811 
L 323.935056 184.371811 
L 327.028601 184.371811 
L 330.122146 184.371811 
L 333.115899 184.371811 
L 336.209445 184.371811 
L 339.203198 184.371811 
L 342.296743 184.371811 
L 345.390288 184.371811 
L 348.184458 184.371811 
L 351.278003 184.371811 
L 354.271757 184.371811 
L 357.365302 184.371811 
L 360.359055 184.371811 
L 363.4526 184.371811 
L 366.546145 184.371811 
L 369.539899 184.371811 
L 372.633444 184.371811 
L 375.627197 184.371811 
L 378.720742 184.371811 
L 381.814288 184.371811 
L 384.608457 184.371811 
L 384.608457 153.501922 
L 384.608457 153.501922 
L 381.814288 151.462961 
L 378.720742 150.472207 
L 375.627197 152.199041 
L 372.633444 153.227118 
L 369.539899 154.556039 
L 366.546145 155.418131 
L 363.4526 149.862174 
L 360.359055 151.128447 
L 357.365302 155.884924 
L 354.271757 157.004303 
L 351.278003 155.972394 
L 348.184458 153.907106 
L 345.390288 151.817318 
L 342.296743 150.040517 
L 339.203198 151.572209 
L 336.209445 152.791774 
L 333.115899 155.145656 
L 330.122146 156.293046 
L 327.028601 151.170642 
L 323.935056 152.711611 
L 320.941302 156.960354 
L 317.847757 157.815496 
L 314.854004 156.831513 
L 311.760459 155.465519 
L 308.866497 152.886659 
L 305.772952 151.707318 
L 302.679407 153.715654 
L 299.685653 154.503349 
L 296.592108 156.689025 
L 293.598355 157.721686 
L 290.50481 152.974451 
L 287.411265 154.254837 
L 284.417511 157.944015 
L 281.323966 159.346794 
L 278.330213 158.54273 
L 275.236668 156.422925 
L 272.442498 153.742482 
L 269.348953 152.272399 
L 266.255407 153.778194 
L 263.261654 155.361537 
L 260.168109 157.094532 
L 257.174356 157.779713 
L 254.08081 153.905924 
L 250.987265 155.344451 
L 247.993512 159.193274 
L 244.899967 160.042256 
L 241.906213 159.426742 
L 238.812668 158.442866 
L 236.018498 155.240827 
L 232.924953 154.496615 
L 229.831408 155.224851 
L 226.837655 156.665169 
L 223.74411 156.610008 
L 220.750356 156.34946 
L 217.656811 151.548676 
L 214.563266 152.128084 
L 211.569513 154.250539 
L 208.475967 151.79837 
L 205.482214 148.605106 
L 202.388669 146.644947 
L 199.594499 142.737094 
L 196.500954 143.229999 
L 193.407409 144.621424 
L 190.413655 139.996009 
L 187.32011 133.011555 
L 184.326357 132.533084 
L 181.232812 119.038383 
L 178.139267 109.133785 
L 175.145513 84.17532 
L 172.051968 50.430526 
L 169.058215 60.979258 
L 165.964669 149.482277 
L 163.070708 152.410552 
L 159.977163 150.713914 
L 156.883618 152.398983 
L 153.889864 153.211429 
L 147.802566 156.787276 
L 144.709021 151.803743 
L 138.621722 158.448526 
L 135.528177 159.4026 
L 132.534423 158.65975 
L 129.440878 157.297124 
L 126.646709 154.900582 
L 123.553163 153.597737 
L 120.459618 155.467704 
L 117.465865 156.039913 
L 114.37232 158.121104 
L 111.378566 158.788233 
L 108.285021 154.088279 
L 105.191476 155.927656 
L 102.197723 159.389885 
L 99.104177 160.799112 
L 96.110424 159.88956 
L 93.016879 158.90289 
L 90.222709 156.670076 
L 87.129164 155.502699 
L 84.035619 156.829578 
L 81.041865 157.567271 
L 77.94832 159.414958 
L 74.954567 160.049957 
L 71.861022 155.173093 
L 68.767477 156.666208 
L 65.773723 160.284464 
L 62.680178 161.465166 
L 59.686425 160.619515 
L 56.59288 158.989894 
L 53.79871 157.277602 
L 50.705165 155.821918 
z
" clip-path="url(#p70a6ce564e)" style="fill: #83082a; fill-opacity: 0.92"/>
   </g>
   <g id="FillBetweenPolyCollection_2">
    <path d="M 50.705165 127.373966 
L 50.705165 155.821918 
L 53.79871 157.277602 
L 56.59288 158.989894 
L 59.686425 160.619515 
L 62.680178 161.465166 
L 65.773723 160.284464 
L 68.767477 156.666208 
L 71.861022 155.173093 
L 74.954567 160.049957 
L 77.94832 159.414958 
L 81.041865 157.567271 
L 84.035619 156.829578 
L 87.129164 155.502699 
L 90.222709 156.670076 
L 93.016879 158.90289 
L 96.110424 159.88956 
L 99.104177 160.799112 
L 102.197723 159.389885 
L 105.191476 155.927656 
L 108.285021 154.088279 
L 111.378566 158.788233 
L 114.37232 158.121104 
L 117.465865 156.039913 
L 120.459618 155.467704 
L 123.553163 153.597737 
L 126.646709 154.900582 
L 129.440878 157.297124 
L 132.534423 158.65975 
L 135.528177 159.4026 
L 138.621722 158.448526 
L 144.709021 151.803743 
L 147.802566 156.787276 
L 153.889864 153.211429 
L 156.883618 152.398983 
L 159.977163 150.713914 
L 163.070708 152.410552 
L 165.964669 149.482277 
L 169.058215 60.979258 
L 172.051968 50.430526 
L 175.145513 84.17532 
L 178.139267 109.133785 
L 181.232812 119.038383 
L 184.326357 132.533084 
L 187.32011 133.011555 
L 190.413655 139.996009 
L 193.407409 144.621424 
L 196.500954 143.229999 
L 199.594499 142.737094 
L 202.388669 146.644947 
L 205.482214 148.605106 
L 208.475967 151.79837 
L 211.569513 154.250539 
L 214.563266 152.128084 
L 217.656811 151.548676 
L 220.750356 156.34946 
L 223.74411 156.610008 
L 226.837655 156.665169 
L 229.831408 155.224851 
L 232.924953 154.496615 
L 236.018498 155.240827 
L 238.812668 158.442866 
L 241.906213 159.426742 
L 244.899967 160.042256 
L 247.993512 159.193274 
L 250.987265 155.344451 
L 254.08081 153.905924 
L 257.174356 157.779713 
L 260.168109 157.094532 
L 263.261654 155.361537 
L 266.255407 153.778194 
L 269.348953 152.272399 
L 272.442498 153.742482 
L 275.236668 156.422925 
L 278.330213 158.54273 
L 281.323966 159.346794 
L 284.417511 157.944015 
L 287.411265 154.254837 
L 290.50481 152.974451 
L 293.598355 157.721686 
L 296.592108 156.689025 
L 299.685653 154.503349 
L 302.679407 153.715654 
L 305.772952 151.707318 
L 308.866497 152.886659 
L 311.760459 155.465519 
L 314.854004 156.831513 
L 317.847757 157.815496 
L 320.941302 156.960354 
L 323.935056 152.711611 
L 327.028601 151.170642 
L 330.122146 156.293046 
L 333.115899 155.145656 
L 336.209445 152.791774 
L 339.203198 151.572209 
L 342.296743 150.040517 
L 345.390288 151.817318 
L 348.184458 153.907106 
L 351.278003 155.972394 
L 354.271757 157.004303 
L 357.365302 155.884924 
L 360.359055 151.128447 
L 363.4526 149.862174 
L 366.546145 155.418131 
L 369.539899 154.556039 
L 372.633444 153.227118 
L 375.627197 152.199041 
L 378.720742 150.472207 
L 381.814288 151.462961 
L 384.608457 153.501922 
L 384.608457 125.182596 
L 384.608457 125.182596 
L 381.814288 122.878718 
L 378.720742 121.922135 
L 375.627197 125.169629 
L 372.633444 123.427393 
L 369.539899 125.800617 
L 366.546145 127.868663 
L 363.4526 122.50312 
L 360.359055 123.648074 
L 357.365302 128.429266 
L 354.271757 129.274021 
L 351.278003 128.332483 
L 348.184458 125.174071 
L 345.390288 123.670855 
L 342.296743 122.023861 
L 339.203198 125.00042 
L 336.209445 126.514561 
L 333.115899 129.888174 
L 330.122146 131.750081 
L 327.028601 126.577173 
L 323.935056 128.142248 
L 320.941302 131.908365 
L 317.847757 132.04763 
L 314.854004 130.52106 
L 311.760459 128.458279 
L 308.866497 125.067366 
L 305.772952 124.234252 
L 302.679407 127.447539 
L 299.685653 128.137914 
L 296.592108 131.235255 
L 293.598355 132.98641 
L 290.50481 128.355264 
L 287.411265 129.775989 
L 284.417511 132.874511 
L 281.323966 133.750895 
L 278.330213 132.620232 
L 275.236668 129.539404 
L 272.442498 126.692044 
L 269.348953 125.438093 
L 266.255407 127.845165 
L 263.261654 129.427398 
L 260.168109 131.710501 
L 257.174356 133.011376 
L 254.08081 129.478727 
L 250.987265 130.961096 
L 247.993512 134.078101 
L 244.899967 134.100596 
L 241.906213 133.186531 
L 238.812668 131.350771 
L 236.018498 128.390402 
L 232.924953 127.868483 
L 229.831408 129.002835 
L 226.837655 130.147288 
L 223.74411 130.149115 
L 220.750356 129.894012 
L 217.656811 124.886946 
L 214.563266 124.980827 
L 211.569513 125.904814 
L 208.475967 121.983171 
L 205.482214 118.26018 
L 202.388669 115.899672 
L 199.594499 111.112785 
L 196.500954 110.318176 
L 193.407409 113.158014 
L 190.413655 110.453321 
L 187.32011 104.08284 
L 184.326357 104.292919 
L 181.232812 90.017041 
L 178.139267 79.276284 
L 175.145513 52.741747 
L 172.051968 18.036753 
L 169.058215 28.739184 
L 165.964669 119.66629 
L 163.070708 123.569917 
L 159.977163 122.033246 
L 156.883618 125.249685 
L 153.889864 125.713612 
L 147.802566 131.774223 
L 144.709021 127.044217 
L 138.621722 133.527384 
L 135.528177 133.54909 
L 132.534423 132.794348 
L 129.440878 130.608458 
L 126.646709 128.215999 
L 123.553163 127.138564 
L 120.459618 130.740773 
L 117.465865 130.982981 
L 114.37232 134.458105 
L 111.378566 136.446095 
L 108.285021 132.325119 
L 105.191476 134.736311 
L 102.197723 137.44104 
L 99.104177 137.751376 
L 96.110424 135.871738 
L 93.016879 134.013484 
L 90.222709 130.727055 
L 87.129164 129.487395 
L 84.035619 131.928496 
L 81.041865 132.30986 
L 77.94832 135.25583 
L 74.954567 136.884054 
L 71.861022 132.014533 
L 68.767477 133.558188 
L 65.773723 136.365682 
L 62.680178 136.386743 
L 59.686425 134.575591 
L 56.59288 130.988677 
L 53.79871 128.932953 
L 50.705165 127.373966 
z
" clip-path="url(#p70a6ce564e)" style="fill: #e397a0; fill-opacity: 0.92"/>
   </g>
   <g id="patch_3">
    <path d="M 34.01 184.371811 
L 34.01 9.72 
" style="fill: none; stroke: #404040; stroke-linejoin: miter; stroke-linecap: square"/>
   </g>
   <g id="patch_4">
    <path d="M 34.01 184.371811 
L 401.303622 184.371811 
" style="fill: none; stroke: #404040; stroke-linejoin: miter; stroke-linecap: square"/>
   </g>
   <g id="legend_1">
    <g id="patch_5">
     <path d="M 41.21 22.81125 
L 57.21 22.81125 
L 57.21 17.21125 
L 41.21 17.21125 
z
" style="fill: #83082a; fill-opacity: 0.92"/>
    </g>
    <g id="text_16">
     <text style="font-size: 8px; font-family: 'Century Gothic'; text-anchor: start; fill: #262626" x="63.61" y="22.81125" transform="rotate(-0 63.61 22.81125)">Prestación contributiva</text>
    </g>
    <g id="patch_6">
     <path d="M 41.21 34.36625 
L 57.21 34.36625 
L 57.21 28.76625 
L 41.21 28.76625 
z
" style="fill: #e397a0; fill-opacity: 0.92"/>
    </g>
    <g id="text_17">
     <text style="font-size: 8px; font-family: 'Century Gothic'; text-anchor: start; fill: #262626" x="63.61" y="34.36625" transform="rotate(-0 63.61 34.36625)">Subsidios de desempleo</text>
    </g>
   </g>
  </g>
 </g>
 <defs>
  <clipPath id="p70a6ce564e">
   <rect x="34.01" y="9.72" width="367.293622" height="174.651811"/>
  </clipPath>
 </defs>
</svg>
