<?xml version="1.0" encoding="utf-8" standalone="no"?>
<!DOCTYPE svg PUBLIC "-//W3C//DTD SVG 1.1//EN"
  "http://www.w3.org/Graphics/SVG/1.1/DTD/svg11.dtd">
<svg xmlns:xlink="http://www.w3.org/1999/xlink" width="426.907969pt" height="211.417031pt" viewBox="0 0 426.907969 211.417031" xmlns="http://www.w3.org/2000/svg" version="1.1">
 <metadata>
  <rdf:RDF xmlns:dc="http://purl.org/dc/elements/1.1/" xmlns:cc="http://creativecommons.org/ns#" xmlns:rdf="http://www.w3.org/1999/02/22-rdf-syntax-ns#">
   <cc:Work>
    <dc:type rdf:resource="http://purl.org/dc/dcmitype/StillImage"/>
    <dc:date>2026-05-11T17:15:31.330755</dc:date>
    <dc:format>image/svg+xml</dc:format>
    <dc:creator>
     <cc:Agent>
      <dc:title>Matplotlib v3.10.8, https://matplotlib.org/</dc:title>
     </cc:Agent>
    </dc:creator>
   </cc:Work>
  </rdf:RDF>
 </metadata>
 <defs>
  <style type="text/css">*{stroke-linejoin: round; stroke-linecap: butt}</style>
 </defs>
 <g id="figure_1">
  <g id="patch_1">
   <path d="M 0 211.417031 
L 426.907969 211.417031 
L 426.907969 0 
L 0 0 
z
" style="fill: #ffffff"/>
  </g>
  <g id="axes_1">
   <g id="patch_2">
    <path d="M 31.437969 192.34 
L 419.707969 192.34 
L 419.707969 7.2 
L 31.437969 7.2 
z
" style="fill: #ffffff"/>
   </g>
   <g id="matplotlib.axis_1">
    <g id="xtick_1">
     <g id="line2d_1"/>
     <g id="text_1">
      <text style="font-size: 9px; font-family: 'Century Gothic'; text-anchor: middle; fill: #404040" x="49.086605" y="202.467656" transform="rotate(-0 49.086605 202.467656)">2017</text>
     </g>
    </g>
    <g id="xtick_2">
     <g id="line2d_2"/>
     <g id="text_2">
      <text style="font-size: 9px; font-family: 'Century Gothic'; text-anchor: middle; fill: #404040" x="87.590803" y="202.467656" transform="rotate(-0 87.590803 202.467656)">2018</text>
     </g>
    </g>
    <g id="xtick_3">
     <g id="line2d_3"/>
     <g id="text_3">
      <text style="font-size: 9px; font-family: 'Century Gothic'; text-anchor: middle; fill: #404040" x="126.095" y="202.467656" transform="rotate(-0 126.095 202.467656)">2019</text>
     </g>
    </g>
    <g id="xtick_4">
     <g id="line2d_4"/>
     <g id="text_4">
      <text style="font-size: 9px; font-family: 'Century Gothic'; text-anchor: middle; fill: #404040" x="164.599198" y="202.467656" transform="rotate(-0 164.599198 202.467656)">2020</text>
     </g>
    </g>
    <g id="xtick_5">
     <g id="line2d_5"/>
     <g id="text_5">
      <text style="font-size: 9px; font-family: 'Century Gothic'; text-anchor: middle; fill: #404040" x="203.208887" y="202.467656" transform="rotate(-0 203.208887 202.467656)">2021</text>
     </g>
    </g>
    <g id="xtick_6">
     <g id="line2d_6"/>
     <g id="text_6">
      <text style="font-size: 9px; font-family: 'Century Gothic'; text-anchor: middle; fill: #404040" x="241.713084" y="202.467656" transform="rotate(-0 241.713084 202.467656)">2022</text>
     </g>
    </g>
    <g id="xtick_7">
     <g id="line2d_7"/>
     <g id="text_7">
      <text style="font-size: 9px; font-family: 'Century Gothic'; text-anchor: middle; fill: #404040" x="280.217282" y="202.467656" transform="rotate(-0 280.217282 202.467656)">2023</text>
     </g>
    </g>
    <g id="xtick_8">
     <g id="line2d_8"/>
     <g id="text_8">
      <text style="font-size: 9px; font-family: 'Century Gothic'; text-anchor: middle; fill: #404040" x="318.72148" y="202.467656" transform="rotate(-0 318.72148 202.467656)">2024</text>
     </g>
    </g>
    <g id="xtick_9">
     <g id="line2d_9"/>
     <g id="text_9">
      <text style="font-size: 9px; font-family: 'Century Gothic'; text-anchor: middle; fill: #404040" x="357.331169" y="202.467656" transform="rotate(-0 357.331169 202.467656)">2025</text>
     </g>
    </g>
    <g id="xtick_10">
     <g id="line2d_10"/>
     <g id="text_10">
      <text style="font-size: 9px; font-family: 'Century Gothic'; text-anchor: middle; fill: #404040" x="395.835366" y="202.467656" transform="rotate(-0 395.835366 202.467656)">2026</text>
     </g>
    </g>
   </g>
   <g id="matplotlib.axis_2">
    <g id="ytick_1">
     <g id="line2d_11"/>
     <g id="text_11">
      <text style="font-size: 9px; font-family: 'Century Gothic'; text-anchor: end; fill: #404040" x="27.937969" y="195.653828" transform="rotate(-0 27.937969 195.653828)">0</text>
     </g>
    </g>
    <g id="ytick_2">
     <g id="line2d_12"/>
     <g id="text_12">
      <text style="font-size: 9px; font-family: 'Century Gothic'; text-anchor: end; fill: #404040" x="27.937969" y="157.683825" transform="rotate(-0 27.937969 157.683825)">1.0M</text>
     </g>
    </g>
    <g id="ytick_3">
     <g id="line2d_13"/>
     <g id="text_13">
      <text style="font-size: 9px; font-family: 'Century Gothic'; text-anchor: end; fill: #404040" x="27.937969" y="119.713822" transform="rotate(-0 27.937969 119.713822)">2.0M</text>
     </g>
    </g>
    <g id="ytick_4">
     <g id="line2d_14"/>
     <g id="text_14">
      <text style="font-size: 9px; font-family: 'Century Gothic'; text-anchor: end; fill: #404040" x="27.937969" y="81.743819" transform="rotate(-0 27.937969 81.743819)">3.0M</text>
     </g>
    </g>
    <g id="ytick_5">
     <g id="line2d_15"/>
     <g id="text_15">
      <text style="font-size: 9px; font-family: 'Century Gothic'; text-anchor: end; fill: #404040" x="27.937969" y="43.773816" transform="rotate(-0 27.937969 43.773816)">4.0M</text>
     </g>
    </g>
   </g>
   <g id="FillBetweenPolyCollection_1">
    <path d="M 49.086605 162.075629 
L 49.086605 192.34 
L 52.356825 192.34 
L 55.310571 192.34 
L 58.580791 192.34 
L 61.745519 192.34 
L 65.015739 192.34 
L 68.180468 192.34 
L 71.450687 192.34 
L 74.720907 192.34 
L 77.885635 192.34 
L 81.155855 192.34 
L 84.320583 192.34 
L 87.590803 192.34 
L 90.861022 192.34 
L 93.814769 192.34 
L 97.084989 192.34 
L 100.249717 192.34 
L 103.519937 192.34 
L 106.684665 192.34 
L 109.954885 192.34 
L 113.225104 192.34 
L 116.389833 192.34 
L 119.660052 192.34 
L 122.824781 192.34 
L 126.095 192.34 
L 129.36522 192.34 
L 132.318967 192.34 
L 135.589186 192.34 
L 138.753915 192.34 
L 142.024134 192.34 
L 148.459082 192.34 
L 151.729302 192.34 
L 158.16425 192.34 
L 161.328979 192.34 
L 164.599198 192.34 
L 167.869418 192.34 
L 170.928655 192.34 
L 174.198875 192.34 
L 177.363603 192.34 
L 180.633823 192.34 
L 183.798552 192.34 
L 187.068771 192.34 
L 190.338991 192.34 
L 193.503719 192.34 
L 196.773939 192.34 
L 199.938667 192.34 
L 203.208887 192.34 
L 206.479106 192.34 
L 209.432853 192.34 
L 212.703073 192.34 
L 215.867801 192.34 
L 219.138021 192.34 
L 222.302749 192.34 
L 225.572969 192.34 
L 228.843188 192.34 
L 232.007917 192.34 
L 235.278136 192.34 
L 238.442865 192.34 
L 241.713084 192.34 
L 244.983304 192.34 
L 247.937051 192.34 
L 251.20727 192.34 
L 254.371999 192.34 
L 257.642218 192.34 
L 260.806947 192.34 
L 264.077166 192.34 
L 267.347386 192.34 
L 270.512115 192.34 
L 273.782334 192.34 
L 276.947063 192.34 
L 280.217282 192.34 
L 283.487502 192.34 
L 286.441248 192.34 
L 289.711468 192.34 
L 292.876196 192.34 
L 296.146416 192.34 
L 299.311145 192.34 
L 302.581364 192.34 
L 305.851584 192.34 
L 309.016312 192.34 
L 312.286532 192.34 
L 315.45126 192.34 
L 318.72148 192.34 
L 321.991699 192.34 
L 325.050937 192.34 
L 328.321157 192.34 
L 331.485885 192.34 
L 334.756105 192.34 
L 337.920833 192.34 
L 341.191053 192.34 
L 344.461272 192.34 
L 347.626001 192.34 
L 350.89622 192.34 
L 354.060949 192.34 
L 357.331169 192.34 
L 360.601388 192.34 
L 363.555135 192.34 
L 366.825354 192.34 
L 369.990083 192.34 
L 373.260302 192.34 
L 376.425031 192.34 
L 379.69525 192.34 
L 382.96547 192.34 
L 386.130199 192.34 
L 389.400418 192.34 
L 392.565147 192.34 
L 395.835366 192.34 
L 399.105586 192.34 
L 402.059332 192.34 
L 402.059332 159.616312 
L 402.059332 159.616312 
L 399.105586 157.454908 
L 395.835366 156.404657 
L 392.565147 158.235191 
L 389.400418 159.325006 
L 386.130199 160.733731 
L 382.96547 161.647593 
L 379.69525 155.75799 
L 376.425031 157.100306 
L 373.260302 162.142419 
L 369.990083 163.329019 
L 366.825354 162.235141 
L 363.555135 160.045829 
L 360.601388 157.830545 
L 357.331169 155.947043 
L 354.060949 157.570716 
L 350.89622 158.863519 
L 347.626001 161.358756 
L 344.461272 162.575049 
L 341.191053 157.145035 
L 337.920833 158.778542 
L 334.756105 163.28243 
L 331.485885 164.188926 
L 328.321157 163.145852 
L 325.050937 161.697828 
L 321.991699 158.964101 
L 318.72148 157.713939 
L 315.45126 159.842879 
L 312.286532 160.677878 
L 309.016312 162.994807 
L 305.851584 164.089482 
L 302.581364 159.057166 
L 299.311145 160.414442 
L 296.146416 164.325162 
L 292.876196 165.812181 
L 289.711468 164.959831 
L 286.441248 162.712728 
L 283.487502 159.871319 
L 280.217282 158.312954 
L 276.947063 159.909175 
L 273.782334 161.587601 
L 270.512115 163.424666 
L 267.347386 164.150994 
L 264.077166 160.044576 
L 260.806947 161.569489 
L 257.642218 165.649442 
L 254.371999 166.549407 
L 251.20727 165.89693 
L 247.937051 164.85397 
L 244.983304 161.459642 
L 241.713084 160.670739 
L 238.442865 161.442707 
L 235.278136 162.969519 
L 232.007917 162.911045 
L 228.843188 162.634852 
L 225.572969 157.54577 
L 222.302749 158.159973 
L 219.138021 160.409885 
L 215.867801 157.810459 
L 212.703073 154.425433 
L 209.432853 152.347563 
L 206.479106 148.205035 
L 203.208887 148.727541 
L 199.938667 150.202523 
L 196.773939 145.299343 
L 193.503719 137.895458 
L 190.338991 137.388255 
L 187.068771 123.08317 
L 183.798552 112.583781 
L 180.633823 86.12651 
L 177.363603 50.355274 
L 174.198875 61.537478 
L 170.928655 155.35528 
L 167.869418 158.459404 
L 164.599198 156.660879 
L 161.328979 158.44714 
L 158.16425 159.308375 
L 151.729302 163.098959 
L 148.459082 157.816154 
L 142.024134 164.85997 
L 138.753915 165.871339 
L 135.589186 165.083879 
L 132.318967 163.639424 
L 129.36522 161.098965 
L 126.095 159.717882 
L 122.824781 161.700144 
L 119.660052 162.306715 
L 116.389833 164.512886 
L 113.225104 165.220077 
L 109.954885 160.237881 
L 106.684665 162.187717 
L 103.519937 165.857859 
L 100.249717 167.351713 
L 97.084989 166.387541 
L 93.814769 165.341619 
L 90.861022 162.974721 
L 87.590803 161.737241 
L 84.320583 163.143801 
L 81.155855 163.925794 
L 77.885635 165.884438 
L 74.720907 166.557571 
L 71.450687 161.387841 
L 68.180468 162.97062 
L 65.015739 166.80616 
L 61.745519 168.057765 
L 58.580791 167.161332 
L 55.310571 165.433848 
L 52.356825 163.61873 
L 49.086605 162.075629 
z
" clip-path="url(#p2f9d645910)" style="fill: #83082a; fill-opacity: 0.92"/>
   </g>
   <g id="FillBetweenPolyCollection_2">
    <path d="M 49.086605 131.919321 
L 49.086605 162.075629 
L 52.356825 163.61873 
L 55.310571 165.433848 
L 58.580791 167.161332 
L 61.745519 168.057765 
L 65.015739 166.80616 
L 68.180468 162.97062 
L 71.450687 161.387841 
L 74.720907 166.557571 
L 77.885635 165.884438 
L 81.155855 163.925794 
L 84.320583 163.143801 
L 87.590803 161.737241 
L 90.861022 162.974721 
L 93.814769 165.341619 
L 97.084989 166.387541 
L 100.249717 167.351713 
L 103.519937 165.857859 
L 106.684665 162.187717 
L 109.954885 160.237881 
L 113.225104 165.220077 
L 116.389833 164.512886 
L 119.660052 162.306715 
L 122.824781 161.700144 
L 126.095 159.717882 
L 129.36522 161.098965 
L 132.318967 163.639424 
L 135.589186 165.083879 
L 138.753915 165.871339 
L 142.024134 164.85997 
L 148.459082 157.816154 
L 151.729302 163.098959 
L 158.16425 159.308375 
L 161.328979 158.44714 
L 164.599198 156.660879 
L 167.869418 158.459404 
L 170.928655 155.35528 
L 174.198875 61.537478 
L 177.363603 50.355274 
L 180.633823 86.12651 
L 183.798552 112.583781 
L 187.068771 123.08317 
L 190.338991 137.388255 
L 193.503719 137.895458 
L 196.773939 145.299343 
L 199.938667 150.202523 
L 203.208887 148.727541 
L 206.479106 148.205035 
L 209.432853 152.347563 
L 212.703073 154.425433 
L 215.867801 157.810459 
L 219.138021 160.409885 
L 222.302749 158.159973 
L 225.572969 157.54577 
L 228.843188 162.634852 
L 232.007917 162.911045 
L 235.278136 162.969519 
L 238.442865 161.442707 
L 241.713084 160.670739 
L 244.983304 161.459642 
L 247.937051 164.85397 
L 251.20727 165.89693 
L 254.371999 166.549407 
L 257.642218 165.649442 
L 260.806947 161.569489 
L 264.077166 160.044576 
L 267.347386 164.150994 
L 270.512115 163.424666 
L 273.782334 161.587601 
L 276.947063 159.909175 
L 280.217282 158.312954 
L 283.487502 159.871319 
L 286.441248 162.712728 
L 289.711468 164.959831 
L 292.876196 165.812181 
L 296.146416 164.325162 
L 299.311145 160.414442 
L 302.581364 159.057166 
L 305.851584 164.089482 
L 309.016312 162.994807 
L 312.286532 160.677878 
L 315.45126 159.842879 
L 318.72148 157.713939 
L 321.991699 158.964101 
L 325.050937 161.697828 
L 328.321157 163.145852 
L 331.485885 164.188926 
L 334.756105 163.28243 
L 337.920833 158.778542 
L 341.191053 157.145035 
L 344.461272 162.575049 
L 347.626001 161.358756 
L 350.89622 158.863519 
L 354.060949 157.570716 
L 357.331169 155.947043 
L 360.601388 157.830545 
L 363.555135 160.045829 
L 366.825354 162.235141 
L 369.990083 163.329019 
L 373.260302 162.142419 
L 376.425031 157.100306 
L 379.69525 155.75799 
L 382.96547 161.647593 
L 386.130199 160.733731 
L 389.400418 159.325006 
L 392.565147 158.235191 
L 395.835366 156.404657 
L 399.105586 157.454908 
L 402.059332 159.616312 
L 402.059332 129.596354 
L 402.059332 129.596354 
L 399.105586 127.154124 
L 395.835366 126.140097 
L 392.565147 129.582609 
L 389.400418 127.735748 
L 386.130199 130.251489 
L 382.96547 132.443725 
L 379.69525 126.75597 
L 376.425031 127.969682 
L 373.260302 133.037993 
L 369.990083 133.933478 
L 366.825354 132.935399 
L 363.555135 129.587318 
L 360.601388 127.99383 
L 357.331169 126.247932 
L 354.060949 129.403239 
L 350.89622 131.008307 
L 347.626001 134.584512 
L 344.461272 136.55823 
L 341.191053 131.074679 
L 337.920833 132.73374 
L 334.756105 136.72602 
L 331.485885 136.873647 
L 328.321157 135.255404 
L 325.050937 133.068749 
L 321.991699 129.474205 
L 318.72148 128.591061 
L 315.45126 131.997312 
L 312.286532 132.729145 
L 309.016312 136.012488 
L 305.851584 137.868803 
L 302.581364 132.959547 
L 299.311145 134.46559 
L 296.146416 137.750185 
L 292.876196 138.679197 
L 289.711468 137.480636 
L 286.441248 134.214798 
L 283.487502 131.196448 
L 280.217282 129.867194 
L 276.947063 132.418817 
L 273.782334 134.096066 
L 270.512115 136.516274 
L 267.347386 137.895268 
L 264.077166 134.150477 
L 260.806947 135.721865 
L 257.642218 139.026053 
L 254.371999 139.049898 
L 251.20727 138.080941 
L 247.937051 136.134941 
L 244.983304 132.996796 
L 241.713084 132.443535 
L 238.442865 133.646007 
L 235.278136 134.859187 
L 232.007917 134.861123 
L 228.843188 134.590701 
L 225.572969 129.28295 
L 222.302749 129.382469 
L 219.138021 130.361944 
L 215.867801 126.204798 
L 212.703073 122.258234 
L 209.432853 119.755972 
L 206.479106 114.681623 
L 203.208887 113.839297 
L 199.938667 116.849673 
L 196.773939 113.982558 
L 193.503719 107.229517 
L 190.338991 107.452211 
L 187.068771 92.319038 
L 183.798552 80.933277 
L 180.633823 52.805289 
L 177.363603 16.01619 
L 174.198875 27.361324 
L 170.928655 123.748784 
L 167.869418 127.886831 
L 164.599198 126.25788 
L 161.328979 129.667472 
L 158.16425 130.15926 
L 151.729302 136.583822 
L 148.459082 131.569769 
L 142.024134 138.442264 
L 138.753915 138.465274 
L 135.589186 137.665208 
L 132.318967 135.348051 
L 129.36522 132.81192 
L 126.095 131.669782 
L 122.824781 135.488312 
L 119.660052 135.745065 
L 116.389833 139.428877 
L 113.225104 141.53625 
L 109.954885 137.167801 
L 106.684665 139.72379 
L 103.519937 142.590943 
L 100.249717 142.919915 
L 97.084989 140.927401 
L 93.814769 138.957555 
L 90.861022 135.473769 
L 87.590803 134.159665 
L 84.320583 136.747359 
L 81.155855 137.151626 
L 77.885635 140.274507 
L 74.720907 142.000509 
L 71.450687 136.838563 
L 68.180468 138.474918 
L 65.015739 141.451007 
L 61.745519 141.473333 
L 58.580791 139.553418 
L 55.310571 135.751102 
L 52.356825 133.571928 
L 49.086605 131.919321 
z
" clip-path="url(#p2f9d645910)" style="fill: #e397a0; fill-opacity: 0.92"/>
   </g>
   <g id="patch_3">
    <path d="M 31.437969 192.34 
L 31.437969 7.2 
" style="fill: none; stroke: #404040; stroke-linejoin: miter; stroke-linecap: square"/>
   </g>
   <g id="patch_4">
    <path d="M 31.437969 192.34 
L 419.707969 192.34 
" style="fill: none; stroke: #404040; stroke-linejoin: miter; stroke-linecap: square"/>
   </g>
   <g id="legend_1">
    <g id="patch_5">
     <path d="M 38.637969 20.29125 
L 54.637969 20.29125 
L 54.637969 14.69125 
L 38.637969 14.69125 
z
" style="fill: #83082a; fill-opacity: 0.92"/>
    </g>
    <g id="text_16">
     <text style="font-size: 8px; font-family: 'Century Gothic'; text-anchor: start; fill: #262626" x="61.037969" y="20.29125" transform="rotate(-0 61.037969 20.29125)">Prestación contributiva</text>
    </g>
    <g id="patch_6">
     <path d="M 38.637969 31.84625 
L 54.637969 31.84625 
L 54.637969 26.24625 
L 38.637969 26.24625 
z
" style="fill: #e397a0; fill-opacity: 0.92"/>
    </g>
    <g id="text_17">
     <text style="font-size: 8px; font-family: 'Century Gothic'; text-anchor: start; fill: #262626" x="61.037969" y="31.84625" transform="rotate(-0 61.037969 31.84625)">Subsidios de desempleo</text>
    </g>
   </g>
  </g>
 </g>
 <defs>
  <clipPath id="p2f9d645910">
   <rect x="31.437969" y="7.2" width="388.27" height="185.14"/>
  </clipPath>
 </defs>
</svg>
