<?xml version="1.0" encoding="utf-8" standalone="no"?>
<!DOCTYPE svg PUBLIC "-//W3C//DTD SVG 1.1//EN"
  "http://www.w3.org/Graphics/SVG/1.1/DTD/svg11.dtd">
<svg xmlns:xlink="http://www.w3.org/1999/xlink" width="411.023622pt" height="205.511811pt" viewBox="0 0 411.023622 205.511811" xmlns="http://www.w3.org/2000/svg" version="1.1">
 <metadata>
  <rdf:RDF xmlns:dc="http://purl.org/dc/elements/1.1/" xmlns:cc="http://creativecommons.org/ns#" xmlns:rdf="http://www.w3.org/1999/02/22-rdf-syntax-ns#">
   <cc:Work>
    <dc:type rdf:resource="http://purl.org/dc/dcmitype/StillImage"/>
    <dc:date>2026-05-12T13:58:19.452490</dc:date>
    <dc:format>image/svg+xml</dc:format>
    <dc:creator>
     <cc:Agent>
      <dc:title>Matplotlib v3.10.8, https://matplotlib.org/</dc:title>
     </cc:Agent>
    </dc:creator>
   </cc:Work>
  </rdf:RDF>
 </metadata>
 <defs>
  <style type="text/css">*{stroke-linejoin: round; stroke-linecap: butt}</style>
 </defs>
 <g id="figure_1">
  <g id="patch_1">
   <path d="M 0 205.511811 
L 411.023622 205.511811 
L 411.023622 0 
L 0 0 
z
" style="fill: #ffffff"/>
  </g>
  <g id="axes_1">
   <g id="patch_2">
    <path d="M 28.16 184.371811 
L 401.303622 184.371811 
L 401.303622 9.72 
L 28.16 9.72 
z
" style="fill: #ffffff"/>
   </g>
   <g id="matplotlib.axis_1">
    <g id="xtick_1">
     <g id="line2d_1"/>
     <g id="text_1">
      <text style="font-size: 9px; font-family: 'Century Gothic'; text-anchor: middle; fill: #404040" x="45.121074" y="194.499467" transform="rotate(-0 45.121074 194.499467)">2017</text>
     </g>
    </g>
    <g id="xtick_2">
     <g id="line2d_2"/>
     <g id="text_2">
      <text style="font-size: 9px; font-family: 'Century Gothic'; text-anchor: middle; fill: #404040" x="82.125209" y="194.499467" transform="rotate(-0 82.125209 194.499467)">2018</text>
     </g>
    </g>
    <g id="xtick_3">
     <g id="line2d_3"/>
     <g id="text_3">
      <text style="font-size: 9px; font-family: 'Century Gothic'; text-anchor: middle; fill: #404040" x="119.129345" y="194.499467" transform="rotate(-0 119.129345 194.499467)">2019</text>
     </g>
    </g>
    <g id="xtick_4">
     <g id="line2d_4"/>
     <g id="text_4">
      <text style="font-size: 9px; font-family: 'Century Gothic'; text-anchor: middle; fill: #404040" x="156.133481" y="194.499467" transform="rotate(-0 156.133481 194.499467)">2020</text>
     </g>
    </g>
    <g id="xtick_5">
     <g id="line2d_5"/>
     <g id="text_5">
      <text style="font-size: 9px; font-family: 'Century Gothic'; text-anchor: middle; fill: #404040" x="193.238998" y="194.499467" transform="rotate(-0 193.238998 194.499467)">2021</text>
     </g>
    </g>
    <g id="xtick_6">
     <g id="line2d_6"/>
     <g id="text_6">
      <text style="font-size: 9px; font-family: 'Century Gothic'; text-anchor: middle; fill: #404040" x="230.243134" y="194.499467" transform="rotate(-0 230.243134 194.499467)">2022</text>
     </g>
    </g>
    <g id="xtick_7">
     <g id="line2d_7"/>
     <g id="text_7">
      <text style="font-size: 9px; font-family: 'Century Gothic'; text-anchor: middle; fill: #404040" x="267.247269" y="194.499467" transform="rotate(-0 267.247269 194.499467)">2023</text>
     </g>
    </g>
    <g id="xtick_8">
     <g id="line2d_8"/>
     <g id="text_8">
      <text style="font-size: 9px; font-family: 'Century Gothic'; text-anchor: middle; fill: #404040" x="304.251405" y="194.499467" transform="rotate(-0 304.251405 194.499467)">2024</text>
     </g>
    </g>
    <g id="xtick_9">
     <g id="line2d_9"/>
     <g id="text_9">
      <text style="font-size: 9px; font-family: 'Century Gothic'; text-anchor: middle; fill: #404040" x="341.356922" y="194.499467" transform="rotate(-0 341.356922 194.499467)">2025</text>
     </g>
    </g>
    <g id="xtick_10">
     <g id="line2d_10"/>
     <g id="text_10">
      <text style="font-size: 9px; font-family: 'Century Gothic'; text-anchor: middle; fill: #404040" x="378.361058" y="194.499467" transform="rotate(-0 378.361058 194.499467)">2026</text>
     </g>
    </g>
   </g>
   <g id="matplotlib.axis_2">
    <g id="ytick_1">
     <g id="line2d_11"/>
     <g id="text_11">
      <text style="font-size: 9px; font-family: 'Century Gothic'; text-anchor: end; fill: #404040" x="24.66" y="167.35396" transform="rotate(-0 24.66 167.35396)">100</text>
     </g>
    </g>
    <g id="ytick_2">
     <g id="line2d_12"/>
     <g id="text_12">
      <text style="font-size: 9px; font-family: 'Century Gothic'; text-anchor: end; fill: #404040" x="24.66" y="144.036952" transform="rotate(-0 24.66 144.036952)">150</text>
     </g>
    </g>
    <g id="ytick_3">
     <g id="line2d_13"/>
     <g id="text_13">
      <text style="font-size: 9px; font-family: 'Century Gothic'; text-anchor: end; fill: #404040" x="24.66" y="120.719944" transform="rotate(-0 24.66 120.719944)">200</text>
     </g>
    </g>
    <g id="ytick_4">
     <g id="line2d_14"/>
     <g id="text_14">
      <text style="font-size: 9px; font-family: 'Century Gothic'; text-anchor: end; fill: #404040" x="24.66" y="97.402936" transform="rotate(-0 24.66 97.402936)">250</text>
     </g>
    </g>
    <g id="ytick_5">
     <g id="line2d_15"/>
     <g id="text_15">
      <text style="font-size: 9px; font-family: 'Century Gothic'; text-anchor: end; fill: #404040" x="24.66" y="74.085927" transform="rotate(-0 24.66 74.085927)">300</text>
     </g>
    </g>
    <g id="ytick_6">
     <g id="line2d_16"/>
     <g id="text_16">
      <text style="font-size: 9px; font-family: 'Century Gothic'; text-anchor: end; fill: #404040" x="24.66" y="50.768919" transform="rotate(-0 24.66 50.768919)">350</text>
     </g>
    </g>
    <g id="ytick_7">
     <g id="line2d_17"/>
     <g id="text_17">
      <text style="font-size: 9px; font-family: 'Century Gothic'; text-anchor: end; fill: #404040" x="24.66" y="27.451911" transform="rotate(-0 24.66 27.451911)">400</text>
     </g>
    </g>
   </g>
   <g id="FillBetweenPolyCollection_1">
    <defs>
     <path id="m641b2e4e8c" d="M 45.121074 -41.471679 
L 45.121074 -41.471679 
L 48.263891 -39.689598 
L 51.102564 -37.183608 
L 54.245381 -34.208251 
L 57.286817 -31.955561 
L 60.429634 -31.672269 
L 63.47107 -32.575213 
L 66.613887 -32.762512 
L 69.756704 -31.202354 
L 72.79814 -32.276389 
L 75.940957 -33.313113 
L 78.982392 -34.994143 
L 82.125209 -36.805096 
L 85.268026 -34.97028 
L 88.1067 -33.50667 
L 91.249517 -31.263528 
L 94.290953 -29.078719 
L 97.43377 -29.843053 
L 100.475206 -29.548295 
L 103.618023 -31.11247 
L 106.76084 -30.051442 
L 109.802275 -32.207451 
L 112.945092 -33.310461 
L 115.986528 -34.561954 
L 119.129345 -36.887291 
L 122.272162 -36.439193 
L 125.110836 -34.88013 
L 128.253653 -33.331673 
L 131.295088 -31.6639 
L 134.437906 -32.267901 
L 140.622158 -33.987239 
L 143.764975 -32.611367 
L 149.949228 -36.627448 
L 152.990664 -38.043331 
L 156.133481 -41.243653 
L 159.276298 -40.420192 
L 162.216353 -43.839283 
L 165.35917 -74.132716 
L 168.400605 -75.767326 
L 171.543422 -61.111732 
L 174.584858 -54.161893 
L 177.727675 -48.997847 
L 180.870492 -44.595108 
L 183.911928 -35.778978 
L 187.054745 -40.090265 
L 190.096181 -40.856539 
L 193.238998 -41.747432 
L 196.381815 -42.251211 
L 199.220488 -41.644025 
L 202.363305 -39.371717 
L 205.404741 -37.868335 
L 208.547558 -36.487086 
L 211.588994 -36.230311 
L 214.731811 -35.527311 
L 217.874628 -34.069088 
L 220.916064 -34.320671 
L 224.058881 -34.034312 
L 227.100317 -34.95172 
L 230.243134 -35.895642 
L 233.385951 -36.836914 
L 236.224624 -34.809192 
L 239.367441 -33.874017 
L 242.408877 -33.342646 
L 245.551694 -31.946027 
L 248.59313 -33.470533 
L 251.735947 -34.167508 
L 254.878764 -32.7364 
L 257.9202 -33.71809 
L 261.063017 -34.928254 
L 264.104452 -37.015161 
L 267.247269 -38.035515 
L 270.390086 -36.985534 
L 273.22876 -35.386711 
L 276.371577 -33.984728 
L 279.413013 -31.913388 
L 282.55583 -30.980407 
L 285.597266 -32.238777 
L 288.740083 -32.761005 
L 291.8829 -30.904583 
L 294.924335 -33.096939 
L 298.067152 -35.307372 
L 301.108588 -36.313667 
L 304.251405 -37.997352 
L 307.394222 -37.345069 
L 310.334277 -35.016632 
L 313.477094 -33.96414 
L 316.51853 -32.054992 
L 319.661347 -30.642967 
L 322.702782 -32.741924 
L 325.845599 -33.184312 
L 328.988416 -30.472238 
L 332.029852 -32.435617 
L 335.172669 -34.464777 
L 338.214105 -35.839142 
L 341.356922 -38.308681 
L 344.499739 -37.570531 
L 347.338413 -35.882326 
L 350.48123 -34.411047 
L 353.522665 -33.263651 
L 356.665482 -32.050473 
L 359.706918 -34.352799 
L 362.849735 -35.152712 
L 365.992552 -33.363075 
L 369.033988 -35.674941 
L 372.176805 -37.462068 
L 375.218241 -36.296092 
L 378.361058 -38.551718 
L 381.503875 -37.908975 
L 384.342548 -36.305633 
L 384.342548 -54.142151 
L 384.342548 -54.142151 
L 381.503875 -55.984697 
L 378.361058 -57.613729 
L 375.218241 -54.513823 
L 372.176805 -57.487202 
L 369.033988 -56.381081 
L 365.992552 -56.17251 
L 362.849735 -58.874055 
L 359.706918 -56.787351 
L 356.665482 -52.074228 
L 353.522665 -50.621147 
L 350.48123 -51.053118 
L 347.338413 -54.619591 
L 344.499739 -55.459808 
L 341.356922 -56.429518 
L 338.214105 -52.671277 
L 335.172669 -51.922989 
L 332.029852 -51.285413 
L 328.988416 -52.309489 
L 325.845599 -54.534581 
L 322.702782 -51.922877 
L 319.661347 -48.463273 
L 316.51853 -46.980537 
L 313.477094 -46.203583 
L 310.334277 -49.169055 
L 307.394222 -51.897289 
L 304.251405 -53.458115 
L 301.108588 -50.482759 
L 298.067152 -50.268256 
L 294.924335 -49.20464 
L 291.8829 -49.777965 
L 288.740083 -52.325305 
L 285.597266 -49.774999 
L 282.55583 -46.418086 
L 279.413013 -44.747537 
L 276.371577 -45.733062 
L 273.22876 -48.694579 
L 270.390086 -51.657085 
L 267.247269 -51.808324 
L 264.104452 -49.148297 
L 261.063017 -48.798371 
L 257.9202 -48.174633 
L 254.878764 -49.059332 
L 251.735947 -49.331077 
L 248.59313 -46.841938 
L 245.551694 -43.917205 
L 242.408877 -41.671354 
L 239.367441 -42.424584 
L 236.224624 -44.21474 
L 233.385951 -47.078397 
L 230.243134 -47.392737 
L 227.100317 -46.150205 
L 224.058881 -45.536352 
L 220.916064 -46.774931 
L 217.874628 -52.232972 
L 214.731811 -62.192787 
L 211.588994 -66.63916 
L 208.547558 -69.3249 
L 205.404741 -74.640852 
L 202.363305 -77.575941 
L 199.220488 -80.337114 
L 196.381815 -83.08781 
L 193.238998 -85.594919 
L 190.096181 -82.25752 
L 187.054745 -89.102044 
L 183.911928 -103.976023 
L 180.870492 -100.674768 
L 177.727675 -114.76246 
L 174.584858 -130.811418 
L 171.543422 -153.992489 
L 168.400605 -187.853092 
L 165.35917 -172.936199 
L 162.216353 -56.263939 
L 159.276298 -49.357602 
L 156.133481 -50.713077 
L 152.990664 -48.266563 
L 149.949228 -48.640212 
L 143.764975 -46.452683 
L 140.622158 -51.010175 
L 134.437906 -46.047966 
L 131.295088 -45.330826 
L 128.253653 -44.452342 
L 125.110836 -44.575445 
L 122.272162 -45.780509 
L 119.129345 -46.67707 
L 115.986528 -43.928078 
L 112.945092 -44.577516 
L 109.802275 -43.03646 
L 106.76084 -42.269391 
L 103.618023 -45.281972 
L 100.475206 -42.948915 
L 97.43377 -40.799066 
L 94.290953 -39.774954 
L 91.249517 -39.494174 
L 88.1067 -39.604181 
L 85.268026 -41.270102 
L 82.125209 -41.440191 
L 78.982392 -40.315145 
L 75.940957 -40.78369 
L 72.79814 -39.177393 
L 69.756704 -39.037027 
L 66.613887 -44.647884 
L 63.47107 -43.242266 
L 60.429634 -40.868737 
L 57.286817 -40.643485 
L 54.245381 -40.374753 
L 51.102564 -42.010713 
L 48.263891 -41.548742 
L 45.121074 -41.471679 
z
" style="stroke: #e397a0; stroke-opacity: 0.45"/>
    </defs>
    <g clip-path="url(#p4af1315d25)">
     <use xlink:href="#m641b2e4e8c" x="0" y="205.511811" style="fill: #e397a0; fill-opacity: 0.45; stroke: #e397a0; stroke-opacity: 0.45"/>
    </g>
   </g>
   <g id="line2d_18">
    <path d="M 45.121074 164.040132 
L 48.263891 164.994645 
L 51.102564 166.388932 
L 54.245381 169.281726 
L 57.286817 170.920448 
L 60.429634 172.130477 
L 63.47107 169.685211 
L 66.613887 169.392298 
L 69.756704 171.649858 
L 72.79814 169.465764 
L 75.940957 168.368574 
L 78.982392 168.615829 
L 82.125209 166.319013 
L 85.268026 166.728564 
L 88.1067 168.858935 
L 91.249517 169.949435 
L 94.290953 172.395848 
L 97.43377 172.204911 
L 100.475206 171.29527 
L 103.618023 169.52637 
L 106.76084 171.588567 
L 109.802275 170.162684 
L 112.945092 168.532925 
L 115.986528 168.490089 
L 119.129345 165.45694 
L 122.272162 166.012999 
L 125.110836 166.591282 
L 128.253653 167.43401 
L 131.295088 168.776515 
L 134.437906 168.495603 
L 140.622158 163.48618 
L 143.764975 166.715782 
L 149.949228 163.776095 
L 152.990664 163.768696 
L 156.133481 161.51911 
L 159.276298 162.037738 
L 162.216353 158.831667 
L 165.35917 88.75015 
L 168.400605 82.370509 
L 171.543422 110.658354 
L 174.584858 132.855274 
L 177.727675 137.884269 
L 180.870492 149.565521 
L 183.911928 151.988721 
L 187.054745 152.161227 
L 190.096181 154.378665 
L 193.238998 154.32739 
L 196.381815 155.268718 
L 199.220488 158.553206 
L 202.363305 160.367184 
L 205.404741 162.950202 
L 208.547558 165.397084 
L 211.588994 164.501201 
L 214.731811 164.099482 
L 217.874628 166.372497 
L 220.916064 165.584377 
L 224.058881 166.087096 
L 227.100317 166.147889 
L 230.243134 165.293904 
L 233.385951 165.172951 
L 236.224624 165.290334 
L 239.367441 167.047623 
L 242.408877 168.175815 
L 245.551694 167.841842 
L 248.59313 165.633771 
L 251.735947 164.875884 
L 254.878764 167.437842 
L 257.9202 166.175138 
L 261.063017 165.828352 
L 264.104452 165.988698 
L 267.247269 164.101193 
L 270.390086 164.124698 
L 273.22876 164.76726 
L 276.371577 167.262157 
L 279.413013 169.226998 
L 282.55583 168.354376 
L 285.597266 166.021873 
L 288.740083 164.891662 
L 291.8829 168.699992 
L 294.924335 166.73279 
L 298.067152 165.345994 
L 301.108588 165.097602 
L 304.251405 163.14049 
L 307.394222 163.267096 
L 310.334277 164.254171 
L 313.477094 165.863746 
L 316.51853 166.935237 
L 319.661347 167.184819 
L 322.702782 163.384916 
L 325.845599 163.203802 
L 328.988416 167.286427 
L 332.029852 165.615731 
L 335.172669 163.71101 
L 338.214105 163.109527 
L 341.356922 161.121928 
L 344.499739 161.540742 
L 347.338413 161.092465 
L 350.48123 163.065788 
L 353.522665 163.739679 
L 356.665482 163.100802 
L 359.706918 158.87914 
L 362.849735 158.968399 
L 365.992552 164.196551 
L 369.033988 162.056826 
L 372.176805 161.517794 
L 375.218241 163.565869 
L 378.361058 160.303243 
L 381.503875 160.266155 
L 384.342548 161.640583 
" clip-path="url(#p4af1315d25)" style="fill: none; stroke: #83082a; stroke-width: 2; stroke-linecap: round"/>
   </g>
   <g id="line2d_19">
    <path d="M 45.121074 164.040132 
L 48.263891 165.31565 
L 51.102564 166.997585 
L 54.245381 169.932297 
L 57.286817 171.41413 
L 60.429634 171.396898 
L 63.47107 169.099886 
L 66.613887 167.836911 
L 69.756704 171.821015 
L 72.79814 170.488848 
L 75.940957 168.07854 
L 78.982392 167.766518 
L 82.125209 165.769279 
L 85.268026 166.783533 
L 88.1067 169.472396 
L 91.249517 170.992767 
L 94.290953 172.530633 
L 97.43377 172.276725 
L 100.475206 170.063793 
L 103.618023 168.091024 
L 106.76084 171.46269 
L 109.802275 169.836173 
L 112.945092 166.992925 
L 115.986528 166.794757 
L 119.129345 163.847532 
L 122.272162 164.729059 
L 125.110836 166.686501 
L 128.253653 168.474934 
L 131.295088 169.092443 
L 134.437906 169.074683 
L 140.622158 163.77034 
L 143.764975 167.640297 
L 149.949228 162.681677 
L 152.990664 162.302105 
L 156.133481 159.670506 
L 159.276298 160.927767 
L 162.216353 157.73393 
L 165.35917 83.339957 
L 168.400605 74.583532 
L 171.543422 102.978172 
L 174.584858 124.687975 
L 177.727675 133.475757 
L 180.870492 145.155875 
L 183.911928 144.983994 
L 187.054745 150.196141 
L 190.096181 152.409044 
L 193.238998 150.085569 
L 196.381815 150.735695 
L 199.220488 154.65219 
L 202.363305 156.583491 
L 205.404741 159.629536 
L 208.547558 162.838113 
L 211.588994 162.082133 
L 214.731811 162.005322 
L 217.874628 166.101962 
L 220.916064 166.31068 
L 224.058881 166.309185 
L 227.100317 165.372826 
L 230.243134 164.444732 
L 233.385951 164.871751 
L 236.224624 167.29384 
L 239.367441 168.795806 
L 242.408877 169.543669 
L 245.551694 169.525264 
L 248.59313 166.975019 
L 251.735947 165.762187 
L 254.878764 168.6525 
L 257.9202 167.588161 
L 261.063017 165.720191 
L 264.104452 164.425653 
L 267.247269 162.456255 
L 270.390086 163.482202 
L 273.22876 165.811831 
L 276.371577 168.332477 
L 279.413013 169.257553 
L 282.55583 168.540521 
L 285.597266 166.005398 
L 288.740083 164.843001 
L 291.8829 168.632073 
L 294.924335 167.199328 
L 298.067152 164.665172 
L 301.108588 164.100326 
L 304.251405 161.471307 
L 307.394222 162.152937 
L 310.334277 164.927286 
L 313.477094 166.614994 
L 316.51853 167.86399 
L 319.661347 167.750048 
L 322.702782 164.668718 
L 325.845599 163.388218 
L 328.988416 167.620544 
L 332.029852 166.097185 
L 335.172669 163.336991 
L 338.214105 162.098164 
L 341.356922 159.662828 
L 344.499739 161.010351 
L 347.338413 162.24024 
L 350.48123 164.824363 
L 353.522665 165.594702 
L 356.665482 164.903548 
L 359.706918 160.991712 
L 362.849735 160.054943 
L 365.992552 164.444878 
L 369.033988 162.752862 
L 372.176805 160.811158 
L 375.218241 162.236606 
L 378.361058 159.579599 
L 381.503875 160.362247 
L 384.342548 162.247215 
" clip-path="url(#p4af1315d25)" style="fill: none; stroke-dasharray: 5.55,2.4; stroke-dashoffset: 0; stroke: #404040; stroke-width: 1.5"/>
   </g>
   <g id="line2d_20">
    <path d="M 28.16 164.040132 
L 401.303622 164.040132 
" clip-path="url(#p4af1315d25)" style="fill: none; stroke-dasharray: 1,1.65; stroke-dashoffset: 0; stroke: #d9d9d9"/>
   </g>
   <g id="patch_3">
    <path d="M 28.16 184.371811 
L 28.16 9.72 
" style="fill: none; stroke: #404040; stroke-linejoin: miter; stroke-linecap: square"/>
   </g>
   <g id="patch_4">
    <path d="M 28.16 184.371811 
L 401.303622 184.371811 
" style="fill: none; stroke: #404040; stroke-linejoin: miter; stroke-linecap: square"/>
   </g>
   <g id="legend_1">
    <g id="patch_5">
     <path d="M 35.36 22.81125 
L 51.36 22.81125 
L 51.36 17.21125 
L 35.36 17.21125 
z
" style="fill: #e397a0; fill-opacity: 0.45; stroke: #e397a0; stroke-opacity: 0.45; stroke-linejoin: miter"/>
    </g>
    <g id="text_18">
     <text style="font-size: 8px; font-family: 'Century Gothic'; text-anchor: start; fill: #262626" x="57.76" y="22.81125" transform="rotate(-0 57.76 22.81125)">Rango CCAA</text>
    </g>
    <g id="line2d_21">
     <path d="M 35.36 31.56625 
L 43.36 31.56625 
L 51.36 31.56625 
" style="fill: none; stroke: #83082a; stroke-width: 2; stroke-linecap: round"/>
    </g>
    <g id="text_19">
     <text style="font-size: 8px; font-family: 'Century Gothic'; text-anchor: start; fill: #262626" x="57.76" y="34.36625" transform="rotate(-0 57.76 34.36625)">Mediana CCAA</text>
    </g>
    <g id="line2d_22">
     <path d="M 35.36 43.05125 
L 43.36 43.05125 
L 51.36 43.05125 
" style="fill: none; stroke-dasharray: 5.55,2.4; stroke-dashoffset: 0; stroke: #404040; stroke-width: 1.5"/>
    </g>
    <g id="text_20">
     <text style="font-size: 8px; font-family: 'Century Gothic'; text-anchor: start; fill: #262626" x="57.76" y="45.85125" transform="rotate(-0 57.76 45.85125)">España</text>
    </g>
   </g>
  </g>
 </g>
 <defs>
  <clipPath id="p4af1315d25">
   <rect x="28.16" y="9.72" width="373.143622" height="174.651811"/>
  </clipPath>
 </defs>
</svg>
