<?xml version="1.0" encoding="utf-8" standalone="no"?>
<!DOCTYPE svg PUBLIC "-//W3C//DTD SVG 1.1//EN"
  "http://www.w3.org/Graphics/SVG/1.1/DTD/svg11.dtd">
<svg xmlns:xlink="http://www.w3.org/1999/xlink" width="411.023622pt" height="205.511811pt" viewBox="0 0 411.023622 205.511811" xmlns="http://www.w3.org/2000/svg" version="1.1">
 <metadata>
  <rdf:RDF xmlns:dc="http://purl.org/dc/elements/1.1/" xmlns:cc="http://creativecommons.org/ns#" xmlns:rdf="http://www.w3.org/1999/02/22-rdf-syntax-ns#">
   <cc:Work>
    <dc:type rdf:resource="http://purl.org/dc/dcmitype/StillImage"/>
    <dc:date>2026-05-12T18:56:37.771042</dc:date>
    <dc:format>image/svg+xml</dc:format>
    <dc:creator>
     <cc:Agent>
      <dc:title>Matplotlib v3.10.8, https://matplotlib.org/</dc:title>
     </cc:Agent>
    </dc:creator>
   </cc:Work>
  </rdf:RDF>
 </metadata>
 <defs>
  <style type="text/css">*{stroke-linejoin: round; stroke-linecap: butt}</style>
 </defs>
 <g id="figure_1">
  <g id="patch_1">
   <path d="M 0 205.511811 
L 411.023622 205.511811 
L 411.023622 0 
L 0 0 
z
" style="fill: #ffffff"/>
  </g>
  <g id="axes_1">
   <g id="patch_2">
    <path d="M 28.34 184.371811 
L 401.303622 184.371811 
L 401.303622 9.72 
L 28.34 9.72 
z
" style="fill: #ffffff"/>
   </g>
   <g id="matplotlib.axis_1">
    <g id="xtick_1">
     <g id="line2d_1">
      <defs>
       <path id="ma8ae603b60" d="M 0 0 
L 0 3 
" style="stroke: #404040"/>
      </defs>
      <g>
       <use xlink:href="#ma8ae603b60" x="45.292892" y="184.371811" style="fill: #404040; stroke: #404040"/>
      </g>
     </g>
     <g id="text_1">
      <text style="font-weight: 700; font-size: 9px; font-family: 'Century Gothic', 'DejaVu Sans'; text-anchor: middle; fill: #4d4d4d" x="45.292892" y="197.499467" transform="rotate(-0 45.292892 197.499467)">2017</text>
     </g>
    </g>
    <g id="xtick_2">
     <g id="line2d_2">
      <g>
       <use xlink:href="#ma8ae603b60" x="82.279177" y="184.371811" style="fill: #404040; stroke: #404040"/>
      </g>
     </g>
     <g id="text_2">
      <text style="font-weight: 700; font-size: 9px; font-family: 'Century Gothic', 'DejaVu Sans'; text-anchor: middle; fill: #4d4d4d" x="82.279177" y="197.499467" transform="rotate(-0 82.279177 197.499467)">2018</text>
     </g>
    </g>
    <g id="xtick_3">
     <g id="line2d_3">
      <g>
       <use xlink:href="#ma8ae603b60" x="119.265463" y="184.371811" style="fill: #404040; stroke: #404040"/>
      </g>
     </g>
     <g id="text_3">
      <text style="font-weight: 700; font-size: 9px; font-family: 'Century Gothic', 'DejaVu Sans'; text-anchor: middle; fill: #4d4d4d" x="119.265463" y="197.499467" transform="rotate(-0 119.265463 197.499467)">2019</text>
     </g>
    </g>
    <g id="xtick_4">
     <g id="line2d_4">
      <g>
       <use xlink:href="#ma8ae603b60" x="156.251748" y="184.371811" style="fill: #404040; stroke: #404040"/>
      </g>
     </g>
     <g id="text_4">
      <text style="font-weight: 700; font-size: 9px; font-family: 'Century Gothic', 'DejaVu Sans'; text-anchor: middle; fill: #4d4d4d" x="156.251748" y="197.499467" transform="rotate(-0 156.251748 197.499467)">2020</text>
     </g>
    </g>
    <g id="xtick_5">
     <g id="line2d_5">
      <g>
       <use xlink:href="#ma8ae603b60" x="193.339366" y="184.371811" style="fill: #404040; stroke: #404040"/>
      </g>
     </g>
     <g id="text_5">
      <text style="font-weight: 700; font-size: 9px; font-family: 'Century Gothic', 'DejaVu Sans'; text-anchor: middle; fill: #4d4d4d" x="193.339366" y="197.499467" transform="rotate(-0 193.339366 197.499467)">2021</text>
     </g>
    </g>
    <g id="xtick_6">
     <g id="line2d_6">
      <g>
       <use xlink:href="#ma8ae603b60" x="230.325651" y="184.371811" style="fill: #404040; stroke: #404040"/>
      </g>
     </g>
     <g id="text_6">
      <text style="font-weight: 700; font-size: 9px; font-family: 'Century Gothic', 'DejaVu Sans'; text-anchor: middle; fill: #4d4d4d" x="230.325651" y="197.499467" transform="rotate(-0 230.325651 197.499467)">2022</text>
     </g>
    </g>
    <g id="xtick_7">
     <g id="line2d_7">
      <g>
       <use xlink:href="#ma8ae603b60" x="267.311937" y="184.371811" style="fill: #404040; stroke: #404040"/>
      </g>
     </g>
     <g id="text_7">
      <text style="font-weight: 700; font-size: 9px; font-family: 'Century Gothic', 'DejaVu Sans'; text-anchor: middle; fill: #4d4d4d" x="267.311937" y="197.499467" transform="rotate(-0 267.311937 197.499467)">2023</text>
     </g>
    </g>
    <g id="xtick_8">
     <g id="line2d_8">
      <g>
       <use xlink:href="#ma8ae603b60" x="304.298222" y="184.371811" style="fill: #404040; stroke: #404040"/>
      </g>
     </g>
     <g id="text_8">
      <text style="font-weight: 700; font-size: 9px; font-family: 'Century Gothic', 'DejaVu Sans'; text-anchor: middle; fill: #4d4d4d" x="304.298222" y="197.499467" transform="rotate(-0 304.298222 197.499467)">2024</text>
     </g>
    </g>
    <g id="xtick_9">
     <g id="line2d_9">
      <g>
       <use xlink:href="#ma8ae603b60" x="341.38584" y="184.371811" style="fill: #404040; stroke: #404040"/>
      </g>
     </g>
     <g id="text_9">
      <text style="font-weight: 700; font-size: 9px; font-family: 'Century Gothic', 'DejaVu Sans'; text-anchor: middle; fill: #4d4d4d" x="341.38584" y="197.499467" transform="rotate(-0 341.38584 197.499467)">2025</text>
     </g>
    </g>
    <g id="xtick_10">
     <g id="line2d_10">
      <g>
       <use xlink:href="#ma8ae603b60" x="378.372125" y="184.371811" style="fill: #404040; stroke: #404040"/>
      </g>
     </g>
     <g id="text_10">
      <text style="font-weight: 700; font-size: 9px; font-family: 'Century Gothic', 'DejaVu Sans'; text-anchor: middle; fill: #4d4d4d" x="378.372125" y="197.499467" transform="rotate(-0 378.372125 197.499467)">2026</text>
     </g>
    </g>
   </g>
   <g id="matplotlib.axis_2">
    <g id="ytick_1">
     <g id="line2d_11">
      <path d="M 28.34 164.040132 
L 401.303622 164.040132 
" clip-path="url(#pd0e4a084c3)" style="fill: none; stroke: #cccccc; stroke-linecap: round"/>
     </g>
     <g id="line2d_12">
      <defs>
       <path id="me30e6cd33a" d="M 0 0 
L -3 0 
" style="stroke: #404040"/>
      </defs>
      <g>
       <use xlink:href="#me30e6cd33a" x="28.34" y="164.040132" style="fill: #404040; stroke: #404040"/>
      </g>
     </g>
     <g id="text_11">
      <text style="font-weight: 700; font-size: 9px; font-family: 'Century Gothic', 'DejaVu Sans'; text-anchor: end; fill: #4d4d4d" x="21.84" y="167.35396" transform="rotate(-0 21.84 167.35396)">100</text>
     </g>
    </g>
    <g id="ytick_2">
     <g id="line2d_13">
      <path d="M 28.34 140.723124 
L 401.303622 140.723124 
" clip-path="url(#pd0e4a084c3)" style="fill: none; stroke: #cccccc; stroke-linecap: round"/>
     </g>
     <g id="line2d_14">
      <g>
       <use xlink:href="#me30e6cd33a" x="28.34" y="140.723124" style="fill: #404040; stroke: #404040"/>
      </g>
     </g>
     <g id="text_12">
      <text style="font-weight: 700; font-size: 9px; font-family: 'Century Gothic', 'DejaVu Sans'; text-anchor: end; fill: #4d4d4d" x="21.84" y="144.036952" transform="rotate(-0 21.84 144.036952)">150</text>
     </g>
    </g>
    <g id="ytick_3">
     <g id="line2d_15">
      <path d="M 28.34 117.406116 
L 401.303622 117.406116 
" clip-path="url(#pd0e4a084c3)" style="fill: none; stroke: #cccccc; stroke-linecap: round"/>
     </g>
     <g id="line2d_16">
      <g>
       <use xlink:href="#me30e6cd33a" x="28.34" y="117.406116" style="fill: #404040; stroke: #404040"/>
      </g>
     </g>
     <g id="text_13">
      <text style="font-weight: 700; font-size: 9px; font-family: 'Century Gothic', 'DejaVu Sans'; text-anchor: end; fill: #4d4d4d" x="21.84" y="120.719944" transform="rotate(-0 21.84 120.719944)">200</text>
     </g>
    </g>
    <g id="ytick_4">
     <g id="line2d_17">
      <path d="M 28.34 94.089107 
L 401.303622 94.089107 
" clip-path="url(#pd0e4a084c3)" style="fill: none; stroke: #cccccc; stroke-linecap: round"/>
     </g>
     <g id="line2d_18">
      <g>
       <use xlink:href="#me30e6cd33a" x="28.34" y="94.089107" style="fill: #404040; stroke: #404040"/>
      </g>
     </g>
     <g id="text_14">
      <text style="font-weight: 700; font-size: 9px; font-family: 'Century Gothic', 'DejaVu Sans'; text-anchor: end; fill: #4d4d4d" x="21.84" y="97.402936" transform="rotate(-0 21.84 97.402936)">250</text>
     </g>
    </g>
    <g id="ytick_5">
     <g id="line2d_19">
      <path d="M 28.34 70.772099 
L 401.303622 70.772099 
" clip-path="url(#pd0e4a084c3)" style="fill: none; stroke: #cccccc; stroke-linecap: round"/>
     </g>
     <g id="line2d_20">
      <g>
       <use xlink:href="#me30e6cd33a" x="28.34" y="70.772099" style="fill: #404040; stroke: #404040"/>
      </g>
     </g>
     <g id="text_15">
      <text style="font-weight: 700; font-size: 9px; font-family: 'Century Gothic', 'DejaVu Sans'; text-anchor: end; fill: #4d4d4d" x="21.84" y="74.085927" transform="rotate(-0 21.84 74.085927)">300</text>
     </g>
    </g>
    <g id="ytick_6">
     <g id="line2d_21">
      <path d="M 28.34 47.455091 
L 401.303622 47.455091 
" clip-path="url(#pd0e4a084c3)" style="fill: none; stroke: #cccccc; stroke-linecap: round"/>
     </g>
     <g id="line2d_22">
      <g>
       <use xlink:href="#me30e6cd33a" x="28.34" y="47.455091" style="fill: #404040; stroke: #404040"/>
      </g>
     </g>
     <g id="text_16">
      <text style="font-weight: 700; font-size: 9px; font-family: 'Century Gothic', 'DejaVu Sans'; text-anchor: end; fill: #4d4d4d" x="21.84" y="50.768919" transform="rotate(-0 21.84 50.768919)">350</text>
     </g>
    </g>
    <g id="ytick_7">
     <g id="line2d_23">
      <path d="M 28.34 24.138083 
L 401.303622 24.138083 
" clip-path="url(#pd0e4a084c3)" style="fill: none; stroke: #cccccc; stroke-linecap: round"/>
     </g>
     <g id="line2d_24">
      <g>
       <use xlink:href="#me30e6cd33a" x="28.34" y="24.138083" style="fill: #404040; stroke: #404040"/>
      </g>
     </g>
     <g id="text_17">
      <text style="font-weight: 700; font-size: 9px; font-family: 'Century Gothic', 'DejaVu Sans'; text-anchor: end; fill: #4d4d4d" x="21.84" y="27.451911" transform="rotate(-0 21.84 27.451911)">400</text>
     </g>
    </g>
   </g>
   <g id="FillBetweenPolyCollection_1">
    <defs>
     <path id="m2b1bf2383c" d="M 45.292892 -41.471679 
L 45.292892 -41.471679 
L 48.434193 -39.689598 
L 51.271497 -37.183608 
L 54.412798 -34.208251 
L 57.452767 -31.955561 
L 60.594068 -31.672269 
L 63.634036 -32.575213 
L 66.775337 -32.762512 
L 69.916638 -31.202354 
L 72.956607 -32.276389 
L 76.097908 -33.313113 
L 79.137876 -34.994143 
L 82.279177 -36.805096 
L 85.420478 -34.97028 
L 88.257782 -33.50667 
L 91.399083 -31.263528 
L 94.439052 -29.078719 
L 97.580353 -29.843053 
L 100.620322 -29.548295 
L 103.761623 -31.11247 
L 106.902923 -30.051442 
L 109.942892 -32.207451 
L 113.084193 -33.310461 
L 116.124162 -34.561954 
L 119.265463 -36.887291 
L 122.406764 -36.439193 
L 125.244068 -34.88013 
L 128.385369 -33.331673 
L 131.425337 -31.6639 
L 134.566638 -32.267901 
L 140.747908 -33.987239 
L 143.889209 -32.611367 
L 150.070478 -36.627448 
L 153.110447 -38.043331 
L 156.251748 -41.243653 
L 159.393049 -40.420192 
L 162.331685 -43.839283 
L 165.472986 -74.132716 
L 168.512955 -75.767326 
L 171.654256 -61.111732 
L 174.694225 -54.161893 
L 177.835526 -48.997847 
L 180.976827 -44.595108 
L 184.016795 -35.778978 
L 187.158096 -40.090265 
L 190.198065 -40.856539 
L 193.339366 -41.747432 
L 196.480667 -42.251211 
L 199.317971 -41.644025 
L 202.459272 -39.371717 
L 205.49924 -37.868335 
L 208.640541 -36.487086 
L 211.68051 -36.230311 
L 214.821811 -35.527311 
L 217.963112 -34.069088 
L 221.003081 -34.320671 
L 224.144382 -34.034312 
L 227.18435 -34.95172 
L 230.325651 -35.895642 
L 233.466952 -36.836914 
L 236.304256 -34.809192 
L 239.445557 -33.874017 
L 242.485526 -33.342646 
L 245.626827 -31.946027 
L 248.666795 -33.470533 
L 251.808096 -34.167508 
L 254.949397 -32.7364 
L 257.989366 -33.71809 
L 261.130667 -34.928254 
L 264.170636 -37.015161 
L 267.311937 -38.035515 
L 270.453238 -36.985534 
L 273.290542 -35.386711 
L 276.431843 -33.984728 
L 279.471811 -31.913388 
L 282.613112 -30.980407 
L 285.653081 -32.238777 
L 288.794382 -32.761005 
L 291.935683 -30.904583 
L 294.975651 -33.096939 
L 298.116952 -35.307372 
L 301.156921 -36.313667 
L 304.298222 -37.997352 
L 307.439523 -37.345069 
L 310.378159 -35.016632 
L 313.51946 -33.96414 
L 316.559429 -32.054992 
L 319.70073 -30.642967 
L 322.740699 -32.741924 
L 325.882 -33.184312 
L 329.0233 -30.472238 
L 332.063269 -32.435617 
L 335.20457 -34.464777 
L 338.244539 -35.839142 
L 341.38584 -38.308681 
L 344.527141 -37.570531 
L 347.364445 -35.882326 
L 350.505746 -34.411047 
L 353.545714 -33.263651 
L 356.687015 -32.050473 
L 359.726984 -34.352799 
L 362.868285 -35.152712 
L 366.009586 -33.363075 
L 369.049555 -35.674941 
L 372.190855 -37.462068 
L 375.230824 -36.296092 
L 378.372125 -38.551718 
L 381.513426 -37.908975 
L 384.35073 -36.305633 
L 384.35073 -54.142151 
L 384.35073 -54.142151 
L 381.513426 -55.984697 
L 378.372125 -57.613729 
L 375.230824 -54.513823 
L 372.190855 -57.487202 
L 369.049555 -56.381081 
L 366.009586 -56.17251 
L 362.868285 -58.874055 
L 359.726984 -56.787351 
L 356.687015 -52.074228 
L 353.545714 -50.621147 
L 350.505746 -51.053118 
L 347.364445 -54.619591 
L 344.527141 -55.459808 
L 341.38584 -56.429518 
L 338.244539 -52.671277 
L 335.20457 -51.922989 
L 332.063269 -51.285413 
L 329.0233 -52.309489 
L 325.882 -54.534581 
L 322.740699 -51.922877 
L 319.70073 -48.463273 
L 316.559429 -46.980537 
L 313.51946 -46.203583 
L 310.378159 -49.169055 
L 307.439523 -51.897289 
L 304.298222 -53.458115 
L 301.156921 -50.482759 
L 298.116952 -50.268256 
L 294.975651 -49.20464 
L 291.935683 -49.777965 
L 288.794382 -52.325305 
L 285.653081 -49.774999 
L 282.613112 -46.418086 
L 279.471811 -44.747537 
L 276.431843 -45.733062 
L 273.290542 -48.694579 
L 270.453238 -51.657085 
L 267.311937 -51.808324 
L 264.170636 -49.148297 
L 261.130667 -48.798371 
L 257.989366 -48.174633 
L 254.949397 -49.059332 
L 251.808096 -49.331077 
L 248.666795 -46.841938 
L 245.626827 -43.917205 
L 242.485526 -41.671354 
L 239.445557 -42.424584 
L 236.304256 -44.21474 
L 233.466952 -47.078397 
L 230.325651 -47.392737 
L 227.18435 -46.150205 
L 224.144382 -45.536352 
L 221.003081 -46.774931 
L 217.963112 -52.232972 
L 214.821811 -62.192787 
L 211.68051 -66.63916 
L 208.640541 -69.3249 
L 205.49924 -74.640852 
L 202.459272 -77.575941 
L 199.317971 -80.337114 
L 196.480667 -83.08781 
L 193.339366 -85.594919 
L 190.198065 -82.25752 
L 187.158096 -89.102044 
L 184.016795 -103.976023 
L 180.976827 -100.674768 
L 177.835526 -114.76246 
L 174.694225 -130.811418 
L 171.654256 -153.992489 
L 168.512955 -187.853092 
L 165.472986 -172.936199 
L 162.331685 -56.263939 
L 159.393049 -49.357602 
L 156.251748 -50.713077 
L 153.110447 -48.266563 
L 150.070478 -48.640212 
L 143.889209 -46.452683 
L 140.747908 -51.010175 
L 134.566638 -46.047966 
L 131.425337 -45.330826 
L 128.385369 -44.452342 
L 125.244068 -44.575445 
L 122.406764 -45.780509 
L 119.265463 -46.67707 
L 116.124162 -43.928078 
L 113.084193 -44.577516 
L 109.942892 -43.03646 
L 106.902923 -42.269391 
L 103.761623 -45.281972 
L 100.620322 -42.948915 
L 97.580353 -40.799066 
L 94.439052 -39.774954 
L 91.399083 -39.494174 
L 88.257782 -39.604181 
L 85.420478 -41.270102 
L 82.279177 -41.440191 
L 79.137876 -40.315145 
L 76.097908 -40.78369 
L 72.956607 -39.177393 
L 69.916638 -39.037027 
L 66.775337 -44.647884 
L 63.634036 -43.242266 
L 60.594068 -40.868737 
L 57.452767 -40.643485 
L 54.412798 -40.374753 
L 51.271497 -42.010713 
L 48.434193 -41.548742 
L 45.292892 -41.471679 
z
" style="stroke: #e397a0; stroke-opacity: 0.45"/>
    </defs>
    <g clip-path="url(#pd0e4a084c3)">
     <use xlink:href="#m2b1bf2383c" x="0" y="205.511811" style="fill: #e397a0; fill-opacity: 0.45; stroke: #e397a0; stroke-opacity: 0.45"/>
    </g>
   </g>
   <g id="line2d_25">
    <path d="M 45.292892 164.040132 
L 48.434193 164.994645 
L 51.271497 166.388932 
L 54.412798 169.281726 
L 57.452767 170.920448 
L 60.594068 172.130477 
L 63.634036 169.685211 
L 66.775337 169.392298 
L 69.916638 171.649858 
L 72.956607 169.465764 
L 76.097908 168.368574 
L 79.137876 168.615829 
L 82.279177 166.319013 
L 85.420478 166.728564 
L 88.257782 168.858935 
L 91.399083 169.949435 
L 94.439052 172.395848 
L 97.580353 172.204911 
L 100.620322 171.29527 
L 103.761623 169.52637 
L 106.902923 171.588567 
L 109.942892 170.162684 
L 113.084193 168.532925 
L 116.124162 168.490089 
L 119.265463 165.45694 
L 122.406764 166.012999 
L 125.244068 166.591282 
L 128.385369 167.43401 
L 131.425337 168.776515 
L 134.566638 168.495603 
L 140.747908 163.48618 
L 143.889209 166.715782 
L 150.070478 163.776095 
L 153.110447 163.768696 
L 156.251748 161.51911 
L 159.393049 162.037738 
L 162.331685 158.831667 
L 165.472986 88.75015 
L 168.512955 82.370509 
L 171.654256 110.658354 
L 174.694225 132.855274 
L 177.835526 137.884269 
L 180.976827 149.565521 
L 184.016795 151.988721 
L 187.158096 152.161227 
L 190.198065 154.378665 
L 193.339366 154.32739 
L 196.480667 155.268718 
L 199.317971 158.553206 
L 202.459272 160.367184 
L 205.49924 162.950202 
L 208.640541 165.397084 
L 211.68051 164.501201 
L 214.821811 164.099482 
L 217.963112 166.372497 
L 221.003081 165.584377 
L 224.144382 166.087096 
L 227.18435 166.147889 
L 230.325651 165.293904 
L 233.466952 165.172951 
L 236.304256 165.290334 
L 239.445557 167.047623 
L 242.485526 168.175815 
L 245.626827 167.841842 
L 248.666795 165.633771 
L 251.808096 164.875884 
L 254.949397 167.437842 
L 257.989366 166.175138 
L 261.130667 165.828352 
L 264.170636 165.988698 
L 267.311937 164.101193 
L 270.453238 164.124698 
L 273.290542 164.76726 
L 276.431843 167.262157 
L 279.471811 169.226998 
L 282.613112 168.354376 
L 285.653081 166.021873 
L 288.794382 164.891662 
L 291.935683 168.699992 
L 294.975651 166.73279 
L 298.116952 165.345994 
L 301.156921 165.097602 
L 304.298222 163.14049 
L 307.439523 163.267096 
L 310.378159 164.254171 
L 313.51946 165.863746 
L 316.559429 166.935237 
L 319.70073 167.184819 
L 322.740699 163.384916 
L 325.882 163.203802 
L 329.0233 167.286427 
L 332.063269 165.615731 
L 335.20457 163.71101 
L 338.244539 163.109527 
L 341.38584 161.121928 
L 344.527141 161.540742 
L 347.364445 161.092465 
L 350.505746 163.065788 
L 353.545714 163.739679 
L 356.687015 163.100802 
L 359.726984 158.87914 
L 362.868285 158.968399 
L 366.009586 164.196551 
L 369.049555 162.056826 
L 372.190855 161.517794 
L 375.230824 163.565869 
L 378.372125 160.303243 
L 381.513426 160.266155 
L 384.35073 161.640583 
" clip-path="url(#pd0e4a084c3)" style="fill: none; stroke: #83082a; stroke-width: 2; stroke-linecap: round"/>
   </g>
   <g id="line2d_26">
    <path d="M 45.292892 164.040132 
L 48.434193 165.31565 
L 51.271497 166.997585 
L 54.412798 169.932297 
L 57.452767 171.41413 
L 60.594068 171.396898 
L 63.634036 169.099886 
L 66.775337 167.836911 
L 69.916638 171.821015 
L 72.956607 170.488848 
L 76.097908 168.07854 
L 79.137876 167.766518 
L 82.279177 165.769279 
L 85.420478 166.783533 
L 88.257782 169.472396 
L 91.399083 170.992767 
L 94.439052 172.530633 
L 97.580353 172.276725 
L 100.620322 170.063793 
L 103.761623 168.091024 
L 106.902923 171.46269 
L 109.942892 169.836173 
L 113.084193 166.992925 
L 116.124162 166.794757 
L 119.265463 163.847532 
L 122.406764 164.729059 
L 125.244068 166.686501 
L 128.385369 168.474934 
L 131.425337 169.092443 
L 134.566638 169.074683 
L 140.747908 163.77034 
L 143.889209 167.640297 
L 150.070478 162.681677 
L 153.110447 162.302105 
L 156.251748 159.670506 
L 159.393049 160.927767 
L 162.331685 157.73393 
L 165.472986 83.339957 
L 168.512955 74.583532 
L 171.654256 102.978172 
L 174.694225 124.687975 
L 177.835526 133.475757 
L 180.976827 145.155875 
L 184.016795 144.983994 
L 187.158096 150.196141 
L 190.198065 152.409044 
L 193.339366 150.085569 
L 196.480667 150.735695 
L 199.317971 154.65219 
L 202.459272 156.583491 
L 205.49924 159.629536 
L 208.640541 162.838113 
L 211.68051 162.082133 
L 214.821811 162.005322 
L 217.963112 166.101962 
L 221.003081 166.31068 
L 224.144382 166.309185 
L 227.18435 165.372826 
L 230.325651 164.444732 
L 233.466952 164.871751 
L 236.304256 167.29384 
L 239.445557 168.795806 
L 242.485526 169.543669 
L 245.626827 169.525264 
L 248.666795 166.975019 
L 251.808096 165.762187 
L 254.949397 168.6525 
L 257.989366 167.588161 
L 261.130667 165.720191 
L 264.170636 164.425653 
L 267.311937 162.456255 
L 270.453238 163.482202 
L 273.290542 165.811831 
L 276.431843 168.332477 
L 279.471811 169.257553 
L 282.613112 168.540521 
L 285.653081 166.005398 
L 288.794382 164.843001 
L 291.935683 168.632073 
L 294.975651 167.199328 
L 298.116952 164.665172 
L 301.156921 164.100326 
L 304.298222 161.471307 
L 307.439523 162.152937 
L 310.378159 164.927286 
L 313.51946 166.614994 
L 316.559429 167.86399 
L 319.70073 167.750048 
L 322.740699 164.668718 
L 325.882 163.388218 
L 329.0233 167.620544 
L 332.063269 166.097185 
L 335.20457 163.336991 
L 338.244539 162.098164 
L 341.38584 159.662828 
L 344.527141 161.010351 
L 347.364445 162.24024 
L 350.505746 164.824363 
L 353.545714 165.594702 
L 356.687015 164.903548 
L 359.726984 160.991712 
L 362.868285 160.054943 
L 366.009586 164.444878 
L 369.049555 162.752862 
L 372.190855 160.811158 
L 375.230824 162.236606 
L 378.372125 159.579599 
L 381.513426 160.362247 
L 384.35073 162.247215 
" clip-path="url(#pd0e4a084c3)" style="fill: none; stroke-dasharray: 5.55,2.4; stroke-dashoffset: 0; stroke: #404040; stroke-width: 1.5"/>
   </g>
   <g id="line2d_27">
    <path d="M 28.34 164.040132 
L 401.303622 164.040132 
" clip-path="url(#pd0e4a084c3)" style="fill: none; stroke-dasharray: 1,1.65; stroke-dashoffset: 0; stroke: #cccccc"/>
   </g>
   <g id="patch_3">
    <path d="M 28.34 184.371811 
L 28.34 9.72 
" style="fill: none; stroke: #404040; stroke-linejoin: miter; stroke-linecap: square"/>
   </g>
   <g id="patch_4">
    <path d="M 28.34 184.371811 
L 401.303622 184.371811 
" style="fill: none; stroke: #404040; stroke-linejoin: miter; stroke-linecap: square"/>
   </g>
   <g id="legend_1">
    <g id="patch_5">
     <path d="M 35.54 22.81125 
L 51.54 22.81125 
L 51.54 17.21125 
L 35.54 17.21125 
z
" style="fill: #e397a0; fill-opacity: 0.45; stroke: #e397a0; stroke-opacity: 0.45; stroke-linejoin: miter"/>
    </g>
    <g id="text_18">
     <text style="font-weight: 700; font-size: 8px; font-family: 'Century Gothic', 'DejaVu Sans'; text-anchor: start; fill: #404040" x="57.94" y="22.81125" transform="rotate(-0 57.94 22.81125)">Rango CCAA</text>
    </g>
    <g id="line2d_28">
     <path d="M 35.54 31.56625 
L 43.54 31.56625 
L 51.54 31.56625 
" style="fill: none; stroke: #83082a; stroke-width: 2; stroke-linecap: round"/>
    </g>
    <g id="text_19">
     <text style="font-weight: 700; font-size: 8px; font-family: 'Century Gothic', 'DejaVu Sans'; text-anchor: start; fill: #404040" x="57.94" y="34.36625" transform="rotate(-0 57.94 34.36625)">Mediana CCAA</text>
    </g>
    <g id="line2d_29">
     <path d="M 35.54 43.195 
L 43.54 43.195 
L 51.54 43.195 
" style="fill: none; stroke-dasharray: 5.55,2.4; stroke-dashoffset: 0; stroke: #404040; stroke-width: 1.5"/>
    </g>
    <g id="text_20">
     <text style="font-weight: 700; font-size: 8px; font-family: 'Century Gothic', 'DejaVu Sans'; text-anchor: start; fill: #404040" x="57.94" y="45.995" transform="rotate(-0 57.94 45.995)">España</text>
    </g>
   </g>
  </g>
 </g>
 <defs>
  <clipPath id="pd0e4a084c3">
   <rect x="28.34" y="9.72" width="372.963622" height="174.651811"/>
  </clipPath>
 </defs>
</svg>
