<?xml version="1.0" encoding="utf-8" standalone="no"?>
<!DOCTYPE svg PUBLIC "-//W3C//DTD SVG 1.1//EN"
  "http://www.w3.org/Graphics/SVG/1.1/DTD/svg11.dtd">
<svg xmlns:xlink="http://www.w3.org/1999/xlink" width="426.983906pt" height="211.417031pt" viewBox="0 0 426.983906 211.417031" xmlns="http://www.w3.org/2000/svg" version="1.1">
 <metadata>
  <rdf:RDF xmlns:dc="http://purl.org/dc/elements/1.1/" xmlns:cc="http://creativecommons.org/ns#" xmlns:rdf="http://www.w3.org/1999/02/22-rdf-syntax-ns#">
   <cc:Work>
    <dc:type rdf:resource="http://purl.org/dc/dcmitype/StillImage"/>
    <dc:date>2026-05-11T17:29:11.735940</dc:date>
    <dc:format>image/svg+xml</dc:format>
    <dc:creator>
     <cc:Agent>
      <dc:title>Matplotlib v3.10.8, https://matplotlib.org/</dc:title>
     </cc:Agent>
    </dc:creator>
   </cc:Work>
  </rdf:RDF>
 </metadata>
 <defs>
  <style type="text/css">*{stroke-linejoin: round; stroke-linecap: butt}</style>
 </defs>
 <g id="figure_1">
  <g id="patch_1">
   <path d="M 0 211.417031 
L 426.983906 211.417031 
L 426.983906 0 
L 0 0 
z
" style="fill: #ffffff"/>
  </g>
  <g id="axes_1">
   <g id="patch_2">
    <path d="M 25.663906 192.34 
L 419.783906 192.34 
L 419.783906 7.2 
L 25.663906 7.2 
z
" style="fill: #ffffff"/>
   </g>
   <g id="matplotlib.axis_1">
    <g id="xtick_1">
     <g id="line2d_1"/>
     <g id="text_1">
      <text style="font-size: 9px; font-family: 'Century Gothic'; text-anchor: middle; fill: #404040" x="43.578452" y="202.467656" transform="rotate(-0 43.578452 202.467656)">2017</text>
     </g>
    </g>
    <g id="xtick_2">
     <g id="line2d_2"/>
     <g id="text_2">
      <text style="font-size: 9px; font-family: 'Century Gothic'; text-anchor: middle; fill: #404040" x="82.662786" y="202.467656" transform="rotate(-0 82.662786 202.467656)">2018</text>
     </g>
    </g>
    <g id="xtick_3">
     <g id="line2d_3"/>
     <g id="text_3">
      <text style="font-size: 9px; font-family: 'Century Gothic'; text-anchor: middle; fill: #404040" x="121.74712" y="202.467656" transform="rotate(-0 121.74712 202.467656)">2019</text>
     </g>
    </g>
    <g id="xtick_4">
     <g id="line2d_4"/>
     <g id="text_4">
      <text style="font-size: 9px; font-family: 'Century Gothic'; text-anchor: middle; fill: #404040" x="160.831454" y="202.467656" transform="rotate(-0 160.831454 202.467656)">2020</text>
     </g>
    </g>
    <g id="xtick_5">
     <g id="line2d_5"/>
     <g id="text_5">
      <text style="font-size: 9px; font-family: 'Century Gothic'; text-anchor: middle; fill: #404040" x="200.022868" y="202.467656" transform="rotate(-0 200.022868 202.467656)">2021</text>
     </g>
    </g>
    <g id="xtick_6">
     <g id="line2d_6"/>
     <g id="text_6">
      <text style="font-size: 9px; font-family: 'Century Gothic'; text-anchor: middle; fill: #404040" x="239.107202" y="202.467656" transform="rotate(-0 239.107202 202.467656)">2022</text>
     </g>
    </g>
    <g id="xtick_7">
     <g id="line2d_7"/>
     <g id="text_7">
      <text style="font-size: 9px; font-family: 'Century Gothic'; text-anchor: middle; fill: #404040" x="278.191537" y="202.467656" transform="rotate(-0 278.191537 202.467656)">2023</text>
     </g>
    </g>
    <g id="xtick_8">
     <g id="line2d_8"/>
     <g id="text_8">
      <text style="font-size: 9px; font-family: 'Century Gothic'; text-anchor: middle; fill: #404040" x="317.275871" y="202.467656" transform="rotate(-0 317.275871 202.467656)">2024</text>
     </g>
    </g>
    <g id="xtick_9">
     <g id="line2d_9"/>
     <g id="text_9">
      <text style="font-size: 9px; font-family: 'Century Gothic'; text-anchor: middle; fill: #404040" x="356.467285" y="202.467656" transform="rotate(-0 356.467285 202.467656)">2025</text>
     </g>
    </g>
    <g id="xtick_10">
     <g id="line2d_10"/>
     <g id="text_10">
      <text style="font-size: 9px; font-family: 'Century Gothic'; text-anchor: middle; fill: #404040" x="395.551619" y="202.467656" transform="rotate(-0 395.551619 202.467656)">2026</text>
     </g>
    </g>
   </g>
   <g id="matplotlib.axis_2">
    <g id="ytick_1">
     <g id="line2d_11"/>
     <g id="text_11">
      <text style="font-size: 9px; font-family: 'Century Gothic'; text-anchor: end; fill: #404040" x="22.163906" y="174.101191" transform="rotate(-0 22.163906 174.101191)">100</text>
     </g>
    </g>
    <g id="ytick_2">
     <g id="line2d_12"/>
     <g id="text_12">
      <text style="font-size: 9px; font-family: 'Century Gothic'; text-anchor: end; fill: #404040" x="22.163906" y="149.38395" transform="rotate(-0 22.163906 149.38395)">150</text>
     </g>
    </g>
    <g id="ytick_3">
     <g id="line2d_13"/>
     <g id="text_13">
      <text style="font-size: 9px; font-family: 'Century Gothic'; text-anchor: end; fill: #404040" x="22.163906" y="124.666709" transform="rotate(-0 22.163906 124.666709)">200</text>
     </g>
    </g>
    <g id="ytick_4">
     <g id="line2d_14"/>
     <g id="text_14">
      <text style="font-size: 9px; font-family: 'Century Gothic'; text-anchor: end; fill: #404040" x="22.163906" y="99.949468" transform="rotate(-0 22.163906 99.949468)">250</text>
     </g>
    </g>
    <g id="ytick_5">
     <g id="line2d_15"/>
     <g id="text_15">
      <text style="font-size: 9px; font-family: 'Century Gothic'; text-anchor: end; fill: #404040" x="22.163906" y="75.232228" transform="rotate(-0 22.163906 75.232228)">300</text>
     </g>
    </g>
    <g id="ytick_6">
     <g id="line2d_16"/>
     <g id="text_16">
      <text style="font-size: 9px; font-family: 'Century Gothic'; text-anchor: end; fill: #404040" x="22.163906" y="50.514987" transform="rotate(-0 22.163906 50.514987)">350</text>
     </g>
    </g>
    <g id="ytick_7">
     <g id="line2d_17"/>
     <g id="text_17">
      <text style="font-size: 9px; font-family: 'Century Gothic'; text-anchor: end; fill: #404040" x="22.163906" y="25.797746" transform="rotate(-0 22.163906 25.797746)">400</text>
     </g>
    </g>
   </g>
   <g id="FillBetweenPolyCollection_1">
    <defs>
     <path id="md591592032" d="M 43.578452 -40.629668 
L 43.578452 -40.629668 
L 46.897943 -38.74057 
L 49.896193 -36.084089 
L 53.215685 -32.930057 
L 56.428096 -30.542089 
L 59.747587 -30.241784 
L 62.959998 -31.198951 
L 66.27949 -31.397498 
L 69.598981 -29.743649 
L 72.811392 -30.882182 
L 76.130883 -31.981164 
L 79.343294 -33.763144 
L 82.662786 -35.682847 
L 85.982277 -33.737847 
L 88.980527 -32.186344 
L 92.300019 -29.808497 
L 95.51243 -27.492486 
L 98.831921 -28.30272 
L 102.044332 -27.990261 
L 105.363824 -29.648368 
L 108.683315 -28.523623 
L 111.895726 -30.809104 
L 115.215217 -31.978353 
L 118.427628 -33.305 
L 121.74712 -35.769979 
L 125.066611 -35.294972 
L 128.064862 -33.642284 
L 131.384353 -32.000839 
L 134.596764 -30.232912 
L 137.916255 -30.873185 
L 144.448158 -32.695772 
L 147.767649 -31.237277 
L 154.299552 -35.494531 
L 157.511963 -36.995441 
L 160.831454 -40.387949 
L 164.150945 -39.515037 
L 167.256276 -43.139452 
L 170.575767 -75.252066 
L 173.788178 -76.984837 
L 177.10767 -61.449146 
L 180.320081 -54.081955 
L 183.639572 -48.607797 
L 186.959064 -43.940666 
L 190.171475 -34.595109 
L 193.490966 -39.165297 
L 196.703377 -39.977587 
L 200.022868 -40.921981 
L 203.34236 -41.456012 
L 206.34061 -40.812363 
L 209.660101 -38.403599 
L 212.872512 -36.809936 
L 216.192004 -35.345741 
L 219.404415 -35.073546 
L 222.723906 -34.328329 
L 226.043398 -32.782537 
L 229.255809 -33.049227 
L 232.5753 -32.745672 
L 235.787711 -33.718172 
L 239.107202 -34.718779 
L 242.426694 -35.716576 
L 245.424944 -33.567086 
L 248.744436 -32.575752 
L 251.956847 -32.012471 
L 255.276338 -30.531982 
L 258.488749 -32.148038 
L 261.80824 -32.886867 
L 265.127732 -31.369819 
L 268.340143 -32.410461 
L 271.659634 -33.693298 
L 274.872045 -35.905527 
L 278.191537 -36.987156 
L 281.511028 -35.874121 
L 284.509278 -34.179286 
L 287.82877 -32.693111 
L 291.041181 -30.497383 
L 294.360672 -29.508374 
L 297.573083 -30.842312 
L 300.892574 -31.395901 
L 304.212066 -29.427997 
L 307.424477 -31.752008 
L 310.743968 -34.095183 
L 313.956379 -35.161907 
L 317.275871 -36.946701 
L 320.595362 -36.255246 
L 323.700693 -33.786982 
L 327.020184 -32.671286 
L 330.232595 -30.647491 
L 333.552086 -29.15067 
L 336.764497 -31.375674 
L 340.083989 -31.844628 
L 343.40348 -28.969689 
L 346.615891 -31.050972 
L 349.935383 -33.201987 
L 353.147794 -34.658886 
L 356.467285 -37.276726 
L 359.786776 -36.494248 
L 362.785027 -34.704663 
L 366.104518 -33.145031 
L 369.316929 -31.928731 
L 372.636421 -30.6427 
L 375.848832 -33.083285 
L 379.168323 -33.931235 
L 382.487814 -32.034126 
L 385.700225 -34.484824 
L 389.019717 -36.379272 
L 392.232128 -35.143277 
L 395.551619 -37.534358 
L 398.871111 -36.853017 
L 401.869361 -35.15339 
L 401.869361 -54.061027 
L 401.869361 -54.061027 
L 398.871111 -56.014221 
L 395.551619 -57.74108 
L 392.232128 -54.455019 
L 389.019717 -57.606955 
L 385.700225 -56.43441 
L 382.487814 -56.213313 
L 379.168323 -59.077091 
L 375.848832 -56.865077 
L 372.636421 -51.868922 
L 369.316929 -50.32858 
L 366.104518 -50.786491 
L 362.785027 -54.567139 
L 359.786776 -55.457812 
L 356.467285 -56.485755 
L 353.147794 -52.501824 
L 349.935383 -51.7086 
L 346.615891 -51.032736 
L 343.40348 -52.11831 
L 340.083989 -54.477024 
L 336.764497 -51.708481 
L 333.552086 -48.041121 
L 330.232595 -46.469344 
L 327.020184 -45.645733 
L 323.700693 -48.789287 
L 320.595362 -51.681356 
L 317.275871 -53.335913 
L 313.956379 -50.181881 
L 310.743968 -49.954497 
L 307.424477 -48.827009 
L 304.212066 -49.434763 
L 300.892574 -52.135076 
L 297.573083 -49.431619 
L 294.360672 -45.873116 
L 291.041181 -44.102248 
L 287.82877 -45.146955 
L 284.509278 -48.286318 
L 281.511028 -51.426728 
L 278.191537 -51.58705 
L 274.872045 -48.767282 
L 271.659634 -48.396342 
L 268.340143 -47.735148 
L 265.127732 -48.672975 
L 261.80824 -48.961038 
L 258.488749 -46.322422 
L 255.276338 -43.222053 
L 251.956847 -40.841334 
L 248.744436 -41.639797 
L 245.424944 -43.537456 
L 242.426694 -46.573081 
L 239.107202 -46.906298 
L 235.787711 -45.589149 
L 232.5753 -44.938433 
L 229.255809 -46.251391 
L 226.043398 -52.037199 
L 222.723906 -62.59512 
L 219.404415 -67.308507 
L 216.192004 -70.155531 
L 212.872512 -75.790716 
L 209.660101 -78.902063 
L 206.34061 -81.829049 
L 203.34236 -84.74493 
L 200.022868 -87.402597 
L 196.703377 -83.86478 
L 193.490966 -91.120331 
L 190.171475 -106.887522 
L 186.959064 -103.388021 
L 183.639572 -118.321707 
L 180.320081 -135.334436 
L 177.10767 -159.907577 
L 173.788178 -195.801577 
L 170.575767 -179.988895 
L 167.256276 -56.310233 
L 164.150945 -48.989156 
L 160.831454 -50.42603 
L 157.511963 -47.832598 
L 154.299552 -48.228686 
L 147.767649 -45.909791 
L 144.448158 -50.740969 
L 137.916255 -45.48077 
L 134.596764 -44.720564 
L 131.384353 -43.789326 
L 128.064862 -43.919822 
L 125.066611 -45.197252 
L 121.74712 -46.147653 
L 118.427628 -43.233579 
L 115.215217 -43.922017 
L 111.895726 -42.288417 
L 108.683315 -41.475284 
L 105.363824 -44.668777 
L 102.044332 -42.195615 
L 98.831921 -39.916663 
L 95.51243 -38.831051 
L 92.300019 -38.53341 
L 88.980527 -38.650023 
L 85.982277 -40.415986 
L 82.662786 -40.596289 
L 79.343294 -39.403682 
L 76.130883 -39.900364 
L 72.811392 -38.197605 
L 69.598981 -38.048811 
L 66.27949 -43.99661 
L 62.959998 -42.506583 
L 59.747587 -39.990518 
L 56.428096 -39.751739 
L 53.215685 -39.46687 
L 49.896193 -41.201072 
L 46.897943 -40.711359 
L 43.578452 -40.629668 
z
" style="stroke: #e397a0; stroke-opacity: 0.45"/>
    </defs>
    <g clip-path="url(#p9edee76872)">
     <use xlink:href="#md591592032" x="0" y="211.417031" style="fill: #e397a0; fill-opacity: 0.45; stroke: #e397a0; stroke-opacity: 0.45"/>
    </g>
   </g>
   <g id="line2d_18">
    <path d="M 43.578452 170.787363 
L 46.897943 171.799197 
L 49.896193 173.277213 
L 53.215685 176.343726 
L 56.428096 178.080855 
L 59.747587 179.363549 
L 62.959998 176.771441 
L 66.27949 176.460937 
L 69.598981 178.854068 
L 72.811392 176.538815 
L 76.130883 175.375737 
L 79.343294 175.63784 
L 82.662786 173.203096 
L 85.982277 173.637241 
L 88.980527 175.895545 
L 92.300019 177.051532 
L 95.51243 179.644856 
L 98.831921 179.442453 
L 102.044332 178.478186 
L 105.363824 176.60306 
L 108.683315 178.789097 
L 111.895726 177.277587 
L 115.215217 175.549957 
L 118.427628 175.504548 
L 121.74712 172.289253 
L 125.066611 172.878704 
L 128.064862 173.491714 
L 131.384353 174.38505 
L 134.596764 175.808176 
L 137.916255 175.510394 
L 144.448158 170.200146 
L 147.767649 173.623691 
L 154.299552 170.507471 
L 157.511963 170.499626 
L 160.831454 168.114948 
L 164.150945 168.664721 
L 167.256276 165.266119 
L 170.575767 90.976068 
L 173.788178 84.213317 
L 177.10767 114.199903 
L 180.320081 137.729792 
L 183.639572 143.060789 
L 186.959064 155.443523 
L 190.171475 158.012241 
L 193.490966 158.195107 
L 196.703377 160.545706 
L 200.022868 160.491352 
L 203.34236 161.489209 
L 206.34061 164.970936 
L 209.660101 166.893847 
L 212.872512 169.631981 
L 216.192004 172.225803 
L 219.404415 171.27612 
L 222.723906 170.850277 
L 226.043398 173.259791 
L 229.255809 172.424343 
L 232.5753 172.957252 
L 235.787711 173.021695 
L 239.107202 172.116427 
L 242.426694 171.98821 
L 245.424944 172.112642 
L 248.744436 173.97546 
L 251.956847 175.171402 
L 255.276338 174.817373 
L 258.488749 172.476704 
L 261.80824 171.673304 
L 265.127732 174.389112 
L 268.340143 173.05058 
L 271.659634 172.68297 
L 274.872045 172.852944 
L 278.191537 170.852091 
L 281.511028 170.877008 
L 284.509278 171.558156 
L 287.82877 174.202878 
L 291.041181 176.285711 
L 294.360672 175.360686 
L 297.573083 172.888112 
L 300.892574 171.690029 
L 304.212066 175.727057 
L 307.424477 173.641721 
L 310.743968 172.171645 
L 313.956379 171.908337 
L 317.275871 169.833696 
L 320.595362 169.967905 
L 323.700693 171.014255 
L 327.020184 172.720489 
L 330.232595 173.856325 
L 333.552086 174.120895 
L 336.764497 170.0928 
L 340.083989 169.90081 
L 343.40348 174.228605 
L 346.615891 172.45758 
L 349.935383 170.438477 
L 353.147794 169.800873 
L 356.467285 167.693916 
L 359.786776 168.13788 
L 362.785027 167.662682 
L 366.104518 169.754507 
L 369.316929 170.468867 
L 372.636421 169.791625 
L 375.848832 165.316444 
L 379.168323 165.411062 
L 382.487814 170.953175 
L 385.700225 168.684956 
L 389.019717 168.113553 
L 392.232128 170.28462 
L 395.551619 166.826067 
L 398.871111 166.786751 
L 401.869361 168.243717 
" clip-path="url(#p9edee76872)" style="fill: none; stroke: #83082a; stroke-width: 2; stroke-linecap: round"/>
   </g>
   <g id="line2d_19">
    <path d="M 43.578452 170.787363 
L 46.897943 172.139478 
L 49.896193 173.922417 
L 53.215685 177.033364 
L 56.428096 178.604184 
L 59.747587 178.585917 
L 62.959998 176.150966 
L 66.27949 174.812147 
L 69.598981 179.035504 
L 72.811392 177.623338 
L 76.130883 175.068286 
L 79.343294 174.737526 
L 82.662786 172.620349 
L 85.982277 173.695511 
L 88.980527 176.545846 
L 92.300019 178.157517 
L 95.51243 179.787736 
L 98.831921 179.51858 
L 102.044332 177.172757 
L 105.363824 175.08152 
L 108.683315 178.65566 
L 111.895726 176.931468 
L 115.215217 173.917478 
L 118.427628 173.707409 
L 121.74712 170.583197 
L 125.066611 171.517662 
L 128.064862 173.592652 
L 131.384353 175.488484 
L 134.596764 176.143075 
L 137.916255 176.124249 
L 144.448158 170.501369 
L 147.767649 174.603725 
L 154.299552 169.347331 
L 157.511963 168.944964 
L 160.831454 166.155332 
L 164.150945 167.488094 
L 167.256276 164.102462 
L 170.575767 85.240982 
L 173.788178 75.958716 
L 177.10767 106.05851 
L 180.320081 129.072031 
L 183.639572 138.387537 
L 186.959064 150.769069 
L 190.171475 150.586867 
L 193.490966 156.112013 
L 196.703377 158.457805 
L 200.022868 155.994801 
L 203.34236 156.683968 
L 206.34061 160.835657 
L 209.660101 162.882936 
L 212.872512 166.111902 
L 216.192004 169.513161 
L 219.404415 168.711783 
L 222.723906 168.630359 
L 226.043398 172.97301 
L 229.255809 173.194262 
L 232.5753 173.192677 
L 235.787711 172.200088 
L 239.107202 171.21626 
L 242.426694 171.668922 
L 245.424944 174.236463 
L 248.744436 175.828625 
L 251.956847 176.621398 
L 255.276338 176.601889 
L 258.488749 173.898496 
L 261.80824 172.612831 
L 265.127732 175.676713 
L 268.340143 174.548459 
L 271.659634 172.568313 
L 274.872045 171.196036 
L 278.191537 169.108371 
L 281.511028 170.195929 
L 284.509278 172.665457 
L 287.82877 175.337472 
L 291.041181 176.318101 
L 294.360672 175.55801 
L 297.573083 172.870647 
L 300.892574 171.638446 
L 304.212066 175.65506 
L 307.424477 174.136275 
L 310.743968 171.449938 
L 313.956379 170.851172 
L 317.275871 168.064275 
L 320.595362 168.786838 
L 323.700693 171.727792 
L 327.020184 173.516851 
L 330.232595 174.840852 
L 333.552086 174.720067 
L 336.764497 171.453697 
L 340.083989 170.0963 
L 343.40348 174.582786 
L 346.615891 172.967946 
L 349.935383 170.041997 
L 353.147794 168.728776 
L 356.467285 166.147193 
L 359.786776 167.575638 
L 362.785027 168.879384 
L 366.104518 171.618688 
L 369.316929 172.435289 
L 372.636421 171.702629 
L 375.848832 167.55588 
L 379.168323 166.562856 
L 382.487814 171.216415 
L 385.700225 169.42279 
L 389.019717 167.364482 
L 392.232128 168.875532 
L 395.551619 166.058966 
L 398.871111 166.888614 
L 401.869361 168.886777 
" clip-path="url(#p9edee76872)" style="fill: none; stroke-dasharray: 5.55,2.4; stroke-dashoffset: 0; stroke: #404040; stroke-width: 1.5"/>
   </g>
   <g id="line2d_20">
    <path d="M 25.663906 170.787363 
L 419.783906 170.787363 
" clip-path="url(#p9edee76872)" style="fill: none; stroke-dasharray: 1,1.65; stroke-dashoffset: 0; stroke: #d9d9d9"/>
   </g>
   <g id="patch_3">
    <path d="M 25.663906 192.34 
L 25.663906 7.2 
" style="fill: none; stroke: #404040; stroke-linejoin: miter; stroke-linecap: square"/>
   </g>
   <g id="patch_4">
    <path d="M 25.663906 192.34 
L 419.783906 192.34 
" style="fill: none; stroke: #404040; stroke-linejoin: miter; stroke-linecap: square"/>
   </g>
   <g id="legend_1">
    <g id="patch_5">
     <path d="M 32.863906 20.29125 
L 48.863906 20.29125 
L 48.863906 14.69125 
L 32.863906 14.69125 
z
" style="fill: #e397a0; fill-opacity: 0.45; stroke: #e397a0; stroke-opacity: 0.45; stroke-linejoin: miter"/>
    </g>
    <g id="text_18">
     <text style="font-size: 8px; font-family: 'Century Gothic'; text-anchor: start; fill: #262626" x="55.263906" y="20.29125" transform="rotate(-0 55.263906 20.29125)">Rango CCAA</text>
    </g>
    <g id="line2d_21">
     <path d="M 32.863906 29.04625 
L 40.863906 29.04625 
L 48.863906 29.04625 
" style="fill: none; stroke: #83082a; stroke-width: 2; stroke-linecap: round"/>
    </g>
    <g id="text_19">
     <text style="font-size: 8px; font-family: 'Century Gothic'; text-anchor: start; fill: #262626" x="55.263906" y="31.84625" transform="rotate(-0 55.263906 31.84625)">Mediana CCAA</text>
    </g>
    <g id="line2d_22">
     <path d="M 32.863906 40.53125 
L 40.863906 40.53125 
L 48.863906 40.53125 
" style="fill: none; stroke-dasharray: 5.55,2.4; stroke-dashoffset: 0; stroke: #404040; stroke-width: 1.5"/>
    </g>
    <g id="text_20">
     <text style="font-size: 8px; font-family: 'Century Gothic'; text-anchor: start; fill: #262626" x="55.263906" y="43.33125" transform="rotate(-0 55.263906 43.33125)">España</text>
    </g>
   </g>
  </g>
 </g>
 <defs>
  <clipPath id="p9edee76872">
   <rect x="25.663906" y="7.2" width="394.12" height="185.14"/>
  </clipPath>
 </defs>
</svg>
