<?xml version="1.0" encoding="utf-8" standalone="no"?>
<!DOCTYPE svg PUBLIC "-//W3C//DTD SVG 1.1//EN"
  "http://www.w3.org/Graphics/SVG/1.1/DTD/svg11.dtd">
<svg xmlns:xlink="http://www.w3.org/1999/xlink" width="411.023622pt" height="205.511811pt" viewBox="0 0 411.023622 205.511811" xmlns="http://www.w3.org/2000/svg" version="1.1">
 <metadata>
  <rdf:RDF xmlns:dc="http://purl.org/dc/elements/1.1/" xmlns:cc="http://creativecommons.org/ns#" xmlns:rdf="http://www.w3.org/1999/02/22-rdf-syntax-ns#">
   <cc:Work>
    <dc:type rdf:resource="http://purl.org/dc/dcmitype/StillImage"/>
    <dc:date>2026-05-12T13:58:06.730142</dc:date>
    <dc:format>image/svg+xml</dc:format>
    <dc:creator>
     <cc:Agent>
      <dc:title>Matplotlib v3.10.8, https://matplotlib.org/</dc:title>
     </cc:Agent>
    </dc:creator>
   </cc:Work>
  </rdf:RDF>
 </metadata>
 <defs>
  <style type="text/css">*{stroke-linejoin: round; stroke-linecap: butt}</style>
 </defs>
 <g id="figure_1">
  <g id="patch_1">
   <path d="M 0 205.511811 
L 411.023622 205.511811 
L 411.023622 0 
L 0 0 
z
" style="fill: #ffffff"/>
  </g>
  <g id="axes_1">
   <g id="patch_2">
    <path d="M 34.01 184.371811 
L 382.863622 184.371811 
L 382.863622 9.72 
L 34.01 9.72 
z
" style="fill: #ffffff"/>
   </g>
   <g id="matplotlib.axis_1">
    <g id="xtick_1">
     <g id="line2d_1"/>
     <g id="text_1">
      <text style="font-size: 9px; font-family: 'Century Gothic'; text-anchor: middle; fill: #404040" x="49.866983" y="194.499467" transform="rotate(-0 49.866983 194.499467)">2017</text>
     </g>
    </g>
    <g id="xtick_2">
     <g id="line2d_2"/>
     <g id="text_2">
      <text style="font-size: 9px; font-family: 'Century Gothic'; text-anchor: middle; fill: #404040" x="84.462313" y="194.499467" transform="rotate(-0 84.462313 194.499467)">2018</text>
     </g>
    </g>
    <g id="xtick_3">
     <g id="line2d_3"/>
     <g id="text_3">
      <text style="font-size: 9px; font-family: 'Century Gothic'; text-anchor: middle; fill: #404040" x="119.057643" y="194.499467" transform="rotate(-0 119.057643 194.499467)">2019</text>
     </g>
    </g>
    <g id="xtick_4">
     <g id="line2d_4"/>
     <g id="text_4">
      <text style="font-size: 9px; font-family: 'Century Gothic'; text-anchor: middle; fill: #404040" x="153.652973" y="194.499467" transform="rotate(-0 153.652973 194.499467)">2020</text>
     </g>
    </g>
    <g id="xtick_5">
     <g id="line2d_5"/>
     <g id="text_5">
      <text style="font-size: 9px; font-family: 'Century Gothic'; text-anchor: middle; fill: #404040" x="188.343085" y="194.499467" transform="rotate(-0 188.343085 194.499467)">2021</text>
     </g>
    </g>
    <g id="xtick_6">
     <g id="line2d_6"/>
     <g id="text_6">
      <text style="font-size: 9px; font-family: 'Century Gothic'; text-anchor: middle; fill: #404040" x="222.938415" y="194.499467" transform="rotate(-0 222.938415 194.499467)">2022</text>
     </g>
    </g>
    <g id="xtick_7">
     <g id="line2d_7"/>
     <g id="text_7">
      <text style="font-size: 9px; font-family: 'Century Gothic'; text-anchor: middle; fill: #404040" x="257.533745" y="194.499467" transform="rotate(-0 257.533745 194.499467)">2023</text>
     </g>
    </g>
    <g id="xtick_8">
     <g id="line2d_8"/>
     <g id="text_8">
      <text style="font-size: 9px; font-family: 'Century Gothic'; text-anchor: middle; fill: #404040" x="292.129075" y="194.499467" transform="rotate(-0 292.129075 194.499467)">2024</text>
     </g>
    </g>
    <g id="xtick_9">
     <g id="line2d_9"/>
     <g id="text_9">
      <text style="font-size: 9px; font-family: 'Century Gothic'; text-anchor: middle; fill: #404040" x="326.819187" y="194.499467" transform="rotate(-0 326.819187 194.499467)">2025</text>
     </g>
    </g>
    <g id="xtick_10">
     <g id="line2d_10"/>
     <g id="text_10">
      <text style="font-size: 9px; font-family: 'Century Gothic'; text-anchor: middle; fill: #404040" x="361.414517" y="194.499467" transform="rotate(-0 361.414517 194.499467)">2026</text>
     </g>
    </g>
   </g>
   <g id="matplotlib.axis_2">
    <g id="ytick_1">
     <g id="line2d_11"/>
     <g id="text_11">
      <text style="font-size: 9px; font-family: 'Century Gothic'; text-anchor: end; fill: #404040" x="30.51" y="183.336968" transform="rotate(-0 30.51 183.336968)">500.000</text>
     </g>
    </g>
    <g id="ytick_2">
     <g id="line2d_12"/>
     <g id="text_12">
      <text style="font-size: 9px; font-family: 'Century Gothic'; text-anchor: end; fill: #404040" x="30.51" y="163.74556" transform="rotate(-0 30.51 163.74556)">1.0M</text>
     </g>
    </g>
    <g id="ytick_3">
     <g id="line2d_13"/>
     <g id="text_13">
      <text style="font-size: 9px; font-family: 'Century Gothic'; text-anchor: end; fill: #404040" x="30.51" y="144.154152" transform="rotate(-0 30.51 144.154152)">1.5M</text>
     </g>
    </g>
    <g id="ytick_4">
     <g id="line2d_14"/>
     <g id="text_14">
      <text style="font-size: 9px; font-family: 'Century Gothic'; text-anchor: end; fill: #404040" x="30.51" y="124.562744" transform="rotate(-0 30.51 124.562744)">2.0M</text>
     </g>
    </g>
    <g id="ytick_5">
     <g id="line2d_15"/>
     <g id="text_15">
      <text style="font-size: 9px; font-family: 'Century Gothic'; text-anchor: end; fill: #404040" x="30.51" y="104.971336" transform="rotate(-0 30.51 104.971336)">2.5M</text>
     </g>
    </g>
    <g id="ytick_6">
     <g id="line2d_16"/>
     <g id="text_16">
      <text style="font-size: 9px; font-family: 'Century Gothic'; text-anchor: end; fill: #404040" x="30.51" y="85.379928" transform="rotate(-0 30.51 85.379928)">3.0M</text>
     </g>
    </g>
    <g id="ytick_7">
     <g id="line2d_17"/>
     <g id="text_17">
      <text style="font-size: 9px; font-family: 'Century Gothic'; text-anchor: end; fill: #404040" x="30.51" y="65.78852" transform="rotate(-0 30.51 65.78852)">3.5M</text>
     </g>
    </g>
    <g id="ytick_8">
     <g id="line2d_18"/>
     <g id="text_18">
      <text style="font-size: 9px; font-family: 'Century Gothic'; text-anchor: end; fill: #404040" x="30.51" y="46.197112" transform="rotate(-0 30.51 46.197112)">4.0M</text>
     </g>
    </g>
    <g id="ytick_9">
     <g id="line2d_19"/>
     <g id="text_19">
      <text style="font-size: 9px; font-family: 'Century Gothic'; text-anchor: end; fill: #404040" x="30.51" y="26.605704" transform="rotate(-0 30.51 26.605704)">4.5M</text>
     </g>
    </g>
   </g>
   <g id="line2d_20">
    <path d="M 49.866983 137.263951 
L 52.805216 138.969344 
L 55.459105 141.218124 
L 58.397338 145.141891 
L 61.24079 147.123131 
L 64.179024 147.100092 
L 67.022475 144.028943 
L 69.960709 142.34032 
L 72.898942 147.667146 
L 75.742394 145.886012 
L 78.680628 142.663382 
L 81.524079 142.246203 
L 84.462313 139.575855 
L 87.400546 140.931933 
L 90.054435 144.526995 
L 92.992668 146.559761 
L 95.83612 148.615918 
L 98.774354 148.276438 
L 101.617805 145.317705 
L 104.556039 142.680074 
L 107.494272 147.188057 
L 110.337724 145.013372 
L 113.275958 141.211894 
L 116.11941 140.94694 
L 119.057643 137.006442 
L 121.995877 138.185061 
L 124.649765 140.802199 
L 127.587998 143.193369 
L 130.43145 144.01899 
L 133.369684 143.995245 
L 139.151369 136.903234 
L 142.089603 142.077443 
L 147.871288 135.447671 
L 150.71474 134.940175 
L 153.652973 131.421676 
L 156.591207 133.102658 
L 159.339877 128.832436 
L 162.27811 29.366231 
L 165.121562 17.658719 
L 168.059796 55.62291 
L 170.903247 84.649344 
L 173.841481 96.398782 
L 176.779714 112.015328 
L 179.623166 111.785521 
L 182.5614 118.754263 
L 185.404852 121.712958 
L 188.343085 118.606426 
L 191.281319 119.475658 
L 193.935207 124.712089 
L 196.87344 127.294275 
L 199.716892 131.366898 
L 202.655126 135.656829 
L 205.498578 134.646069 
L 208.436811 134.543371 
L 211.375045 140.020658 
L 214.218496 140.299718 
L 217.15673 140.29772 
L 220.000182 139.04579 
L 222.938415 137.804909 
L 225.876649 138.375842 
L 228.530537 141.614223 
L 231.468771 143.622382 
L 234.312222 144.622288 
L 237.250456 144.597681 
L 240.093908 141.187953 
L 243.032141 139.566373 
L 245.970375 143.430778 
L 248.813826 142.007736 
L 251.75206 139.510224 
L 254.595512 137.779401 
L 257.533745 135.146277 
L 260.471979 136.517989 
L 263.125867 139.632748 
L 266.064101 143.002901 
L 268.907552 144.239746 
L 271.845786 143.28106 
L 274.689238 139.891551 
L 277.627471 138.337404 
L 280.565705 143.403467 
L 283.409157 141.487859 
L 286.34739 138.099642 
L 289.190842 137.344433 
L 292.129075 133.829381 
L 295.067309 134.740735 
L 297.815979 138.450093 
L 300.754213 140.706593 
L 303.597664 142.376525 
L 306.535898 142.224182 
L 309.37935 138.104383 
L 312.317583 136.392329 
L 315.255817 142.051033 
L 318.099268 140.014271 
L 321.037502 136.323838 
L 323.880954 134.667502 
L 326.819187 131.41141 
L 329.757421 133.213075 
L 332.411309 134.85746 
L 335.349543 138.312483 
L 338.192994 139.342443 
L 341.131228 138.418355 
L 343.97468 133.188155 
L 346.912913 131.935676 
L 349.851147 137.805105 
L 352.694599 135.542846 
L 355.632832 132.946749 
L 358.476284 134.852601 
L 361.414517 131.300131 
L 364.352751 132.346547 
L 367.006639 134.866786 
" clip-path="url(#p40c839055c)" style="fill: none; stroke: #83082a; stroke-width: 2; stroke-linecap: round"/>
   </g>
   <g id="line2d_21">
    <path d="M 49.866983 168.383492 
L 52.805216 169.975882 
L 55.459105 171.848977 
L 58.397338 173.631639 
L 61.24079 174.556706 
L 64.179024 173.265122 
L 67.022475 169.30707 
L 69.960709 167.673735 
L 72.898942 173.008593 
L 75.742394 172.31396 
L 78.680628 170.292753 
L 81.524079 169.485783 
L 84.462313 168.034295 
L 87.400546 169.311302 
L 90.054435 171.753802 
L 92.992668 172.833132 
L 95.83612 173.828101 
L 98.774354 172.286532 
L 101.617805 168.49916 
L 104.556039 166.487044 
L 107.494272 171.628378 
L 110.337724 170.898598 
L 113.275958 168.621959 
L 116.11941 167.996013 
L 119.057643 165.950435 
L 121.995877 167.375632 
L 124.649765 169.997236 
L 127.587998 171.487829 
L 130.43145 172.300442 
L 133.369684 171.256768 
L 139.151369 163.987964 
L 142.089603 169.439508 
L 147.871288 165.527849 
L 150.71474 164.639104 
L 153.652973 162.795788 
L 156.591207 164.65176 
L 159.339877 161.448486 
L 162.27811 64.634017 
L 165.121562 53.094639 
L 168.059796 90.008456 
L 170.903247 117.310807 
L 173.841481 128.145561 
L 176.779714 142.90757 
L 179.623166 143.430974 
L 182.5614 151.071349 
L 185.404852 156.131143 
L 188.343085 154.609047 
L 191.281319 154.069853 
L 193.935207 158.344698 
L 196.87344 160.488938 
L 199.716892 163.982086 
L 202.655126 166.664542 
L 205.498578 164.342764 
L 208.436811 163.708943 
L 211.375045 168.960577 
L 214.218496 169.245592 
L 217.15673 169.305934 
L 220.000182 167.730354 
L 222.938415 166.933728 
L 225.876649 167.747829 
L 228.530537 171.250577 
L 231.468771 172.326851 
L 234.312222 173.000168 
L 237.250456 172.071457 
L 240.093908 167.861185 
L 243.032141 166.287564 
L 245.970375 170.525147 
L 248.813826 169.775618 
L 251.75206 167.879875 
L 254.595512 166.147838 
L 257.533745 164.500632 
L 260.471979 166.108773 
L 263.125867 169.040941 
L 266.064101 171.359819 
L 268.907552 172.239395 
L 271.845786 170.704878 
L 274.689238 166.669244 
L 277.627471 165.268615 
L 280.565705 170.46167 
L 283.409157 169.33203 
L 286.34739 166.941094 
L 289.190842 166.079425 
L 292.129075 163.882484 
L 295.067309 165.172578 
L 297.815979 167.993623 
L 300.754213 169.487899 
L 303.597664 170.56429 
L 306.535898 169.62884 
L 309.37935 164.981092 
L 312.317583 163.295408 
L 315.255817 168.898864 
L 318.099268 167.643721 
L 321.037502 165.068783 
L 323.880954 163.734686 
L 326.819187 162.059151 
L 329.757421 164.002814 
L 332.411309 166.288857 
L 335.349543 168.548099 
L 338.192994 169.676917 
L 341.131228 168.452415 
L 343.97468 163.24925 
L 346.912913 161.864059 
L 349.851147 167.941784 
L 352.694599 166.998732 
L 355.632832 165.545011 
L 358.476284 164.420385 
L 361.414517 162.531382 
L 364.352751 163.615179 
L 367.006639 165.845621 
" clip-path="url(#p40c839055c)" style="fill: none; stroke: #d00d43; stroke-width: 1.5; stroke-linecap: round"/>
   </g>
   <g id="line2d_22">
    <path d="M 49.866983 168.495006 
L 52.805216 168.60801 
L 55.459105 168.983695 
L 58.397338 171.1248 
L 61.24079 172.180973 
L 64.179024 173.449517 
L 67.022475 174.33642 
L 69.960709 174.281133 
L 72.898942 174.2731 
L 75.742394 173.1866 
L 78.680628 171.985177 
L 81.524079 172.374967 
L 84.462313 171.156107 
L 87.400546 171.235178 
L 90.054435 172.387741 
L 92.992668 173.341176 
L 95.83612 174.402365 
L 98.774354 175.604454 
L 101.617805 176.433092 
L 104.556039 175.807578 
L 107.494272 175.174227 
L 110.337724 173.729321 
L 113.275958 172.204483 
L 116.11941 172.565474 
L 119.057643 170.670554 
L 121.995877 170.423976 
L 124.649765 170.41951 
L 127.587998 171.320087 
L 130.43145 171.333096 
L 133.369684 172.353025 
L 139.151369 172.529818 
L 142.089603 172.252482 
L 147.871288 169.53437 
L 150.71474 169.915619 
L 153.652973 168.240436 
L 156.591207 168.065445 
L 159.339877 166.998497 
L 162.27811 164.346761 
L 165.121562 164.178627 
L 168.059796 165.229001 
L 170.903247 166.953084 
L 173.841481 167.867768 
L 176.779714 168.722306 
L 179.623166 167.969095 
L 182.5614 167.297462 
L 185.404852 165.196362 
L 188.343085 163.611926 
L 191.281319 165.020353 
L 193.935207 165.981938 
L 196.87344 166.419885 
L 199.716892 166.999359 
L 202.655126 168.606834 
L 205.498578 169.917852 
L 208.436811 170.448975 
L 211.375045 170.674629 
L 214.218496 170.668673 
L 217.15673 170.606333 
L 220.000182 170.929983 
L 222.938415 170.485729 
L 225.876649 170.24256 
L 228.530537 169.978194 
L 231.468771 170.910079 
L 234.312222 171.236667 
L 237.250456 172.140772 
L 240.093908 172.941316 
L 243.032141 172.893356 
L 245.970375 172.520179 
L 248.813826 171.846665 
L 251.75206 171.244896 
L 254.595512 171.24611 
L 257.533745 170.260192 
L 260.471979 170.023763 
L 263.125867 170.206355 
L 266.064101 171.25763 
L 268.907552 171.614899 
L 271.845786 172.19073 
L 274.689238 172.836854 
L 277.627471 172.683336 
L 280.565705 172.556345 
L 283.409157 171.770376 
L 286.34739 170.773095 
L 289.190842 170.879555 
L 292.129075 169.561445 
L 295.067309 169.182704 
L 297.815979 170.071018 
L 300.754213 170.833241 
L 303.597664 171.426782 
L 306.535898 172.20989 
L 309.37935 172.737839 
L 312.317583 172.711469 
L 315.255817 172.766717 
L 318.099268 171.985098 
L 321.037502 170.869603 
L 323.880954 170.547363 
L 326.819187 168.966807 
L 329.757421 168.824808 
L 332.411309 168.18315 
L 335.349543 169.378932 
L 338.192994 169.280073 
L 341.131228 169.580488 
L 343.97468 169.553452 
L 346.912913 169.686164 
L 349.851147 169.477868 
L 352.694599 168.158661 
L 355.632832 167.016286 
L 358.476284 170.046764 
L 361.414517 168.383296 
L 364.352751 168.345916 
L 367.006639 168.635712 
" clip-path="url(#p40c839055c)" style="fill: none; stroke: #e397a0; stroke-width: 1.5; stroke-linecap: round"/>
   </g>
   <g id="patch_3">
    <path d="M 34.01 184.371811 
L 34.01 9.72 
" style="fill: none; stroke: #404040; stroke-linejoin: miter; stroke-linecap: square"/>
   </g>
   <g id="patch_4">
    <path d="M 34.01 184.371811 
L 382.863622 184.371811 
" style="fill: none; stroke: #404040; stroke-linejoin: miter; stroke-linecap: square"/>
   </g>
   <g id="legend_1">
    <g id="line2d_23">
     <path d="M 41.21 20.01125 
L 49.21 20.01125 
L 57.21 20.01125 
" style="fill: none; stroke: #83082a; stroke-width: 2; stroke-linecap: round"/>
    </g>
    <g id="text_20">
     <text style="font-size: 8px; font-family: 'Century Gothic'; text-anchor: start; fill: #262626" x="63.61" y="22.81125" transform="rotate(-0 63.61 22.81125)">Total beneficiarios</text>
    </g>
    <g id="line2d_24">
     <path d="M 41.21 31.4575 
L 49.21 31.4575 
L 57.21 31.4575 
" style="fill: none; stroke: #d00d43; stroke-width: 1.5; stroke-linecap: round"/>
    </g>
    <g id="text_21">
     <text style="font-size: 8px; font-family: 'Century Gothic'; text-anchor: start; fill: #262626" x="63.61" y="34.2575" transform="rotate(-0 63.61 34.2575)">Prestación contributiva</text>
    </g>
    <g id="line2d_25">
     <path d="M 41.21 43.0125 
L 49.21 43.0125 
L 57.21 43.0125 
" style="fill: none; stroke: #e397a0; stroke-width: 1.5; stroke-linecap: round"/>
    </g>
    <g id="text_22">
     <text style="font-size: 8px; font-family: 'Century Gothic'; text-anchor: start; fill: #262626" x="63.61" y="45.8125" transform="rotate(-0 63.61 45.8125)">Subsidios de desempleo</text>
    </g>
    <g id="line2d_26">
     <path d="M 41.21 54.45875 
L 49.21 54.45875 
L 57.21 54.45875 
" style="fill: none; stroke-dasharray: 5.55,2.4; stroke-dashoffset: 0; stroke: #404040; stroke-width: 1.5"/>
    </g>
    <g id="text_23">
     <text style="font-size: 8px; font-family: 'Century Gothic'; text-anchor: start; fill: #262626" x="63.61" y="57.25875" transform="rotate(-0 63.61 57.25875)">Tasa de cobertura</text>
    </g>
   </g>
  </g>
  <g id="axes_2">
   <g id="matplotlib.axis_3">
    <g id="ytick_10">
     <g id="line2d_27">
      <path d="M 34.01 183.785401 
L 382.863622 183.785401 
" clip-path="url(#p40c839055c)" style="fill: none; stroke: #d9d9d9; stroke-width: 0.6; stroke-linecap: round"/>
     </g>
     <g id="line2d_28"/>
     <g id="text_24">
      <text style="font-size: 9px; font-family: 'Century Gothic'; text-anchor: start; fill: #404040" x="386.363622" y="187.099229" transform="rotate(-0 386.363622 187.099229)">50</text>
     </g>
    </g>
    <g id="ytick_11">
     <g id="line2d_29">
      <path d="M 34.01 164.195318 
L 382.863622 164.195318 
" clip-path="url(#p40c839055c)" style="fill: none; stroke: #d9d9d9; stroke-width: 0.6; stroke-linecap: round"/>
     </g>
     <g id="line2d_30"/>
     <g id="text_25">
      <text style="font-size: 9px; font-family: 'Century Gothic'; text-anchor: start; fill: #404040" x="386.363622" y="167.509146" transform="rotate(-0 386.363622 167.509146)">60</text>
     </g>
    </g>
    <g id="ytick_12">
     <g id="line2d_31">
      <path d="M 34.01 144.605234 
L 382.863622 144.605234 
" clip-path="url(#p40c839055c)" style="fill: none; stroke: #d9d9d9; stroke-width: 0.6; stroke-linecap: round"/>
     </g>
     <g id="line2d_32"/>
     <g id="text_26">
      <text style="font-size: 9px; font-family: 'Century Gothic'; text-anchor: start; fill: #404040" x="386.363622" y="147.919062" transform="rotate(-0 386.363622 147.919062)">70</text>
     </g>
    </g>
    <g id="ytick_13">
     <g id="line2d_33">
      <path d="M 34.01 125.01515 
L 382.863622 125.01515 
" clip-path="url(#p40c839055c)" style="fill: none; stroke: #d9d9d9; stroke-width: 0.6; stroke-linecap: round"/>
     </g>
     <g id="line2d_34"/>
     <g id="text_27">
      <text style="font-size: 9px; font-family: 'Century Gothic'; text-anchor: start; fill: #404040" x="386.363622" y="128.328978" transform="rotate(-0 386.363622 128.328978)">80</text>
     </g>
    </g>
    <g id="ytick_14">
     <g id="line2d_35">
      <path d="M 34.01 105.425066 
L 382.863622 105.425066 
" clip-path="url(#p40c839055c)" style="fill: none; stroke: #d9d9d9; stroke-width: 0.6; stroke-linecap: round"/>
     </g>
     <g id="line2d_36"/>
     <g id="text_28">
      <text style="font-size: 9px; font-family: 'Century Gothic'; text-anchor: start; fill: #404040" x="386.363622" y="108.738895" transform="rotate(-0 386.363622 108.738895)">90</text>
     </g>
    </g>
    <g id="ytick_15">
     <g id="line2d_37">
      <path d="M 34.01 85.834983 
L 382.863622 85.834983 
" clip-path="url(#p40c839055c)" style="fill: none; stroke: #d9d9d9; stroke-width: 0.6; stroke-linecap: round"/>
     </g>
     <g id="line2d_38"/>
     <g id="text_29">
      <text style="font-size: 9px; font-family: 'Century Gothic'; text-anchor: start; fill: #404040" x="386.363622" y="89.148811" transform="rotate(-0 386.363622 89.148811)">100</text>
     </g>
    </g>
    <g id="ytick_16">
     <g id="line2d_39">
      <path d="M 34.01 66.244899 
L 382.863622 66.244899 
" clip-path="url(#p40c839055c)" style="fill: none; stroke: #d9d9d9; stroke-width: 0.6; stroke-linecap: round"/>
     </g>
     <g id="line2d_40"/>
     <g id="text_30">
      <text style="font-size: 9px; font-family: 'Century Gothic'; text-anchor: start; fill: #404040" x="386.363622" y="69.558727" transform="rotate(-0 386.363622 69.558727)">110</text>
     </g>
    </g>
    <g id="ytick_17">
     <g id="line2d_41">
      <path d="M 34.01 46.654815 
L 382.863622 46.654815 
" clip-path="url(#p40c839055c)" style="fill: none; stroke: #d9d9d9; stroke-width: 0.6; stroke-linecap: round"/>
     </g>
     <g id="line2d_42"/>
     <g id="text_31">
      <text style="font-size: 9px; font-family: 'Century Gothic'; text-anchor: start; fill: #404040" x="386.363622" y="49.968643" transform="rotate(-0 386.363622 49.968643)">120</text>
     </g>
    </g>
    <g id="ytick_18">
     <g id="line2d_43">
      <path d="M 34.01 27.064732 
L 382.863622 27.064732 
" clip-path="url(#p40c839055c)" style="fill: none; stroke: #d9d9d9; stroke-width: 0.6; stroke-linecap: round"/>
     </g>
     <g id="line2d_44"/>
     <g id="text_32">
      <text style="font-size: 9px; font-family: 'Century Gothic'; text-anchor: start; fill: #404040" x="386.363622" y="30.37856" transform="rotate(-0 386.363622 30.37856)">130</text>
     </g>
    </g>
   </g>
   <g id="line2d_45">
    <path d="M 49.866983 170.994757 
L 52.805216 172.962995 
L 55.459105 174.260815 
L 58.397338 176.433092 
L 61.24079 176.028953 
L 64.179024 172.783315 
L 67.022475 166.591816 
L 69.960709 165.70881 
L 72.898942 174.377095 
L 75.742394 173.329297 
L 78.680628 168.263746 
L 81.524079 166.914927 
L 84.462313 165.773346 
L 87.400546 167.651817 
L 90.054435 171.111252 
L 92.992668 171.47457 
L 95.83612 171.966969 
L 98.774354 169.082618 
L 101.617805 163.99567 
L 104.556039 162.333519 
L 107.494272 170.850516 
L 110.337724 169.797663 
L 113.275958 164.403011 
L 116.11941 163.334592 
L 119.057643 160.538119 
L 121.995877 162.30618 
L 124.649765 165.082743 
L 127.587998 165.911524 
L 130.43145 164.010001 
L 133.369684 161.501123 
L 139.151369 151.990682 
L 142.089603 161.114472 
L 147.871288 154.849349 
L 150.71474 153.723129 
L 153.652973 152.243574 
L 156.591207 154.489878 
L 159.339877 159.429113 
L 162.27811 32.486768 
L 165.121562 17.658719 
L 168.059796 67.798648 
L 170.903247 103.183139 
L 173.841481 120.515503 
L 176.779714 140.88827 
L 179.623166 141.945465 
L 182.5614 152.123035 
L 185.404852 157.721922 
L 188.343085 156.318373 
L 191.281319 158.481295 
L 193.935207 163.297572 
L 196.87344 165.070252 
L 199.716892 166.555622 
L 202.655126 167.884231 
L 205.498578 160.756278 
L 208.436811 158.526944 
L 211.375045 164.755651 
L 214.218496 165.487755 
L 217.15673 162.959954 
L 220.000182 159.045104 
L 222.938415 158.588668 
L 225.876649 159.292626 
L 228.530537 164.58797 
L 231.468771 165.135767 
L 234.312222 162.924423 
L 237.250456 161.015533 
L 240.093908 155.501905 
L 243.032141 154.700376 
L 245.970375 162.197031 
L 248.813826 158.167482 
L 251.75206 151.90537 
L 254.595512 147.244835 
L 257.533745 146.074919 
L 260.471979 148.311567 
L 263.125867 151.245443 
L 266.064101 154.592208 
L 268.907552 154.545947 
L 271.845786 150.125136 
L 274.689238 142.989071 
L 277.627471 141.641458 
L 280.565705 152.30798 
L 283.409157 150.346143 
L 286.34739 142.457811 
L 289.190842 140.340668 
L 292.129075 136.994341 
L 295.067309 138.347027 
L 297.815979 143.885151 
L 300.754213 145.479011 
L 303.597664 145.731529 
L 306.535898 142.762125 
L 309.37935 133.731525 
L 312.317583 131.910295 
L 315.255817 143.341774 
L 318.099268 140.358948 
L 321.037502 132.336273 
L 323.880954 128.773056 
L 326.819187 125.404921 
L 329.757421 129.230707 
L 332.411309 132.214623 
L 335.349543 136.637658 
L 338.192994 135.991731 
L 341.131228 131.29752 
L 343.97468 120.343019 
L 346.912913 120.090868 
L 349.851147 133.047345 
L 352.694599 129.485348 
L 355.632832 122.7485 
L 358.476284 126.80658 
L 361.414517 121.3544 
L 364.352751 123.637574 
L 367.006639 127.425837 
" clip-path="url(#p40c839055c)" style="fill: none; stroke-dasharray: 5.55,2.4; stroke-dashoffset: 0; stroke: #404040; stroke-width: 1.5"/>
   </g>
   <g id="patch_5">
    <path d="M 34.01 184.371811 
L 34.01 9.72 
" style="fill: none; stroke: #404040; stroke-linejoin: miter; stroke-linecap: square"/>
   </g>
   <g id="patch_6">
    <path d="M 34.01 184.371811 
L 382.863622 184.371811 
" style="fill: none; stroke: #404040; stroke-linejoin: miter; stroke-linecap: square"/>
   </g>
  </g>
 </g>
 <defs>
  <clipPath id="p40c839055c">
   <rect x="34.01" y="9.72" width="348.853622" height="174.651811"/>
  </clipPath>
 </defs>
</svg>
