<?xml version="1.0" encoding="utf-8" standalone="no"?>
<!DOCTYPE svg PUBLIC "-//W3C//DTD SVG 1.1//EN"
  "http://www.w3.org/Graphics/SVG/1.1/DTD/svg11.dtd">
<svg xmlns:xlink="http://www.w3.org/1999/xlink" width="427.183594pt" height="211.417031pt" viewBox="0 0 427.183594 211.417031" xmlns="http://www.w3.org/2000/svg" version="1.1">
 <metadata>
  <rdf:RDF xmlns:dc="http://purl.org/dc/elements/1.1/" xmlns:cc="http://creativecommons.org/ns#" xmlns:rdf="http://www.w3.org/1999/02/22-rdf-syntax-ns#">
   <cc:Work>
    <dc:type rdf:resource="http://purl.org/dc/dcmitype/StillImage"/>
    <dc:date>2026-05-11T17:42:47.670942</dc:date>
    <dc:format>image/svg+xml</dc:format>
    <dc:creator>
     <cc:Agent>
      <dc:title>Matplotlib v3.10.8, https://matplotlib.org/</dc:title>
     </cc:Agent>
    </dc:creator>
   </cc:Work>
  </rdf:RDF>
 </metadata>
 <defs>
  <style type="text/css">*{stroke-linejoin: round; stroke-linecap: butt}</style>
 </defs>
 <g id="figure_1">
  <g id="patch_1">
   <path d="M 0 211.417031 
L 427.183594 211.417031 
L 427.183594 0 
L 0 0 
z
" style="fill: #ffffff"/>
  </g>
  <g id="axes_1">
   <g id="patch_2">
    <path d="M 43.119688 192.34 
L 401.519688 192.34 
L 401.519688 7.2 
L 43.119688 7.2 
z
" style="fill: #ffffff"/>
   </g>
   <g id="matplotlib.axis_1">
    <g id="xtick_1">
     <g id="line2d_1"/>
     <g id="text_1">
      <text style="font-size: 9px; font-family: 'Century Gothic'; text-anchor: middle; fill: #404040" x="59.410597" y="202.467656" transform="rotate(-0 59.410597 202.467656)">2017</text>
     </g>
    </g>
    <g id="xtick_2">
     <g id="line2d_2"/>
     <g id="text_2">
      <text style="font-size: 9px; font-family: 'Century Gothic'; text-anchor: middle; fill: #404040" x="94.952628" y="202.467656" transform="rotate(-0 94.952628 202.467656)">2018</text>
     </g>
    </g>
    <g id="xtick_3">
     <g id="line2d_3"/>
     <g id="text_3">
      <text style="font-size: 9px; font-family: 'Century Gothic'; text-anchor: middle; fill: #404040" x="130.494659" y="202.467656" transform="rotate(-0 130.494659 202.467656)">2019</text>
     </g>
    </g>
    <g id="xtick_4">
     <g id="line2d_4"/>
     <g id="text_4">
      <text style="font-size: 9px; font-family: 'Century Gothic'; text-anchor: middle; fill: #404040" x="166.03669" y="202.467656" transform="rotate(-0 166.03669 202.467656)">2020</text>
     </g>
    </g>
    <g id="xtick_5">
     <g id="line2d_5"/>
     <g id="text_5">
      <text style="font-size: 9px; font-family: 'Century Gothic'; text-anchor: middle; fill: #404040" x="201.676097" y="202.467656" transform="rotate(-0 201.676097 202.467656)">2021</text>
     </g>
    </g>
    <g id="xtick_6">
     <g id="line2d_6"/>
     <g id="text_6">
      <text style="font-size: 9px; font-family: 'Century Gothic'; text-anchor: middle; fill: #404040" x="237.218128" y="202.467656" transform="rotate(-0 237.218128 202.467656)">2022</text>
     </g>
    </g>
    <g id="xtick_7">
     <g id="line2d_7"/>
     <g id="text_7">
      <text style="font-size: 9px; font-family: 'Century Gothic'; text-anchor: middle; fill: #404040" x="272.760159" y="202.467656" transform="rotate(-0 272.760159 202.467656)">2023</text>
     </g>
    </g>
    <g id="xtick_8">
     <g id="line2d_8"/>
     <g id="text_8">
      <text style="font-size: 9px; font-family: 'Century Gothic'; text-anchor: middle; fill: #404040" x="308.30219" y="202.467656" transform="rotate(-0 308.30219 202.467656)">2024</text>
     </g>
    </g>
    <g id="xtick_9">
     <g id="line2d_9"/>
     <g id="text_9">
      <text style="font-size: 9px; font-family: 'Century Gothic'; text-anchor: middle; fill: #404040" x="343.941597" y="202.467656" transform="rotate(-0 343.941597 202.467656)">2025</text>
     </g>
    </g>
    <g id="xtick_10">
     <g id="line2d_10"/>
     <g id="text_10">
      <text style="font-size: 9px; font-family: 'Century Gothic'; text-anchor: middle; fill: #404040" x="379.483628" y="202.467656" transform="rotate(-0 379.483628 202.467656)">2026</text>
     </g>
    </g>
   </g>
   <g id="matplotlib.axis_2">
    <g id="ytick_1">
     <g id="line2d_11"/>
     <g id="text_11">
      <text style="font-size: 9px; font-family: 'Century Gothic'; text-anchor: end; fill: #404040" x="39.619688" y="191.04401" transform="rotate(-0 39.619688 191.04401)">500.000</text>
     </g>
    </g>
    <g id="ytick_2">
     <g id="line2d_12"/>
     <g id="text_12">
      <text style="font-size: 9px; font-family: 'Century Gothic'; text-anchor: end; fill: #404040" x="39.619688" y="170.276099" transform="rotate(-0 39.619688 170.276099)">1.0M</text>
     </g>
    </g>
    <g id="ytick_3">
     <g id="line2d_13"/>
     <g id="text_13">
      <text style="font-size: 9px; font-family: 'Century Gothic'; text-anchor: end; fill: #404040" x="39.619688" y="149.508188" transform="rotate(-0 39.619688 149.508188)">1.5M</text>
     </g>
    </g>
    <g id="ytick_4">
     <g id="line2d_14"/>
     <g id="text_14">
      <text style="font-size: 9px; font-family: 'Century Gothic'; text-anchor: end; fill: #404040" x="39.619688" y="128.740277" transform="rotate(-0 39.619688 128.740277)">2.0M</text>
     </g>
    </g>
    <g id="ytick_5">
     <g id="line2d_15"/>
     <g id="text_15">
      <text style="font-size: 9px; font-family: 'Century Gothic'; text-anchor: end; fill: #404040" x="39.619688" y="107.972366" transform="rotate(-0 39.619688 107.972366)">2.5M</text>
     </g>
    </g>
    <g id="ytick_6">
     <g id="line2d_16"/>
     <g id="text_16">
      <text style="font-size: 9px; font-family: 'Century Gothic'; text-anchor: end; fill: #404040" x="39.619688" y="87.204455" transform="rotate(-0 39.619688 87.204455)">3.0M</text>
     </g>
    </g>
    <g id="ytick_7">
     <g id="line2d_17"/>
     <g id="text_17">
      <text style="font-size: 9px; font-family: 'Century Gothic'; text-anchor: end; fill: #404040" x="39.619688" y="66.436544" transform="rotate(-0 39.619688 66.436544)">3.5M</text>
     </g>
    </g>
    <g id="ytick_8">
     <g id="line2d_18"/>
     <g id="text_18">
      <text style="font-size: 9px; font-family: 'Century Gothic'; text-anchor: end; fill: #404040" x="39.619688" y="45.668633" transform="rotate(-0 39.619688 45.668633)">4.0M</text>
     </g>
    </g>
    <g id="ytick_9">
     <g id="line2d_19"/>
     <g id="text_19">
      <text style="font-size: 9px; font-family: 'Century Gothic'; text-anchor: end; fill: #404040" x="39.619688" y="24.900722" transform="rotate(-0 39.619688 24.900722)">4.5M</text>
     </g>
    </g>
   </g>
   <g id="line2d_20">
    <path d="M 59.410597 142.403219 
L 62.429235 144.211024 
L 65.155747 146.594848 
L 68.174385 150.754246 
L 71.095648 152.854463 
L 74.114286 152.83004 
L 77.035549 149.574462 
L 80.054187 147.784434 
L 83.072826 153.431146 
L 85.994088 151.543052 
L 89.012727 148.126897 
L 91.93399 147.684665 
L 94.952628 144.853957 
L 97.971266 146.291471 
L 100.697778 150.102424 
L 103.716416 152.257261 
L 106.637679 154.436895 
L 109.656317 154.077028 
L 112.57758 150.940617 
L 115.596219 148.144591 
L 118.614857 152.923288 
L 121.53612 150.618008 
L 124.554758 146.588244 
L 127.476021 146.307379 
L 130.494659 142.130246 
L 133.513297 143.379643 
L 136.239809 146.153946 
L 139.258447 148.688711 
L 142.17971 149.563912 
L 145.198349 149.538741 
L 151.13825 142.020841 
L 154.156888 147.50577 
L 160.096789 140.477868 
L 163.018052 139.939896 
L 166.03669 136.210104 
L 169.055328 137.992032 
L 171.879216 133.465375 
L 174.897854 28.026026 
L 177.819117 15.615455 
L 180.837755 55.859471 
L 183.759018 86.629 
L 186.777656 99.084015 
L 189.796295 115.638366 
L 192.717557 115.394759 
L 195.736196 122.781988 
L 198.657459 125.918358 
L 201.676097 122.625273 
L 204.694735 123.546704 
L 207.421247 129.097593 
L 210.439885 131.834845 
L 213.361148 136.152037 
L 216.379786 140.699586 
L 219.301049 139.628128 
L 222.319688 139.519263 
L 225.338326 145.325472 
L 228.259589 145.62129 
L 231.278227 145.619172 
L 234.19949 144.292061 
L 237.218128 142.976663 
L 240.236766 143.581881 
L 242.963278 147.014734 
L 245.981916 149.143486 
L 248.903179 150.203439 
L 251.921818 150.177355 
L 254.84308 146.562866 
L 257.861719 144.843906 
L 260.880357 148.940376 
L 263.80162 147.431878 
L 266.820258 144.784385 
L 269.741521 142.949623 
L 272.760159 140.158374 
L 275.778797 141.61246 
L 278.505309 144.914267 
L 281.523948 148.486805 
L 284.445211 149.797925 
L 287.463849 148.781668 
L 290.385112 145.188612 
L 293.40375 143.541135 
L 296.422388 148.911426 
L 299.343651 146.880781 
L 302.362289 143.289095 
L 305.283552 142.488534 
L 308.30219 138.762397 
L 311.320829 139.728479 
L 314.144716 143.660592 
L 317.163354 146.052598 
L 320.084617 147.822813 
L 323.103255 147.661322 
L 326.024518 143.294121 
L 329.043156 141.479255 
L 332.061795 147.477775 
L 334.983058 145.318702 
L 338.001696 141.40665 
L 340.922959 139.650848 
L 343.941597 136.199221 
L 346.960235 138.10908 
L 349.686747 139.852214 
L 352.705385 143.514718 
L 355.626648 144.606529 
L 358.645287 143.626948 
L 361.566549 138.082663 
L 364.585188 136.754971 
L 367.603826 142.976871 
L 370.525089 140.578758 
L 373.543727 137.826761 
L 376.46499 139.847063 
L 379.483628 136.08126 
L 382.502266 137.190515 
L 385.228778 139.862099 
" clip-path="url(#p30d7474633)" style="fill: none; stroke: #83082a; stroke-width: 2; stroke-linecap: round"/>
   </g>
   <g id="line2d_21">
    <path d="M 59.410597 175.391551 
L 62.429235 177.079567 
L 65.155747 179.065145 
L 68.174385 180.954859 
L 71.095648 181.935478 
L 74.114286 180.566333 
L 77.035549 176.370592 
L 80.054187 174.639171 
L 83.072826 180.294398 
L 85.994088 179.558051 
L 89.012727 177.415467 
L 91.93399 176.560037 
L 94.952628 175.021384 
L 97.971266 176.375077 
L 100.697778 178.964255 
L 103.716416 180.1084 
L 106.637679 181.163119 
L 109.656317 179.528976 
L 112.57758 175.514165 
L 115.596219 173.381217 
L 118.614857 178.831298 
L 121.53612 178.057694 
L 124.554758 175.644338 
L 127.476021 174.980803 
L 130.494659 172.812384 
L 133.513297 174.323166 
L 136.239809 177.102204 
L 139.258447 178.682309 
L 142.17971 179.543721 
L 145.198349 178.437373 
L 151.13825 170.732062 
L 154.156888 176.510983 
L 160.096789 172.36442 
L 163.018052 171.422305 
L 166.03669 169.468293 
L 169.055328 171.435721 
L 171.879216 168.040084 
L 174.897854 65.411713 
L 177.819117 53.179372 
L 180.837755 92.309938 
L 183.759018 121.25185 
L 186.777656 132.737252 
L 189.796295 148.385748 
L 192.717557 148.940584 
L 195.736196 157.039778 
L 198.657459 162.403424 
L 201.676097 160.789923 
L 204.694735 160.218349 
L 207.421247 164.749907 
L 210.439885 167.022913 
L 213.361148 170.725832 
L 216.379786 173.569374 
L 219.301049 171.108169 
L 222.319688 170.436286 
L 225.338326 176.00329 
L 228.259589 176.305422 
L 231.278227 176.369387 
L 234.19949 174.69919 
L 237.218128 173.854725 
L 240.236766 174.717715 
L 242.963278 178.43081 
L 245.981916 179.571716 
L 248.903179 180.285467 
L 251.921818 179.300985 
L 254.84308 174.837878 
L 257.861719 173.169758 
L 260.880357 177.661816 
L 263.80162 176.867277 
L 266.820258 174.857691 
L 269.741521 173.021641 
L 272.760159 171.275517 
L 275.778797 172.98023 
L 278.505309 176.08848 
L 281.523948 178.546612 
L 284.445211 179.479008 
L 287.463849 177.852341 
L 290.385112 173.574359 
L 293.40375 172.089619 
L 296.422388 177.594528 
L 299.343651 176.39705 
L 302.362289 173.862534 
L 305.283552 172.94912 
L 308.30219 170.620248 
L 311.320829 171.987815 
L 314.144716 174.978269 
L 317.163354 176.562279 
L 320.084617 177.70331 
L 323.103255 176.711684 
L 326.024518 171.784829 
L 329.043156 169.997917 
L 332.061795 175.937871 
L 334.983058 174.607354 
L 338.001696 171.877786 
L 340.922959 170.463575 
L 343.941597 168.68742 
L 346.960235 170.747804 
L 349.686747 173.171129 
L 352.705385 175.566043 
L 355.626648 176.762648 
L 358.645287 175.464612 
L 361.566549 169.948987 
L 364.585188 168.480613 
L 367.603826 174.923317 
L 370.525089 173.923633 
L 373.543727 172.382613 
L 376.46499 171.190452 
L 379.483628 169.18801 
L 382.502266 170.33689 
L 385.228778 172.701276 
" clip-path="url(#p30d7474633)" style="fill: none; stroke: #d00d43; stroke-width: 1.5; stroke-linecap: round"/>
   </g>
   <g id="line2d_22">
    <path d="M 59.410597 175.509762 
L 62.429235 175.629551 
L 65.155747 176.027796 
L 68.174385 178.29748 
L 71.095648 179.417078 
L 74.114286 180.7618 
L 77.035549 181.701964 
L 80.054187 181.643357 
L 83.072826 181.634842 
L 85.994088 180.483095 
L 89.012727 179.209524 
L 91.93399 179.622722 
L 94.952628 178.330667 
L 97.971266 178.414486 
L 100.697778 179.636263 
L 103.716416 180.646954 
L 106.637679 181.771868 
L 109.656317 183.046146 
L 112.57758 183.924545 
L 115.596219 183.261468 
L 118.614857 182.590083 
L 121.53612 181.058408 
L 124.554758 179.442 
L 127.476021 179.824669 
L 130.494659 177.815955 
L 133.513297 177.55457 
L 136.239809 177.549835 
L 139.258447 178.504494 
L 142.17971 178.518284 
L 145.198349 179.599462 
L 151.13825 179.786871 
L 154.156888 179.492881 
L 160.096789 176.611541 
L 163.018052 177.015684 
L 166.03669 175.239903 
L 169.055328 175.054404 
L 171.879216 173.923384 
L 174.897854 171.112406 
L 177.819117 170.934176 
L 180.837755 172.047626 
L 183.759018 173.875244 
L 186.777656 174.844856 
L 189.796295 175.750711 
L 192.717557 174.952268 
L 195.736196 174.240302 
L 198.657459 172.013027 
L 201.676097 170.333443 
L 204.694735 171.826448 
L 207.421247 172.845779 
L 210.439885 173.310025 
L 213.361148 173.924298 
L 216.379786 175.628305 
L 219.301049 177.018052 
L 222.319688 177.58107 
L 225.338326 177.820275 
L 228.259589 177.813961 
L 231.278227 177.747878 
L 234.19949 178.090964 
L 237.218128 177.620031 
L 240.236766 177.362259 
L 242.963278 177.082017 
L 245.981916 178.069864 
L 248.903179 178.416065 
L 251.921818 179.374462 
L 254.84308 180.223081 
L 257.861719 180.172241 
L 260.880357 179.776654 
L 263.80162 179.062694 
L 266.820258 178.424787 
L 269.741521 178.426075 
L 272.760159 177.38095 
L 275.778797 177.130323 
L 278.505309 177.32388 
L 281.523948 178.438286 
L 284.445211 178.81701 
L 287.463849 179.42742 
L 290.385112 180.112346 
L 293.40375 179.949609 
L 296.422388 179.814991 
L 299.343651 178.981824 
L 302.362289 177.924654 
L 305.283552 178.037507 
L 308.30219 176.640242 
L 311.320829 176.238757 
L 314.144716 177.180416 
L 317.163354 177.988412 
L 320.084617 178.617597 
L 323.103255 179.447731 
L 326.024518 180.007385 
L 329.043156 179.979432 
L 332.061795 180.037997 
L 334.983058 179.20944 
L 338.001696 178.026957 
L 340.922959 177.685367 
L 343.941597 176.009895 
L 346.960235 175.859369 
L 349.686747 175.179178 
L 352.705385 176.446768 
L 355.626648 176.341973 
L 358.645287 176.660429 
L 361.566549 176.631769 
L 364.585188 176.772451 
L 367.603826 176.551646 
L 370.525089 175.153218 
L 373.543727 173.942241 
L 376.46499 177.154705 
L 379.483628 175.391343 
L 382.502266 175.351718 
L 385.228778 175.658917 
" clip-path="url(#p30d7474633)" style="fill: none; stroke: #e397a0; stroke-width: 1.5; stroke-linecap: round"/>
   </g>
   <g id="patch_3">
    <path d="M 43.119688 192.34 
L 43.119688 7.2 
" style="fill: none; stroke: #404040; stroke-linejoin: miter; stroke-linecap: square"/>
   </g>
   <g id="patch_4">
    <path d="M 43.119688 192.34 
L 401.519688 192.34 
" style="fill: none; stroke: #404040; stroke-linejoin: miter; stroke-linecap: square"/>
   </g>
   <g id="legend_1">
    <g id="line2d_23">
     <path d="M 50.319688 17.49125 
L 58.319688 17.49125 
L 66.319688 17.49125 
" style="fill: none; stroke: #83082a; stroke-width: 2; stroke-linecap: round"/>
    </g>
    <g id="text_20">
     <text style="font-size: 8px; font-family: 'Century Gothic'; text-anchor: start; fill: #262626" x="72.719688" y="20.29125" transform="rotate(-0 72.719688 20.29125)">Total beneficiarios</text>
    </g>
    <g id="line2d_24">
     <path d="M 50.319688 28.9375 
L 58.319688 28.9375 
L 66.319688 28.9375 
" style="fill: none; stroke: #d00d43; stroke-width: 1.5; stroke-linecap: round"/>
    </g>
    <g id="text_21">
     <text style="font-size: 8px; font-family: 'Century Gothic'; text-anchor: start; fill: #262626" x="72.719688" y="31.7375" transform="rotate(-0 72.719688 31.7375)">Prestación contributiva</text>
    </g>
    <g id="line2d_25">
     <path d="M 50.319688 40.4925 
L 58.319688 40.4925 
L 66.319688 40.4925 
" style="fill: none; stroke: #e397a0; stroke-width: 1.5; stroke-linecap: round"/>
    </g>
    <g id="text_22">
     <text style="font-size: 8px; font-family: 'Century Gothic'; text-anchor: start; fill: #262626" x="72.719688" y="43.2925" transform="rotate(-0 72.719688 43.2925)">Subsidios de desempleo</text>
    </g>
    <g id="line2d_26">
     <path d="M 50.319688 51.93875 
L 58.319688 51.93875 
L 66.319688 51.93875 
" style="fill: none; stroke-dasharray: 5.55,2.4; stroke-dashoffset: 0; stroke: #404040; stroke-width: 1.5"/>
    </g>
    <g id="text_23">
     <text style="font-size: 8px; font-family: 'Century Gothic'; text-anchor: start; fill: #262626" x="72.719688" y="54.73875" transform="rotate(-0 72.719688 54.73875)">Tasa de cobertura</text>
    </g>
   </g>
  </g>
  <g id="axes_2">
   <g id="matplotlib.axis_3">
    <g id="ytick_10">
     <g id="line2d_27">
      <path d="M 43.119688 191.718375 
L 401.519688 191.718375 
" clip-path="url(#p30d7474633)" style="fill: none; stroke: #d9d9d9; stroke-width: 0.6; stroke-linecap: round"/>
     </g>
     <g id="line2d_28"/>
     <g id="text_24">
      <text style="font-size: 9px; font-family: 'Century Gothic'; text-anchor: start; fill: #404040" x="405.019688" y="195.032203" transform="rotate(-0 405.019688 195.032203)">50</text>
     </g>
    </g>
    <g id="ytick_11">
     <g id="line2d_29">
      <path d="M 43.119688 170.951868 
L 401.519688 170.951868 
" clip-path="url(#p30d7474633)" style="fill: none; stroke: #d9d9d9; stroke-width: 0.6; stroke-linecap: round"/>
     </g>
     <g id="line2d_30"/>
     <g id="text_25">
      <text style="font-size: 9px; font-family: 'Century Gothic'; text-anchor: start; fill: #404040" x="405.019688" y="174.265696" transform="rotate(-0 405.019688 174.265696)">60</text>
     </g>
    </g>
    <g id="ytick_12">
     <g id="line2d_31">
      <path d="M 43.119688 150.185361 
L 401.519688 150.185361 
" clip-path="url(#p30d7474633)" style="fill: none; stroke: #d9d9d9; stroke-width: 0.6; stroke-linecap: round"/>
     </g>
     <g id="line2d_32"/>
     <g id="text_26">
      <text style="font-size: 9px; font-family: 'Century Gothic'; text-anchor: start; fill: #404040" x="405.019688" y="153.499189" transform="rotate(-0 405.019688 153.499189)">70</text>
     </g>
    </g>
    <g id="ytick_13">
     <g id="line2d_33">
      <path d="M 43.119688 129.418854 
L 401.519688 129.418854 
" clip-path="url(#p30d7474633)" style="fill: none; stroke: #d9d9d9; stroke-width: 0.6; stroke-linecap: round"/>
     </g>
     <g id="line2d_34"/>
     <g id="text_27">
      <text style="font-size: 9px; font-family: 'Century Gothic'; text-anchor: start; fill: #404040" x="405.019688" y="132.732682" transform="rotate(-0 405.019688 132.732682)">80</text>
     </g>
    </g>
    <g id="ytick_14">
     <g id="line2d_35">
      <path d="M 43.119688 108.652346 
L 401.519688 108.652346 
" clip-path="url(#p30d7474633)" style="fill: none; stroke: #d9d9d9; stroke-width: 0.6; stroke-linecap: round"/>
     </g>
     <g id="line2d_36"/>
     <g id="text_28">
      <text style="font-size: 9px; font-family: 'Century Gothic'; text-anchor: start; fill: #404040" x="405.019688" y="111.966174" transform="rotate(-0 405.019688 111.966174)">90</text>
     </g>
    </g>
    <g id="ytick_15">
     <g id="line2d_37">
      <path d="M 43.119688 87.885839 
L 401.519688 87.885839 
" clip-path="url(#p30d7474633)" style="fill: none; stroke: #d9d9d9; stroke-width: 0.6; stroke-linecap: round"/>
     </g>
     <g id="line2d_38"/>
     <g id="text_29">
      <text style="font-size: 9px; font-family: 'Century Gothic'; text-anchor: start; fill: #404040" x="405.019688" y="91.199667" transform="rotate(-0 405.019688 91.199667)">100</text>
     </g>
    </g>
    <g id="ytick_16">
     <g id="line2d_39">
      <path d="M 43.119688 67.119332 
L 401.519688 67.119332 
" clip-path="url(#p30d7474633)" style="fill: none; stroke: #d9d9d9; stroke-width: 0.6; stroke-linecap: round"/>
     </g>
     <g id="line2d_40"/>
     <g id="text_30">
      <text style="font-size: 9px; font-family: 'Century Gothic'; text-anchor: start; fill: #404040" x="405.019688" y="70.43316" transform="rotate(-0 405.019688 70.43316)">110</text>
     </g>
    </g>
    <g id="ytick_17">
     <g id="line2d_41">
      <path d="M 43.119688 46.352825 
L 401.519688 46.352825 
" clip-path="url(#p30d7474633)" style="fill: none; stroke: #d9d9d9; stroke-width: 0.6; stroke-linecap: round"/>
     </g>
     <g id="line2d_42"/>
     <g id="text_31">
      <text style="font-size: 9px; font-family: 'Century Gothic'; text-anchor: start; fill: #404040" x="405.019688" y="49.666653" transform="rotate(-0 405.019688 49.666653)">120</text>
     </g>
    </g>
    <g id="ytick_18">
     <g id="line2d_43">
      <path d="M 43.119688 25.586317 
L 401.519688 25.586317 
" clip-path="url(#p30d7474633)" style="fill: none; stroke: #d9d9d9; stroke-width: 0.6; stroke-linecap: round"/>
     </g>
     <g id="line2d_44"/>
     <g id="text_32">
      <text style="font-size: 9px; font-family: 'Century Gothic'; text-anchor: start; fill: #404040" x="405.019688" y="28.900145" transform="rotate(-0 405.019688 28.900145)">130</text>
     </g>
    </g>
   </g>
   <g id="line2d_45">
    <path d="M 59.410597 178.159628 
L 62.429235 180.246062 
L 65.155747 181.621818 
L 68.174385 183.924545 
L 71.095648 183.496137 
L 74.114286 180.055591 
L 77.035549 173.492281 
L 80.054187 172.556249 
L 83.072826 181.745082 
L 85.994088 180.634361 
L 89.012727 175.264614 
L 91.93399 173.834795 
L 94.952628 172.624661 
L 97.971266 174.615938 
L 100.697778 178.283118 
L 103.716416 178.668254 
L 106.637679 179.190222 
L 109.656317 176.13266 
L 112.57758 170.740231 
L 115.596219 168.978265 
L 118.614857 178.006724 
L 121.53612 176.890646 
L 124.554758 171.172034 
L 127.476021 170.039454 
L 130.494659 167.075048 
L 133.513297 168.949284 
L 136.239809 171.892585 
L 139.258447 172.771136 
L 142.17971 170.755423 
L 145.198349 168.095881 
L 151.13825 158.01432 
L 154.156888 167.686012 
L 160.096789 161.044655 
L 163.018052 159.850804 
L 166.03669 158.282398 
L 169.055328 160.663598 
L 171.879216 165.899443 
L 174.897854 31.333958 
L 177.819117 15.615455 
L 180.837755 68.766387 
L 183.759018 106.275787 
L 186.777656 124.648994 
L 189.796295 146.245185 
L 192.717557 147.365868 
L 195.736196 158.154621 
L 198.657459 164.089733 
L 201.676097 162.601898 
L 204.694735 164.894707 
L 207.421247 170.000211 
L 210.439885 171.879344 
L 213.361148 173.453913 
L 216.379786 174.862308 
L 219.301049 167.306307 
L 222.319688 164.943097 
L 225.338326 171.54585 
L 228.259589 172.321919 
L 231.278227 169.642319 
L 234.19949 165.492374 
L 237.218128 165.008528 
L 240.236766 165.75476 
L 242.963278 171.3681 
L 245.981916 171.948793 
L 248.903179 169.604653 
L 251.921818 167.581131 
L 254.84308 161.736399 
L 257.861719 160.886736 
L 260.880357 168.83358 
L 263.80162 164.562049 
L 266.820258 157.923885 
L 269.741521 152.983475 
L 272.760159 151.743303 
L 275.778797 154.114267 
L 278.505309 157.224328 
L 281.523948 160.772072 
L 284.445211 160.723033 
L 287.463849 156.036744 
L 290.385112 148.472144 
L 293.40375 147.043604 
L 296.422388 158.350672 
L 299.343651 156.271023 
L 302.362289 147.908981 
L 305.283552 145.664699 
L 308.30219 142.117419 
L 311.320829 143.551336 
L 314.144716 149.422035 
L 317.163354 151.11161 
L 320.084617 151.379292 
L 323.103255 148.23157 
L 326.024518 138.658664 
L 329.043156 136.728065 
L 332.061795 148.846028 
L 334.983058 145.684077 
L 338.001696 137.179624 
L 340.922959 133.402429 
L 343.941597 129.832031 
L 346.960235 133.887563 
L 349.686747 137.050669 
L 352.705385 141.739316 
L 355.626648 141.0546 
L 358.645287 136.078492 
L 361.566549 124.466152 
L 364.585188 124.198859 
L 367.603826 137.933397 
L 370.525089 134.157496 
L 373.543727 127.016087 
L 376.46499 131.317862 
L 379.483628 125.538268 
L 382.502266 127.958551 
L 385.228778 131.974307 
" clip-path="url(#p30d7474633)" style="fill: none; stroke-dasharray: 5.55,2.4; stroke-dashoffset: 0; stroke: #404040; stroke-width: 1.5"/>
   </g>
   <g id="patch_5">
    <path d="M 43.119688 192.34 
L 43.119688 7.2 
" style="fill: none; stroke: #404040; stroke-linejoin: miter; stroke-linecap: square"/>
   </g>
   <g id="patch_6">
    <path d="M 43.119688 192.34 
L 401.519688 192.34 
" style="fill: none; stroke: #404040; stroke-linejoin: miter; stroke-linecap: square"/>
   </g>
  </g>
 </g>
 <defs>
  <clipPath id="p30d7474633">
   <rect x="43.119688" y="7.2" width="358.4" height="185.14"/>
  </clipPath>
 </defs>
</svg>
