<?xml version="1.0" encoding="utf-8" standalone="no"?>
<!DOCTYPE svg PUBLIC "-//W3C//DTD SVG 1.1//EN"
  "http://www.w3.org/Graphics/SVG/1.1/DTD/svg11.dtd">
<svg xmlns:xlink="http://www.w3.org/1999/xlink" width="426.983906pt" height="211.316934pt" viewBox="0 0 426.983906 211.316934" xmlns="http://www.w3.org/2000/svg" version="1.1">
 <metadata>
  <rdf:RDF xmlns:dc="http://purl.org/dc/elements/1.1/" xmlns:cc="http://creativecommons.org/ns#" xmlns:rdf="http://www.w3.org/1999/02/22-rdf-syntax-ns#">
   <cc:Work>
    <dc:type rdf:resource="http://purl.org/dc/dcmitype/StillImage"/>
    <dc:date>2026-05-12T12:35:23.784003</dc:date>
    <dc:format>image/svg+xml</dc:format>
    <dc:creator>
     <cc:Agent>
      <dc:title>Matplotlib v3.10.8, https://matplotlib.org/</dc:title>
     </cc:Agent>
    </dc:creator>
   </cc:Work>
  </rdf:RDF>
 </metadata>
 <defs>
  <style type="text/css">*{stroke-linejoin: round; stroke-linecap: butt}</style>
 </defs>
 <g id="figure_1">
  <g id="patch_1">
   <path d="M 0 211.316934 
L 426.983906 211.316934 
L 426.983906 0 
L 0 0 
z
" style="fill: #ffffff"/>
  </g>
  <g id="axes_1">
   <g id="patch_2">
    <path d="M 25.663906 192.239903 
L 419.783906 192.239903 
L 419.783906 8.663575 
L 25.663906 8.663575 
z
" style="fill: #ffffff"/>
   </g>
   <g id="matplotlib.axis_1">
    <g id="xtick_1">
     <g id="line2d_1"/>
     <g id="text_1">
      <text style="font-size: 9px; font-family: 'Century Gothic'; text-anchor: middle; fill: #404040" x="43.578452" y="202.367559" transform="rotate(-0 43.578452 202.367559)">2017</text>
     </g>
    </g>
    <g id="xtick_2">
     <g id="line2d_2"/>
     <g id="text_2">
      <text style="font-size: 9px; font-family: 'Century Gothic'; text-anchor: middle; fill: #404040" x="82.662786" y="202.367559" transform="rotate(-0 82.662786 202.367559)">2018</text>
     </g>
    </g>
    <g id="xtick_3">
     <g id="line2d_3"/>
     <g id="text_3">
      <text style="font-size: 9px; font-family: 'Century Gothic'; text-anchor: middle; fill: #404040" x="121.74712" y="202.367559" transform="rotate(-0 121.74712 202.367559)">2019</text>
     </g>
    </g>
    <g id="xtick_4">
     <g id="line2d_4"/>
     <g id="text_4">
      <text style="font-size: 9px; font-family: 'Century Gothic'; text-anchor: middle; fill: #404040" x="160.831454" y="202.367559" transform="rotate(-0 160.831454 202.367559)">2020</text>
     </g>
    </g>
    <g id="xtick_5">
     <g id="line2d_5"/>
     <g id="text_5">
      <text style="font-size: 9px; font-family: 'Century Gothic'; text-anchor: middle; fill: #404040" x="200.022868" y="202.367559" transform="rotate(-0 200.022868 202.367559)">2021</text>
     </g>
    </g>
    <g id="xtick_6">
     <g id="line2d_6"/>
     <g id="text_6">
      <text style="font-size: 9px; font-family: 'Century Gothic'; text-anchor: middle; fill: #404040" x="239.107202" y="202.367559" transform="rotate(-0 239.107202 202.367559)">2022</text>
     </g>
    </g>
    <g id="xtick_7">
     <g id="line2d_7"/>
     <g id="text_7">
      <text style="font-size: 9px; font-family: 'Century Gothic'; text-anchor: middle; fill: #404040" x="278.191537" y="202.367559" transform="rotate(-0 278.191537 202.367559)">2023</text>
     </g>
    </g>
    <g id="xtick_8">
     <g id="line2d_8"/>
     <g id="text_8">
      <text style="font-size: 9px; font-family: 'Century Gothic'; text-anchor: middle; fill: #404040" x="317.275871" y="202.367559" transform="rotate(-0 317.275871 202.367559)">2024</text>
     </g>
    </g>
    <g id="xtick_9">
     <g id="line2d_9"/>
     <g id="text_9">
      <text style="font-size: 9px; font-family: 'Century Gothic'; text-anchor: middle; fill: #404040" x="356.467285" y="202.367559" transform="rotate(-0 356.467285 202.367559)">2025</text>
     </g>
    </g>
    <g id="xtick_10">
     <g id="line2d_10"/>
     <g id="text_10">
      <text style="font-size: 9px; font-family: 'Century Gothic'; text-anchor: middle; fill: #404040" x="395.551619" y="202.367559" transform="rotate(-0 395.551619 202.367559)">2026</text>
     </g>
    </g>
   </g>
   <g id="matplotlib.axis_2">
    <g id="ytick_1">
     <g id="line2d_11"/>
     <g id="text_11">
      <text style="font-size: 9px; font-family: 'Century Gothic'; text-anchor: end; fill: #404040" x="22.163906" y="172.742777" transform="rotate(-0 22.163906 172.742777)">100</text>
     </g>
    </g>
    <g id="ytick_2">
     <g id="line2d_12"/>
     <g id="text_12">
      <text style="font-size: 9px; font-family: 'Century Gothic'; text-anchor: end; fill: #404040" x="22.163906" y="133.013997" transform="rotate(-0 22.163906 133.013997)">150</text>
     </g>
    </g>
    <g id="ytick_3">
     <g id="line2d_13"/>
     <g id="text_13">
      <text style="font-size: 9px; font-family: 'Century Gothic'; text-anchor: end; fill: #404040" x="22.163906" y="93.285217" transform="rotate(-0 22.163906 93.285217)">200</text>
     </g>
    </g>
    <g id="ytick_4">
     <g id="line2d_14"/>
     <g id="text_14">
      <text style="font-size: 9px; font-family: 'Century Gothic'; text-anchor: end; fill: #404040" x="22.163906" y="53.556436" transform="rotate(-0 22.163906 53.556436)">250</text>
     </g>
    </g>
    <g id="ytick_5">
     <g id="line2d_15"/>
     <g id="text_15">
      <text style="font-size: 9px; font-family: 'Century Gothic'; text-anchor: end; fill: #404040" x="22.163906" y="13.827656" transform="rotate(-0 22.163906 13.827656)">300</text>
     </g>
    </g>
   </g>
   <g id="line2d_16">
    <path d="M 25.663906 169.428949 
L 419.783906 169.428949 
" clip-path="url(#p8e9180b3f3)" style="fill: none; stroke-dasharray: 1,1.65; stroke-dashoffset: 0; stroke: #8a94a6"/>
   </g>
   <g id="line2d_17">
    <path d="M 43.578452 169.428949 
L 46.897943 171.602246 
L 49.896193 174.468018 
L 53.215685 179.468338 
L 56.428096 181.993165 
L 59.747587 181.963805 
L 62.959998 178.050033 
L 66.27949 175.898107 
L 69.598981 182.686439 
L 72.811392 180.416621 
L 76.130883 176.309807 
L 79.343294 175.778167 
L 82.662786 172.375163 
L 85.982277 174.103305 
L 88.980527 178.684735 
L 92.300019 181.275224 
L 95.51243 183.895524 
L 98.831921 183.462902 
L 102.044332 179.692389 
L 105.363824 176.331079 
L 108.683315 182.075905 
L 111.895726 179.304557 
L 115.215217 174.460078 
L 118.427628 174.122429 
L 121.74712 169.100787 
L 125.066611 170.602781 
L 128.064862 173.937976 
L 131.384353 176.985205 
L 134.596764 178.03735 
L 137.916255 178.00709 
L 144.448158 168.969263 
L 147.767649 175.563105 
L 154.299552 167.114341 
L 157.511963 166.467604 
L 160.831454 161.983744 
L 164.150945 164.125933 
L 167.256276 158.684102 
L 170.575767 31.927623 
L 173.788178 17.007953 
L 177.10767 65.388277 
L 180.320081 102.378615 
L 183.639572 117.351714 
L 186.959064 137.25293 
L 190.171475 136.960071 
L 193.490966 145.840808 
L 196.703377 149.611271 
L 200.022868 145.65241 
L 203.34236 146.76013 
L 206.34061 153.433266 
L 209.660101 156.72392 
L 212.872512 161.913937 
L 216.192004 167.380885 
L 219.404415 166.092805 
L 222.723906 165.96193 
L 226.043398 172.942006 
L 229.255809 173.297631 
L 232.5753 173.295084 
L 235.787711 171.699665 
L 239.107202 170.118328 
L 242.426694 170.845906 
L 245.424944 174.972793 
L 248.744436 177.531925 
L 251.956847 178.806173 
L 255.276338 178.774814 
L 258.488749 174.429569 
L 261.80824 172.363079 
L 265.127732 177.287751 
L 268.340143 175.474273 
L 271.659634 172.291525 
L 274.872045 170.085821 
L 278.191537 166.730254 
L 281.511028 168.478319 
L 284.509278 172.447666 
L 287.82877 176.742479 
L 291.041181 178.318674 
L 294.360672 177.096956 
L 297.573083 172.777476 
L 300.892574 170.796921 
L 304.212066 177.252947 
L 307.424477 174.811758 
L 310.743968 170.493926 
L 313.956379 169.531512 
L 317.275871 165.052045 
L 320.595362 166.213444 
L 323.700693 170.94053 
L 327.020184 173.816138 
L 330.232595 175.944246 
L 333.552086 175.750105 
L 336.764497 170.499968 
L 340.083989 168.318182 
L 343.40348 175.52945 
L 346.615891 172.933867 
L 349.935383 168.230899 
L 353.147794 166.120119 
L 356.467285 161.970662 
L 359.786776 164.266645 
L 362.785027 166.362195 
L 366.104518 170.765164 
L 369.316929 172.07771 
L 372.636421 170.900084 
L 375.848832 164.234887 
L 379.168323 162.638769 
L 382.487814 170.118578 
L 385.700225 167.235629 
L 389.019717 163.927248 
L 392.232128 166.356004 
L 395.551619 161.828851 
L 398.871111 163.16237 
L 401.869361 166.374079 
" clip-path="url(#p8e9180b3f3)" style="fill: none; stroke: #83082a; stroke-width: 2; stroke-linecap: round"/>
   </g>
   <g id="line2d_18">
    <path d="M 43.578452 169.428949 
L 46.897943 170.841174 
L 49.896193 171.77237 
L 53.215685 173.330996 
L 56.428096 173.041023 
L 59.747587 170.712252 
L 62.959998 166.269804 
L 66.27949 165.636241 
L 69.598981 171.855802 
L 72.811392 171.103998 
L 76.130883 167.469427 
L 79.343294 166.501639 
L 82.662786 165.682546 
L 85.982277 167.030364 
L 88.980527 169.512535 
L 92.300019 169.773218 
L 95.51243 170.126518 
L 98.831921 168.056974 
L 102.044332 164.40705 
L 105.363824 163.214444 
L 108.683315 169.325454 
L 111.895726 168.570024 
L 115.215217 164.69932 
L 118.427628 163.932722 
L 121.74712 161.926231 
L 125.066611 163.194828 
L 128.064862 165.187033 
L 131.384353 165.78169 
L 134.596764 164.417333 
L 137.916255 162.617193 
L 144.448158 155.793379 
L 147.767649 162.339768 
L 154.299552 157.844494 
L 157.511963 157.036423 
L 160.831454 155.974831 
L 164.150945 157.586572 
L 167.256276 161.13051 
L 170.575767 70.048406 
L 173.788178 59.409167 
L 177.10767 95.38495 
L 180.320081 120.773594 
L 183.639572 133.209697 
L 186.959064 147.827313 
L 190.171475 148.585859 
L 193.490966 155.888343 
L 196.703377 159.905588 
L 200.022868 158.898531 
L 203.34236 160.450444 
L 206.34061 163.906159 
L 209.660101 165.178071 
L 212.872512 166.243835 
L 216.192004 167.197122 
L 219.404415 162.082761 
L 222.723906 160.483197 
L 226.043398 164.952342 
L 229.255809 165.477633 
L 232.5753 163.663916 
L 235.787711 160.854981 
L 239.107202 160.527485 
L 242.426694 161.03258 
L 245.424944 164.83203 
L 248.744436 165.225078 
L 251.956847 163.638422 
L 255.276338 162.268779 
L 258.488749 158.312709 
L 261.80824 157.737605 
L 265.127732 163.116512 
L 268.340143 160.225281 
L 271.659634 155.732167 
L 274.872045 152.388198 
L 278.191537 151.548774 
L 281.511028 153.153586 
L 284.509278 155.258665 
L 287.82877 157.659994 
L 291.041181 157.626801 
L 294.360672 154.454835 
L 297.573083 149.334655 
L 300.892574 148.367731 
L 304.212066 156.021043 
L 307.424477 154.61341 
L 310.743968 148.953471 
L 313.956379 147.434405 
L 317.275871 145.03339 
L 320.595362 146.003952 
L 323.700693 149.977598 
L 327.020184 151.121205 
L 330.232595 151.302389 
L 333.552086 149.171819 
L 336.764497 142.692294 
L 340.083989 141.385547 
L 343.40348 149.587721 
L 346.615891 147.447521 
L 349.935383 141.69119 
L 353.147794 139.134555 
L 356.467285 136.717892 
L 359.786776 139.462923 
L 362.785027 141.603905 
L 366.104518 144.777467 
L 369.316929 144.314009 
L 372.636421 140.945877 
L 375.848832 133.085939 
L 379.168323 132.905019 
L 382.487814 142.20139 
L 385.700225 139.64563 
L 389.019717 134.81189 
L 392.232128 137.723593 
L 395.551619 133.811612 
L 398.871111 135.449807 
L 401.869361 138.167915 
" clip-path="url(#p8e9180b3f3)" style="fill: none; stroke: #404040; stroke-width: 1.5; stroke-linecap: round"/>
   </g>
   <g id="patch_3">
    <path d="M 25.663906 192.239903 
L 25.663906 8.663575 
" style="fill: none; stroke: #404040; stroke-linejoin: miter; stroke-linecap: square"/>
   </g>
   <g id="patch_4">
    <path d="M 25.663906 192.239903 
L 419.783906 192.239903 
" style="fill: none; stroke: #404040; stroke-linejoin: miter; stroke-linecap: square"/>
   </g>
   <g id="legend_1">
    <g id="line2d_19">
     <path d="M 32.863906 18.954825 
L 40.863906 18.954825 
L 48.863906 18.954825 
" style="fill: none; stroke: #83082a; stroke-width: 2; stroke-linecap: round"/>
    </g>
    <g id="text_16">
     <text style="font-size: 8px; font-family: 'Century Gothic'; text-anchor: start; fill: #262626" x="55.263906" y="21.754825" transform="rotate(-0 55.263906 21.754825)">Beneficiarios</text>
    </g>
    <g id="line2d_20">
     <path d="M 32.863906 30.401075 
L 40.863906 30.401075 
L 48.863906 30.401075 
" style="fill: none; stroke: #404040; stroke-width: 1.5; stroke-linecap: round"/>
    </g>
    <g id="text_17">
     <text style="font-size: 8px; font-family: 'Century Gothic'; text-anchor: start; fill: #262626" x="55.263906" y="33.201075" transform="rotate(-0 55.263906 33.201075)">Tasa de cobertura</text>
    </g>
   </g>
  </g>
 </g>
 <defs>
  <clipPath id="p8e9180b3f3">
   <rect x="25.663906" y="8.663575" width="394.12" height="183.576328"/>
  </clipPath>
 </defs>
</svg>
