<?xml version="1.0" encoding="utf-8" standalone="no"?>
<!DOCTYPE svg PUBLIC "-//W3C//DTD SVG 1.1//EN"
  "http://www.w3.org/Graphics/SVG/1.1/DTD/svg11.dtd">
<svg xmlns:xlink="http://www.w3.org/1999/xlink" width="411.023622pt" height="205.511811pt" viewBox="0 0 411.023622 205.511811" xmlns="http://www.w3.org/2000/svg" version="1.1">
 <metadata>
  <rdf:RDF xmlns:dc="http://purl.org/dc/elements/1.1/" xmlns:cc="http://creativecommons.org/ns#" xmlns:rdf="http://www.w3.org/1999/02/22-rdf-syntax-ns#">
   <cc:Work>
    <dc:type rdf:resource="http://purl.org/dc/dcmitype/StillImage"/>
    <dc:date>2026-05-12T18:56:26.852611</dc:date>
    <dc:format>image/svg+xml</dc:format>
    <dc:creator>
     <cc:Agent>
      <dc:title>Matplotlib v3.10.8, https://matplotlib.org/</dc:title>
     </cc:Agent>
    </dc:creator>
   </cc:Work>
  </rdf:RDF>
 </metadata>
 <defs>
  <style type="text/css">*{stroke-linejoin: round; stroke-linecap: butt}</style>
 </defs>
 <g id="figure_1">
  <g id="patch_1">
   <path d="M 0 205.511811 
L 411.023622 205.511811 
L 411.023622 0 
L 0 0 
z
" style="fill: #ffffff"/>
  </g>
  <g id="axes_1">
   <g id="patch_2">
    <path d="M 28.34 184.371811 
L 401.303622 184.371811 
L 401.303622 11.365068 
L 28.34 11.365068 
z
" style="fill: #ffffff"/>
   </g>
   <g id="matplotlib.axis_1">
    <g id="xtick_1">
     <g id="line2d_1">
      <defs>
       <path id="m8bd3eab80a" d="M 0 0 
L 0 3 
" style="stroke: #404040"/>
      </defs>
      <g>
       <use xlink:href="#m8bd3eab80a" x="45.292892" y="184.371811" style="fill: #404040; stroke: #404040"/>
      </g>
     </g>
     <g id="text_1">
      <text style="font-weight: 700; font-size: 9px; font-family: 'Century Gothic', 'DejaVu Sans'; text-anchor: middle; fill: #4d4d4d" x="45.292892" y="197.499467" transform="rotate(-0 45.292892 197.499467)">2017</text>
     </g>
    </g>
    <g id="xtick_2">
     <g id="line2d_2">
      <g>
       <use xlink:href="#m8bd3eab80a" x="82.279177" y="184.371811" style="fill: #404040; stroke: #404040"/>
      </g>
     </g>
     <g id="text_2">
      <text style="font-weight: 700; font-size: 9px; font-family: 'Century Gothic', 'DejaVu Sans'; text-anchor: middle; fill: #4d4d4d" x="82.279177" y="197.499467" transform="rotate(-0 82.279177 197.499467)">2018</text>
     </g>
    </g>
    <g id="xtick_3">
     <g id="line2d_3">
      <g>
       <use xlink:href="#m8bd3eab80a" x="119.265463" y="184.371811" style="fill: #404040; stroke: #404040"/>
      </g>
     </g>
     <g id="text_3">
      <text style="font-weight: 700; font-size: 9px; font-family: 'Century Gothic', 'DejaVu Sans'; text-anchor: middle; fill: #4d4d4d" x="119.265463" y="197.499467" transform="rotate(-0 119.265463 197.499467)">2019</text>
     </g>
    </g>
    <g id="xtick_4">
     <g id="line2d_4">
      <g>
       <use xlink:href="#m8bd3eab80a" x="156.251748" y="184.371811" style="fill: #404040; stroke: #404040"/>
      </g>
     </g>
     <g id="text_4">
      <text style="font-weight: 700; font-size: 9px; font-family: 'Century Gothic', 'DejaVu Sans'; text-anchor: middle; fill: #4d4d4d" x="156.251748" y="197.499467" transform="rotate(-0 156.251748 197.499467)">2020</text>
     </g>
    </g>
    <g id="xtick_5">
     <g id="line2d_5">
      <g>
       <use xlink:href="#m8bd3eab80a" x="193.339366" y="184.371811" style="fill: #404040; stroke: #404040"/>
      </g>
     </g>
     <g id="text_5">
      <text style="font-weight: 700; font-size: 9px; font-family: 'Century Gothic', 'DejaVu Sans'; text-anchor: middle; fill: #4d4d4d" x="193.339366" y="197.499467" transform="rotate(-0 193.339366 197.499467)">2021</text>
     </g>
    </g>
    <g id="xtick_6">
     <g id="line2d_6">
      <g>
       <use xlink:href="#m8bd3eab80a" x="230.325651" y="184.371811" style="fill: #404040; stroke: #404040"/>
      </g>
     </g>
     <g id="text_6">
      <text style="font-weight: 700; font-size: 9px; font-family: 'Century Gothic', 'DejaVu Sans'; text-anchor: middle; fill: #4d4d4d" x="230.325651" y="197.499467" transform="rotate(-0 230.325651 197.499467)">2022</text>
     </g>
    </g>
    <g id="xtick_7">
     <g id="line2d_7">
      <g>
       <use xlink:href="#m8bd3eab80a" x="267.311937" y="184.371811" style="fill: #404040; stroke: #404040"/>
      </g>
     </g>
     <g id="text_7">
      <text style="font-weight: 700; font-size: 9px; font-family: 'Century Gothic', 'DejaVu Sans'; text-anchor: middle; fill: #4d4d4d" x="267.311937" y="197.499467" transform="rotate(-0 267.311937 197.499467)">2023</text>
     </g>
    </g>
    <g id="xtick_8">
     <g id="line2d_8">
      <g>
       <use xlink:href="#m8bd3eab80a" x="304.298222" y="184.371811" style="fill: #404040; stroke: #404040"/>
      </g>
     </g>
     <g id="text_8">
      <text style="font-weight: 700; font-size: 9px; font-family: 'Century Gothic', 'DejaVu Sans'; text-anchor: middle; fill: #4d4d4d" x="304.298222" y="197.499467" transform="rotate(-0 304.298222 197.499467)">2024</text>
     </g>
    </g>
    <g id="xtick_9">
     <g id="line2d_9">
      <g>
       <use xlink:href="#m8bd3eab80a" x="341.38584" y="184.371811" style="fill: #404040; stroke: #404040"/>
      </g>
     </g>
     <g id="text_9">
      <text style="font-weight: 700; font-size: 9px; font-family: 'Century Gothic', 'DejaVu Sans'; text-anchor: middle; fill: #4d4d4d" x="341.38584" y="197.499467" transform="rotate(-0 341.38584 197.499467)">2025</text>
     </g>
    </g>
    <g id="xtick_10">
     <g id="line2d_10">
      <g>
       <use xlink:href="#m8bd3eab80a" x="378.372125" y="184.371811" style="fill: #404040; stroke: #404040"/>
      </g>
     </g>
     <g id="text_10">
      <text style="font-weight: 700; font-size: 9px; font-family: 'Century Gothic', 'DejaVu Sans'; text-anchor: middle; fill: #4d4d4d" x="378.372125" y="197.499467" transform="rotate(-0 378.372125 197.499467)">2026</text>
     </g>
    </g>
   </g>
   <g id="matplotlib.axis_2">
    <g id="ytick_1">
     <g id="line2d_11">
      <path d="M 28.34 162.87422 
L 401.303622 162.87422 
" clip-path="url(#p2566aa772b)" style="fill: none; stroke: #cccccc; stroke-linecap: round"/>
     </g>
     <g id="line2d_12">
      <defs>
       <path id="m4378729484" d="M 0 0 
L -3 0 
" style="stroke: #404040"/>
      </defs>
      <g>
       <use xlink:href="#m4378729484" x="28.34" y="162.87422" style="fill: #404040; stroke: #404040"/>
      </g>
     </g>
     <g id="text_11">
      <text style="font-weight: 700; font-size: 9px; font-family: 'Century Gothic', 'DejaVu Sans'; text-anchor: end; fill: #4d4d4d" x="21.84" y="166.188048" transform="rotate(-0 21.84 166.188048)">100</text>
     </g>
    </g>
    <g id="ytick_2">
     <g id="line2d_13">
      <path d="M 28.34 125.432863 
L 401.303622 125.432863 
" clip-path="url(#p2566aa772b)" style="fill: none; stroke: #cccccc; stroke-linecap: round"/>
     </g>
     <g id="line2d_14">
      <g>
       <use xlink:href="#m4378729484" x="28.34" y="125.432863" style="fill: #404040; stroke: #404040"/>
      </g>
     </g>
     <g id="text_12">
      <text style="font-weight: 700; font-size: 9px; font-family: 'Century Gothic', 'DejaVu Sans'; text-anchor: end; fill: #4d4d4d" x="21.84" y="128.746691" transform="rotate(-0 21.84 128.746691)">150</text>
     </g>
    </g>
    <g id="ytick_3">
     <g id="line2d_15">
      <path d="M 28.34 87.991506 
L 401.303622 87.991506 
" clip-path="url(#p2566aa772b)" style="fill: none; stroke: #cccccc; stroke-linecap: round"/>
     </g>
     <g id="line2d_16">
      <g>
       <use xlink:href="#m4378729484" x="28.34" y="87.991506" style="fill: #404040; stroke: #404040"/>
      </g>
     </g>
     <g id="text_13">
      <text style="font-weight: 700; font-size: 9px; font-family: 'Century Gothic', 'DejaVu Sans'; text-anchor: end; fill: #4d4d4d" x="21.84" y="91.305334" transform="rotate(-0 21.84 91.305334)">200</text>
     </g>
    </g>
    <g id="ytick_4">
     <g id="line2d_17">
      <path d="M 28.34 50.550149 
L 401.303622 50.550149 
" clip-path="url(#p2566aa772b)" style="fill: none; stroke: #cccccc; stroke-linecap: round"/>
     </g>
     <g id="line2d_18">
      <g>
       <use xlink:href="#m4378729484" x="28.34" y="50.550149" style="fill: #404040; stroke: #404040"/>
      </g>
     </g>
     <g id="text_14">
      <text style="font-weight: 700; font-size: 9px; font-family: 'Century Gothic', 'DejaVu Sans'; text-anchor: end; fill: #4d4d4d" x="21.84" y="53.863977" transform="rotate(-0 21.84 53.863977)">250</text>
     </g>
    </g>
    <g id="ytick_5">
     <g id="line2d_19">
      <path d="M 28.34 13.108792 
L 401.303622 13.108792 
" clip-path="url(#p2566aa772b)" style="fill: none; stroke: #cccccc; stroke-linecap: round"/>
     </g>
     <g id="line2d_20">
      <g>
       <use xlink:href="#m4378729484" x="28.34" y="13.108792" style="fill: #404040; stroke: #404040"/>
      </g>
     </g>
     <g id="text_15">
      <text style="font-weight: 700; font-size: 9px; font-family: 'Century Gothic', 'DejaVu Sans'; text-anchor: end; fill: #4d4d4d" x="21.84" y="16.42262" transform="rotate(-0 21.84 16.42262)">300</text>
     </g>
    </g>
   </g>
   <g id="line2d_21">
    <path d="M 28.34 162.87422 
L 401.303622 162.87422 
" clip-path="url(#p2566aa772b)" style="fill: none; stroke-dasharray: 1,1.65; stroke-dashoffset: 0; stroke: #cccccc"/>
   </g>
   <g id="line2d_22">
    <path d="M 45.292892 162.87422 
L 48.434193 164.922387 
L 51.271497 167.623159 
L 54.412798 172.335582 
L 57.452767 174.71504 
L 60.594068 174.687369 
L 63.634036 170.998936 
L 66.775337 168.97091 
L 69.916638 175.368398 
L 72.956607 173.229267 
L 76.097908 169.358906 
L 79.137876 168.857876 
L 82.279177 165.650803 
L 85.420478 167.279445 
L 88.257782 171.597095 
L 91.399083 174.038435 
L 94.439052 176.507868 
L 97.580353 176.100155 
L 100.620322 172.546732 
L 103.761623 169.378953 
L 106.902923 174.793015 
L 109.942892 172.18123 
L 113.084193 167.615677 
L 116.124162 167.297469 
L 119.265463 162.564952 
L 122.406764 163.980467 
L 125.244068 167.123635 
L 128.385369 169.995417 
L 131.425337 170.986984 
L 134.566638 170.958466 
L 140.747908 162.441001 
L 143.889209 168.655196 
L 150.070478 160.692878 
L 153.110447 160.083378 
L 156.251748 155.85768 
L 159.393049 157.87653 
L 162.331685 152.748018 
L 165.472986 33.289667 
L 168.512955 19.229011 
L 171.654256 64.823791 
L 174.694225 99.684374 
L 177.835526 113.795382 
L 180.976827 132.550766 
L 184.016795 132.274769 
L 187.158096 140.644189 
L 190.198065 144.197564 
L 193.339366 140.466638 
L 196.480667 141.51058 
L 199.317971 147.799504 
L 202.459272 150.900696 
L 205.49924 155.791892 
L 208.640541 160.944075 
L 211.68051 159.730158 
L 214.821811 159.606818 
L 217.963112 166.185009 
L 221.003081 166.520159 
L 224.144382 166.517759 
L 227.18435 165.014198 
L 230.325651 163.523907 
L 233.466952 164.209594 
L 236.304256 168.098872 
L 239.445557 170.510659 
L 242.485526 171.711541 
L 245.626827 171.681988 
L 248.666795 167.586924 
L 251.808096 165.639415 
L 254.949397 170.280544 
L 257.989366 168.571479 
L 261.130667 165.57198 
L 264.170636 163.493272 
L 267.311937 160.330905 
L 270.453238 161.978323 
L 273.290542 165.719132 
L 276.431843 169.766667 
L 279.471811 171.25211 
L 282.613112 170.100734 
L 285.653081 166.029952 
L 288.794382 164.16343 
L 291.935683 170.247744 
L 294.975651 167.947109 
L 298.116952 163.87788 
L 301.156921 162.970878 
L 304.298222 158.749321 
L 307.439523 159.843851 
L 310.378159 164.29877 
L 313.51946 167.008813 
L 316.559429 169.014392 
L 319.70073 168.831429 
L 322.740699 163.883574 
L 325.882 161.827407 
L 329.0233 168.623478 
L 332.063269 166.177339 
L 335.20457 161.745149 
L 338.244539 159.755899 
L 341.38584 155.845351 
L 344.527141 158.00914 
L 347.364445 159.984038 
L 350.505746 164.133501 
L 353.545714 165.370477 
L 356.687015 164.260653 
L 359.726984 157.979211 
L 362.868285 156.474991 
L 366.009586 163.524143 
L 369.049555 160.807182 
L 372.190855 157.689285 
L 375.230824 159.978202 
L 378.372125 155.711705 
L 381.513426 156.968445 
L 384.35073 159.995238 
" clip-path="url(#p2566aa772b)" style="fill: none; stroke: #83082a; stroke-width: 2; stroke-linecap: round"/>
   </g>
   <g id="line2d_23">
    <path d="M 45.292892 162.87422 
L 48.434193 164.205135 
L 51.271497 165.082716 
L 54.412798 166.551603 
L 57.452767 166.278325 
L 60.594068 164.083636 
L 63.634036 159.896966 
L 66.775337 159.299881 
L 69.916638 165.161345 
L 72.956607 164.452827 
L 76.097908 161.02752 
L 79.137876 160.115453 
L 82.279177 159.34352 
L 85.420478 160.613736 
L 88.257782 162.952993 
L 91.399083 163.198667 
L 94.439052 163.531626 
L 97.580353 161.581238 
L 100.620322 158.141462 
L 103.761623 157.017521 
L 106.902923 162.776684 
L 109.942892 162.064749 
L 113.084193 158.416904 
L 116.124162 157.694443 
L 119.265463 155.803478 
L 122.406764 156.999034 
L 125.244068 158.876537 
L 128.385369 159.436956 
L 131.425337 158.151152 
L 134.566638 156.454658 
L 140.747908 150.023732 
L 143.889209 156.193206 
L 150.070478 151.956752 
L 153.110447 151.195206 
L 156.251748 150.194736 
L 159.393049 151.713679 
L 162.331685 155.053572 
L 165.472986 69.215608 
L 168.512955 59.188934 
L 171.654256 93.093376 
L 174.694225 117.020244 
L 177.835526 128.740327 
L 180.976827 142.51632 
L 184.016795 143.231192 
L 187.158096 150.113228 
L 190.198065 153.899176 
L 193.339366 152.950101 
L 196.480667 154.412661 
L 199.317971 157.66941 
L 202.459272 158.86809 
L 205.49924 159.872492 
L 208.640541 160.770893 
L 211.68051 155.950996 
L 214.821811 154.443529 
L 217.963112 158.655358 
L 221.003081 159.150405 
L 224.144382 157.441114 
L 227.18435 154.793907 
L 230.325651 154.485266 
L 233.466952 154.96128 
L 236.304256 158.541973 
L 239.445557 158.912391 
L 242.485526 157.417088 
L 245.626827 156.126304 
L 248.666795 152.398008 
L 251.808096 151.856017 
L 254.949397 156.925228 
L 257.989366 154.200462 
L 261.130667 149.966044 
L 264.170636 146.814606 
L 267.311937 146.023513 
L 270.453238 147.535927 
L 273.290542 149.519804 
L 276.431843 151.782874 
L 279.471811 151.751592 
L 282.613112 148.762256 
L 285.653081 143.936874 
L 288.794382 143.025623 
L 291.935683 150.238287 
L 294.975651 148.9117 
L 298.116952 143.577638 
L 301.156921 142.146033 
L 304.298222 139.883259 
L 307.439523 140.79794 
L 310.378159 144.5428 
L 313.51946 145.620562 
L 316.559429 145.791314 
L 319.70073 143.783414 
L 322.740699 137.676954 
L 325.882 136.445445 
L 329.0233 144.175371 
L 332.063269 142.158394 
L 335.20457 136.73349 
L 338.244539 134.324055 
L 341.38584 132.046534 
L 344.527141 134.633517 
L 347.364445 136.65123 
L 350.505746 139.642071 
L 353.545714 139.205297 
L 356.687015 136.031089 
L 359.726984 128.623694 
L 362.868285 128.45319 
L 366.009586 137.214314 
L 369.049555 134.805704 
L 372.190855 130.250272 
L 375.230824 132.994331 
L 378.372125 129.307586 
L 381.513426 130.85146 
L 384.35073 133.41307 
" clip-path="url(#p2566aa772b)" style="fill: none; stroke: #404040; stroke-width: 1.5; stroke-linecap: round"/>
   </g>
   <g id="patch_3">
    <path d="M 28.34 184.371811 
L 28.34 11.365068 
" style="fill: none; stroke: #404040; stroke-linejoin: miter; stroke-linecap: square"/>
   </g>
   <g id="patch_4">
    <path d="M 28.34 184.371811 
L 401.303622 184.371811 
" style="fill: none; stroke: #404040; stroke-linejoin: miter; stroke-linecap: square"/>
   </g>
   <g id="legend_1">
    <g id="line2d_24">
     <path d="M 35.54 21.656318 
L 43.54 21.656318 
L 51.54 21.656318 
" style="fill: none; stroke: #83082a; stroke-width: 2; stroke-linecap: round"/>
    </g>
    <g id="text_16">
     <text style="font-weight: 700; font-size: 8px; font-family: 'Century Gothic', 'DejaVu Sans'; text-anchor: start; fill: #404040" x="57.94" y="24.456318" transform="rotate(-0 57.94 24.456318)">Beneficiarios</text>
    </g>
    <g id="line2d_25">
     <path d="M 35.54 33.102568 
L 43.54 33.102568 
L 51.54 33.102568 
" style="fill: none; stroke: #404040; stroke-width: 1.5; stroke-linecap: round"/>
    </g>
    <g id="text_17">
     <text style="font-weight: 700; font-size: 8px; font-family: 'Century Gothic', 'DejaVu Sans'; text-anchor: start; fill: #404040" x="57.94" y="35.902568" transform="rotate(-0 57.94 35.902568)">Tasa de cobertura</text>
    </g>
   </g>
  </g>
 </g>
 <defs>
  <clipPath id="p2566aa772b">
   <rect x="28.34" y="11.365068" width="372.963622" height="173.006743"/>
  </clipPath>
 </defs>
</svg>
