<?xml version="1.0" encoding="utf-8" standalone="no"?>
<!DOCTYPE svg PUBLIC "-//W3C//DTD SVG 1.1//EN"
  "http://www.w3.org/Graphics/SVG/1.1/DTD/svg11.dtd">
<svg xmlns:xlink="http://www.w3.org/1999/xlink" width="411.023622pt" height="205.511811pt" viewBox="0 0 411.023622 205.511811" xmlns="http://www.w3.org/2000/svg" version="1.1">
 <metadata>
  <rdf:RDF xmlns:dc="http://purl.org/dc/elements/1.1/" xmlns:cc="http://creativecommons.org/ns#" xmlns:rdf="http://www.w3.org/1999/02/22-rdf-syntax-ns#">
   <cc:Work>
    <dc:type rdf:resource="http://purl.org/dc/dcmitype/StillImage"/>
    <dc:date>2026-05-12T13:58:07.651720</dc:date>
    <dc:format>image/svg+xml</dc:format>
    <dc:creator>
     <cc:Agent>
      <dc:title>Matplotlib v3.10.8, https://matplotlib.org/</dc:title>
     </cc:Agent>
    </dc:creator>
   </cc:Work>
  </rdf:RDF>
 </metadata>
 <defs>
  <style type="text/css">*{stroke-linejoin: round; stroke-linecap: butt}</style>
 </defs>
 <g id="figure_1">
  <g id="patch_1">
   <path d="M 0 205.511811 
L 411.023622 205.511811 
L 411.023622 0 
L 0 0 
z
" style="fill: #ffffff"/>
  </g>
  <g id="axes_1">
   <g id="patch_2">
    <path d="M 28.16 184.371811 
L 401.303622 184.371811 
L 401.303622 11.365068 
L 28.16 11.365068 
z
" style="fill: #ffffff"/>
   </g>
   <g id="matplotlib.axis_1">
    <g id="xtick_1">
     <g id="line2d_1"/>
     <g id="text_1">
      <text style="font-size: 9px; font-family: 'Century Gothic'; text-anchor: middle; fill: #404040" x="45.121074" y="194.499467" transform="rotate(-0 45.121074 194.499467)">2017</text>
     </g>
    </g>
    <g id="xtick_2">
     <g id="line2d_2"/>
     <g id="text_2">
      <text style="font-size: 9px; font-family: 'Century Gothic'; text-anchor: middle; fill: #404040" x="82.125209" y="194.499467" transform="rotate(-0 82.125209 194.499467)">2018</text>
     </g>
    </g>
    <g id="xtick_3">
     <g id="line2d_3"/>
     <g id="text_3">
      <text style="font-size: 9px; font-family: 'Century Gothic'; text-anchor: middle; fill: #404040" x="119.129345" y="194.499467" transform="rotate(-0 119.129345 194.499467)">2019</text>
     </g>
    </g>
    <g id="xtick_4">
     <g id="line2d_4"/>
     <g id="text_4">
      <text style="font-size: 9px; font-family: 'Century Gothic'; text-anchor: middle; fill: #404040" x="156.133481" y="194.499467" transform="rotate(-0 156.133481 194.499467)">2020</text>
     </g>
    </g>
    <g id="xtick_5">
     <g id="line2d_5"/>
     <g id="text_5">
      <text style="font-size: 9px; font-family: 'Century Gothic'; text-anchor: middle; fill: #404040" x="193.238998" y="194.499467" transform="rotate(-0 193.238998 194.499467)">2021</text>
     </g>
    </g>
    <g id="xtick_6">
     <g id="line2d_6"/>
     <g id="text_6">
      <text style="font-size: 9px; font-family: 'Century Gothic'; text-anchor: middle; fill: #404040" x="230.243134" y="194.499467" transform="rotate(-0 230.243134 194.499467)">2022</text>
     </g>
    </g>
    <g id="xtick_7">
     <g id="line2d_7"/>
     <g id="text_7">
      <text style="font-size: 9px; font-family: 'Century Gothic'; text-anchor: middle; fill: #404040" x="267.247269" y="194.499467" transform="rotate(-0 267.247269 194.499467)">2023</text>
     </g>
    </g>
    <g id="xtick_8">
     <g id="line2d_8"/>
     <g id="text_8">
      <text style="font-size: 9px; font-family: 'Century Gothic'; text-anchor: middle; fill: #404040" x="304.251405" y="194.499467" transform="rotate(-0 304.251405 194.499467)">2024</text>
     </g>
    </g>
    <g id="xtick_9">
     <g id="line2d_9"/>
     <g id="text_9">
      <text style="font-size: 9px; font-family: 'Century Gothic'; text-anchor: middle; fill: #404040" x="341.356922" y="194.499467" transform="rotate(-0 341.356922 194.499467)">2025</text>
     </g>
    </g>
    <g id="xtick_10">
     <g id="line2d_10"/>
     <g id="text_10">
      <text style="font-size: 9px; font-family: 'Century Gothic'; text-anchor: middle; fill: #404040" x="378.361058" y="194.499467" transform="rotate(-0 378.361058 194.499467)">2026</text>
     </g>
    </g>
   </g>
   <g id="matplotlib.axis_2">
    <g id="ytick_1">
     <g id="line2d_11"/>
     <g id="text_11">
      <text style="font-size: 9px; font-family: 'Century Gothic'; text-anchor: end; fill: #404040" x="24.66" y="166.188048" transform="rotate(-0 24.66 166.188048)">100</text>
     </g>
    </g>
    <g id="ytick_2">
     <g id="line2d_12"/>
     <g id="text_12">
      <text style="font-size: 9px; font-family: 'Century Gothic'; text-anchor: end; fill: #404040" x="24.66" y="128.746691" transform="rotate(-0 24.66 128.746691)">150</text>
     </g>
    </g>
    <g id="ytick_3">
     <g id="line2d_13"/>
     <g id="text_13">
      <text style="font-size: 9px; font-family: 'Century Gothic'; text-anchor: end; fill: #404040" x="24.66" y="91.305334" transform="rotate(-0 24.66 91.305334)">200</text>
     </g>
    </g>
    <g id="ytick_4">
     <g id="line2d_14"/>
     <g id="text_14">
      <text style="font-size: 9px; font-family: 'Century Gothic'; text-anchor: end; fill: #404040" x="24.66" y="53.863977" transform="rotate(-0 24.66 53.863977)">250</text>
     </g>
    </g>
    <g id="ytick_5">
     <g id="line2d_15"/>
     <g id="text_15">
      <text style="font-size: 9px; font-family: 'Century Gothic'; text-anchor: end; fill: #404040" x="24.66" y="16.42262" transform="rotate(-0 24.66 16.42262)">300</text>
     </g>
    </g>
   </g>
   <g id="line2d_16">
    <path d="M 28.16 162.87422 
L 401.303622 162.87422 
" clip-path="url(#pf5f093f39a)" style="fill: none; stroke-dasharray: 1,1.65; stroke-dashoffset: 0; stroke: #8a94a6"/>
   </g>
   <g id="line2d_17">
    <path d="M 45.121074 162.87422 
L 48.263891 164.922387 
L 51.102564 167.623159 
L 54.245381 172.335582 
L 57.286817 174.71504 
L 60.429634 174.687369 
L 63.47107 170.998936 
L 66.613887 168.97091 
L 69.756704 175.368398 
L 72.79814 173.229267 
L 75.940957 169.358906 
L 78.982392 168.857876 
L 82.125209 165.650803 
L 85.268026 167.279445 
L 88.1067 171.597095 
L 91.249517 174.038435 
L 94.290953 176.507868 
L 97.43377 176.100155 
L 100.475206 172.546732 
L 103.618023 169.378953 
L 106.76084 174.793015 
L 109.802275 172.18123 
L 112.945092 167.615677 
L 115.986528 167.297469 
L 119.129345 162.564952 
L 122.272162 163.980467 
L 125.110836 167.123635 
L 128.253653 169.995417 
L 131.295088 170.986984 
L 134.437906 170.958466 
L 140.622158 162.441001 
L 143.764975 168.655196 
L 149.949228 160.692878 
L 152.990664 160.083378 
L 156.133481 155.85768 
L 159.276298 157.87653 
L 162.216353 152.748018 
L 165.35917 33.289667 
L 168.400605 19.229011 
L 171.543422 64.823791 
L 174.584858 99.684374 
L 177.727675 113.795382 
L 180.870492 132.550766 
L 183.911928 132.274769 
L 187.054745 140.644189 
L 190.096181 144.197564 
L 193.238998 140.466638 
L 196.381815 141.51058 
L 199.220488 147.799504 
L 202.363305 150.900696 
L 205.404741 155.791892 
L 208.547558 160.944075 
L 211.588994 159.730158 
L 214.731811 159.606818 
L 217.874628 166.185009 
L 220.916064 166.520159 
L 224.058881 166.517759 
L 227.100317 165.014198 
L 230.243134 163.523907 
L 233.385951 164.209594 
L 236.224624 168.098872 
L 239.367441 170.510659 
L 242.408877 171.711541 
L 245.551694 171.681988 
L 248.59313 167.586924 
L 251.735947 165.639415 
L 254.878764 170.280544 
L 257.9202 168.571479 
L 261.063017 165.57198 
L 264.104452 163.493272 
L 267.247269 160.330905 
L 270.390086 161.978323 
L 273.22876 165.719132 
L 276.371577 169.766667 
L 279.413013 171.25211 
L 282.55583 170.100734 
L 285.597266 166.029952 
L 288.740083 164.16343 
L 291.8829 170.247744 
L 294.924335 167.947109 
L 298.067152 163.87788 
L 301.108588 162.970878 
L 304.251405 158.749321 
L 307.394222 159.843851 
L 310.334277 164.29877 
L 313.477094 167.008813 
L 316.51853 169.014392 
L 319.661347 168.831429 
L 322.702782 163.883574 
L 325.845599 161.827407 
L 328.988416 168.623478 
L 332.029852 166.177339 
L 335.172669 161.745149 
L 338.214105 159.755899 
L 341.356922 155.845351 
L 344.499739 158.00914 
L 347.338413 159.984038 
L 350.48123 164.133501 
L 353.522665 165.370477 
L 356.665482 164.260653 
L 359.706918 157.979211 
L 362.849735 156.474991 
L 365.992552 163.524143 
L 369.033988 160.807182 
L 372.176805 157.689285 
L 375.218241 159.978202 
L 378.361058 155.711705 
L 381.503875 156.968445 
L 384.342548 159.995238 
" clip-path="url(#pf5f093f39a)" style="fill: none; stroke: #83082a; stroke-width: 2; stroke-linecap: round"/>
   </g>
   <g id="line2d_18">
    <path d="M 45.121074 162.87422 
L 48.263891 164.205135 
L 51.102564 165.082716 
L 54.245381 166.551603 
L 57.286817 166.278325 
L 60.429634 164.083636 
L 63.47107 159.896966 
L 66.613887 159.299881 
L 69.756704 165.161345 
L 72.79814 164.452827 
L 75.940957 161.02752 
L 78.982392 160.115453 
L 82.125209 159.34352 
L 85.268026 160.613736 
L 88.1067 162.952993 
L 91.249517 163.198667 
L 94.290953 163.531626 
L 97.43377 161.581238 
L 100.475206 158.141462 
L 103.618023 157.017521 
L 106.76084 162.776684 
L 109.802275 162.064749 
L 112.945092 158.416904 
L 115.986528 157.694443 
L 119.129345 155.803478 
L 122.272162 156.999034 
L 125.110836 158.876537 
L 128.253653 159.436956 
L 131.295088 158.151152 
L 134.437906 156.454658 
L 140.622158 150.023732 
L 143.764975 156.193206 
L 149.949228 151.956752 
L 152.990664 151.195206 
L 156.133481 150.194736 
L 159.276298 151.713679 
L 162.216353 155.053572 
L 165.35917 69.215608 
L 168.400605 59.188934 
L 171.543422 93.093376 
L 174.584858 117.020244 
L 177.727675 128.740327 
L 180.870492 142.51632 
L 183.911928 143.231192 
L 187.054745 150.113228 
L 190.096181 153.899176 
L 193.238998 152.950101 
L 196.381815 154.412661 
L 199.220488 157.66941 
L 202.363305 158.86809 
L 205.404741 159.872492 
L 208.547558 160.770893 
L 211.588994 155.950996 
L 214.731811 154.443529 
L 217.874628 158.655358 
L 220.916064 159.150405 
L 224.058881 157.441114 
L 227.100317 154.793907 
L 230.243134 154.485266 
L 233.385951 154.96128 
L 236.224624 158.541973 
L 239.367441 158.912391 
L 242.408877 157.417088 
L 245.551694 156.126304 
L 248.59313 152.398008 
L 251.735947 151.856017 
L 254.878764 156.925228 
L 257.9202 154.200462 
L 261.063017 149.966044 
L 264.104452 146.814606 
L 267.247269 146.023513 
L 270.390086 147.535927 
L 273.22876 149.519804 
L 276.371577 151.782874 
L 279.413013 151.751592 
L 282.55583 148.762256 
L 285.597266 143.936874 
L 288.740083 143.025623 
L 291.8829 150.238287 
L 294.924335 148.9117 
L 298.067152 143.577638 
L 301.108588 142.146033 
L 304.251405 139.883259 
L 307.394222 140.79794 
L 310.334277 144.5428 
L 313.477094 145.620562 
L 316.51853 145.791314 
L 319.661347 143.783414 
L 322.702782 137.676954 
L 325.845599 136.445445 
L 328.988416 144.175371 
L 332.029852 142.158394 
L 335.172669 136.73349 
L 338.214105 134.324055 
L 341.356922 132.046534 
L 344.499739 134.633517 
L 347.338413 136.65123 
L 350.48123 139.642071 
L 353.522665 139.205297 
L 356.665482 136.031089 
L 359.706918 128.623694 
L 362.849735 128.45319 
L 365.992552 137.214314 
L 369.033988 134.805704 
L 372.176805 130.250272 
L 375.218241 132.994331 
L 378.361058 129.307586 
L 381.503875 130.85146 
L 384.342548 133.41307 
" clip-path="url(#pf5f093f39a)" style="fill: none; stroke: #404040; stroke-width: 1.5; stroke-linecap: round"/>
   </g>
   <g id="patch_3">
    <path d="M 28.16 184.371811 
L 28.16 11.365068 
" style="fill: none; stroke: #404040; stroke-linejoin: miter; stroke-linecap: square"/>
   </g>
   <g id="patch_4">
    <path d="M 28.16 184.371811 
L 401.303622 184.371811 
" style="fill: none; stroke: #404040; stroke-linejoin: miter; stroke-linecap: square"/>
   </g>
   <g id="legend_1">
    <g id="line2d_19">
     <path d="M 35.36 21.656318 
L 43.36 21.656318 
L 51.36 21.656318 
" style="fill: none; stroke: #83082a; stroke-width: 2; stroke-linecap: round"/>
    </g>
    <g id="text_16">
     <text style="font-size: 8px; font-family: 'Century Gothic'; text-anchor: start; fill: #262626" x="57.76" y="24.456318" transform="rotate(-0 57.76 24.456318)">Beneficiarios</text>
    </g>
    <g id="line2d_20">
     <path d="M 35.36 33.102568 
L 43.36 33.102568 
L 51.36 33.102568 
" style="fill: none; stroke: #404040; stroke-width: 1.5; stroke-linecap: round"/>
    </g>
    <g id="text_17">
     <text style="font-size: 8px; font-family: 'Century Gothic'; text-anchor: start; fill: #262626" x="57.76" y="35.902568" transform="rotate(-0 57.76 35.902568)">Tasa de cobertura</text>
    </g>
   </g>
  </g>
 </g>
 <defs>
  <clipPath id="pf5f093f39a">
   <rect x="28.16" y="11.365068" width="373.143622" height="173.006743"/>
  </clipPath>
 </defs>
</svg>
