<?xml version="1.0" encoding="utf-8" standalone="no"?>
<!DOCTYPE svg PUBLIC "-//W3C//DTD SVG 1.1//EN"
  "http://www.w3.org/Graphics/SVG/1.1/DTD/svg11.dtd">
<svg xmlns:xlink="http://www.w3.org/1999/xlink" width="411.023622pt" height="205.511811pt" viewBox="0 0 411.023622 205.511811" xmlns="http://www.w3.org/2000/svg" version="1.1">
 <metadata>
  <rdf:RDF xmlns:dc="http://purl.org/dc/elements/1.1/" xmlns:cc="http://creativecommons.org/ns#" xmlns:rdf="http://www.w3.org/1999/02/22-rdf-syntax-ns#">
   <cc:Work>
    <dc:type rdf:resource="http://purl.org/dc/dcmitype/StillImage"/>
    <dc:date>2026-05-12T13:58:10.352842</dc:date>
    <dc:format>image/svg+xml</dc:format>
    <dc:creator>
     <cc:Agent>
      <dc:title>Matplotlib v3.10.8, https://matplotlib.org/</dc:title>
     </cc:Agent>
    </dc:creator>
   </cc:Work>
  </rdf:RDF>
 </metadata>
 <defs>
  <style type="text/css">*{stroke-linejoin: round; stroke-linecap: butt}</style>
 </defs>
 <g id="figure_1">
  <g id="patch_1">
   <path d="M 0 205.511811 
L 411.023622 205.511811 
L 411.023622 0 
L 0 0 
z
" style="fill: #ffffff"/>
  </g>
  <g id="axes_1">
   <g id="patch_2">
    <path d="M 45.53 149.989785 
L 401.303622 149.989785 
L 401.303622 9.72 
L 45.53 9.72 
z
" style="fill: #ffffff"/>
   </g>
   <g id="matplotlib.axis_1">
    <g id="xtick_1">
     <g id="line2d_1"/>
     <g id="text_1">
      <text style="font-size: 9px; font-family: 'Century Gothic'; fill: #404040" transform="translate(31.762834 188.423167) rotate(-35)">16 - 19 años</text>
     </g>
    </g>
    <g id="xtick_2">
     <g id="line2d_2"/>
     <g id="text_2">
      <text style="font-size: 9px; font-family: 'Century Gothic'; fill: #404040" transform="translate(64.765953 188.423167) rotate(-35)">20 - 24 años</text>
     </g>
    </g>
    <g id="xtick_3">
     <g id="line2d_3"/>
     <g id="text_3">
      <text style="font-size: 9px; font-family: 'Century Gothic'; fill: #404040" transform="translate(97.769072 188.423167) rotate(-35)">25 - 29 años</text>
     </g>
    </g>
    <g id="xtick_4">
     <g id="line2d_4"/>
     <g id="text_4">
      <text style="font-size: 9px; font-family: 'Century Gothic'; fill: #404040" transform="translate(130.772191 188.423167) rotate(-35)">30 - 34 años</text>
     </g>
    </g>
    <g id="xtick_5">
     <g id="line2d_5"/>
     <g id="text_5">
      <text style="font-size: 9px; font-family: 'Century Gothic'; fill: #404040" transform="translate(163.77531 188.423167) rotate(-35)">35 - 39 años</text>
     </g>
    </g>
    <g id="xtick_6">
     <g id="line2d_6"/>
     <g id="text_6">
      <text style="font-size: 9px; font-family: 'Century Gothic'; fill: #404040" transform="translate(196.778429 188.423167) rotate(-35)">40 - 44 años</text>
     </g>
    </g>
    <g id="xtick_7">
     <g id="line2d_7"/>
     <g id="text_7">
      <text style="font-size: 9px; font-family: 'Century Gothic'; fill: #404040" transform="translate(229.781548 188.423167) rotate(-35)">45 - 49 años</text>
     </g>
    </g>
    <g id="xtick_8">
     <g id="line2d_8"/>
     <g id="text_8">
      <text style="font-size: 9px; font-family: 'Century Gothic'; fill: #404040" transform="translate(262.784667 188.423167) rotate(-35)">50 - 54 años</text>
     </g>
    </g>
    <g id="xtick_9">
     <g id="line2d_9"/>
     <g id="text_9">
      <text style="font-size: 9px; font-family: 'Century Gothic'; fill: #404040" transform="translate(295.787786 188.423167) rotate(-35)">55 - 59 años</text>
     </g>
    </g>
    <g id="xtick_10">
     <g id="line2d_10"/>
     <g id="text_10">
      <text style="font-size: 9px; font-family: 'Century Gothic'; fill: #404040" transform="translate(320.64559 194.450271) rotate(-35)">60 y más años</text>
     </g>
    </g>
   </g>
   <g id="matplotlib.axis_2">
    <g id="ytick_1">
     <g id="line2d_11"/>
     <g id="text_11">
      <text style="font-size: 9px; font-family: 'Century Gothic'; text-anchor: end; fill: #404040" x="42.03" y="153.303613" transform="rotate(-0 42.03 153.303613)">0</text>
     </g>
    </g>
    <g id="ytick_2">
     <g id="line2d_12"/>
     <g id="text_12">
      <text style="font-size: 9px; font-family: 'Century Gothic'; text-anchor: end; fill: #404040" x="42.03" y="117.394856" transform="rotate(-0 42.03 117.394856)">100.000</text>
     </g>
    </g>
    <g id="ytick_3">
     <g id="line2d_13"/>
     <g id="text_13">
      <text style="font-size: 9px; font-family: 'Century Gothic'; text-anchor: end; fill: #404040" x="42.03" y="81.486099" transform="rotate(-0 42.03 81.486099)">200.000</text>
     </g>
    </g>
    <g id="ytick_4">
     <g id="line2d_14"/>
     <g id="text_14">
      <text style="font-size: 9px; font-family: 'Century Gothic'; text-anchor: end; fill: #404040" x="42.03" y="45.577342" transform="rotate(-0 42.03 45.577342)">300.000</text>
     </g>
    </g>
   </g>
   <g id="patch_3">
    <path d="M 61.701528 149.989785 
L 88.104023 149.989785 
L 88.104023 149.338759 
L 61.701528 149.338759 
z
" clip-path="url(#p57ef2e549b)" style="fill: #83082a"/>
   </g>
   <g id="patch_4">
    <path d="M 94.704647 149.989785 
L 121.107142 149.989785 
L 121.107142 130.860472 
L 94.704647 130.860472 
z
" clip-path="url(#p57ef2e549b)" style="fill: #83082a"/>
   </g>
   <g id="patch_5">
    <path d="M 127.707766 149.989785 
L 154.110261 149.989785 
L 154.110261 113.216704 
L 127.707766 113.216704 
z
" clip-path="url(#p57ef2e549b)" style="fill: #83082a"/>
   </g>
   <g id="patch_6">
    <path d="M 160.710885 149.989785 
L 187.11338 149.989785 
L 187.11338 110.382426 
L 160.710885 110.382426 
z
" clip-path="url(#p57ef2e549b)" style="fill: #83082a"/>
   </g>
   <g id="patch_7">
    <path d="M 193.714004 149.989785 
L 220.116499 149.989785 
L 220.116499 111.849299 
L 193.714004 111.849299 
z
" clip-path="url(#p57ef2e549b)" style="fill: #83082a"/>
   </g>
   <g id="patch_8">
    <path d="M 226.717123 149.989785 
L 253.119618 149.989785 
L 253.119618 112.98617 
L 226.717123 112.98617 
z
" clip-path="url(#p57ef2e549b)" style="fill: #83082a"/>
   </g>
   <g id="patch_9">
    <path d="M 259.720242 149.989785 
L 286.122737 149.989785 
L 286.122737 111.594705 
L 259.720242 111.594705 
z
" clip-path="url(#p57ef2e549b)" style="fill: #83082a"/>
   </g>
   <g id="patch_10">
    <path d="M 292.723361 149.989785 
L 319.125856 149.989785 
L 319.125856 115.463156 
L 292.723361 115.463156 
z
" clip-path="url(#p57ef2e549b)" style="fill: #83082a"/>
   </g>
   <g id="patch_11">
    <path d="M 325.72648 149.989785 
L 352.128975 149.989785 
L 352.128975 118.809493 
L 325.72648 118.809493 
z
" clip-path="url(#p57ef2e549b)" style="fill: #83082a"/>
   </g>
   <g id="patch_12">
    <path d="M 358.729599 149.989785 
L 385.132094 149.989785 
L 385.132094 115.924224 
L 358.729599 115.924224 
z
" clip-path="url(#p57ef2e549b)" style="fill: #83082a"/>
   </g>
   <g id="patch_13">
    <path d="M 61.701528 149.338759 
L 88.104023 149.338759 
L 88.104023 148.034194 
L 61.701528 148.034194 
z
" clip-path="url(#p57ef2e549b)" style="fill: #e397a0"/>
   </g>
   <g id="patch_14">
    <path d="M 94.704647 130.860472 
L 121.107142 130.860472 
L 121.107142 123.216934 
L 94.704647 123.216934 
z
" clip-path="url(#p57ef2e549b)" style="fill: #e397a0"/>
   </g>
   <g id="patch_15">
    <path d="M 127.707766 113.216704 
L 154.110261 113.216704 
L 154.110261 103.293319 
L 127.707766 103.293319 
z
" clip-path="url(#p57ef2e549b)" style="fill: #e397a0"/>
   </g>
   <g id="patch_16">
    <path d="M 160.710885 110.382426 
L 187.11338 110.382426 
L 187.11338 97.296198 
L 160.710885 97.296198 
z
" clip-path="url(#p57ef2e549b)" style="fill: #e397a0"/>
   </g>
   <g id="patch_17">
    <path d="M 193.714004 111.849299 
L 220.116499 111.849299 
L 220.116499 95.89432 
L 193.714004 95.89432 
z
" clip-path="url(#p57ef2e549b)" style="fill: #e397a0"/>
   </g>
   <g id="patch_18">
    <path d="M 226.717123 112.98617 
L 253.119618 112.98617 
L 253.119618 95.79988 
L 226.717123 95.79988 
z
" clip-path="url(#p57ef2e549b)" style="fill: #e397a0"/>
   </g>
   <g id="patch_19">
    <path d="M 259.720242 111.594705 
L 286.122737 111.594705 
L 286.122737 92.794317 
L 259.720242 92.794317 
z
" clip-path="url(#p57ef2e549b)" style="fill: #e397a0"/>
   </g>
   <g id="patch_20">
    <path d="M 292.723361 115.463156 
L 319.125856 115.463156 
L 319.125856 82.646502 
L 292.723361 82.646502 
z
" clip-path="url(#p57ef2e549b)" style="fill: #e397a0"/>
   </g>
   <g id="patch_21">
    <path d="M 325.72648 118.809493 
L 352.128975 118.809493 
L 352.128975 51.14734 
L 325.72648 51.14734 
z
" clip-path="url(#p57ef2e549b)" style="fill: #e397a0"/>
   </g>
   <g id="patch_22">
    <path d="M 358.729599 115.924224 
L 385.132094 115.924224 
L 385.132094 16.399514 
L 358.729599 16.399514 
z
" clip-path="url(#p57ef2e549b)" style="fill: #e397a0"/>
   </g>
   <g id="patch_23">
    <path d="M 45.53 149.989785 
L 45.53 9.72 
" style="fill: none; stroke: #404040; stroke-linejoin: miter; stroke-linecap: square"/>
   </g>
   <g id="patch_24">
    <path d="M 45.53 149.989785 
L 401.303622 149.989785 
" style="fill: none; stroke: #404040; stroke-linejoin: miter; stroke-linecap: square"/>
   </g>
   <g id="legend_1">
    <g id="patch_25">
     <path d="M 52.73 22.81125 
L 68.73 22.81125 
L 68.73 17.21125 
L 52.73 17.21125 
z
" style="fill: #83082a"/>
    </g>
    <g id="text_15">
     <text style="font-size: 8px; font-family: 'Century Gothic'; text-anchor: start; fill: #262626" x="75.13" y="22.81125" transform="rotate(-0 75.13 22.81125)">Prestación contributiva</text>
    </g>
    <g id="patch_26">
     <path d="M 52.73 34.36625 
L 68.73 34.36625 
L 68.73 28.76625 
L 52.73 28.76625 
z
" style="fill: #e397a0"/>
    </g>
    <g id="text_16">
     <text style="font-size: 8px; font-family: 'Century Gothic'; text-anchor: start; fill: #262626" x="75.13" y="34.36625" transform="rotate(-0 75.13 34.36625)">Subsidios de desempleo</text>
    </g>
   </g>
  </g>
 </g>
 <defs>
  <clipPath id="p57ef2e549b">
   <rect x="45.53" y="9.72" width="355.773622" height="140.269785"/>
  </clipPath>
 </defs>
</svg>
